<svg width="350" height="350" viewBox="0 0 350 350" fill="none" xmlns="http://www.w3.org/2000/svg">
<g clip-path="url(#clip0_676_950)">
<rect width="350" height="350" fill="#FAEEEE"/>
<path d="M264 139.5C264 196 220.348 237 166.5 237C105.896 239.43 53.9277 198.767 68.9998 139.5C65.5311 79.741 88.5001 40.0001 166.5 42C244.5 44 264 83 264 139.5Z" fill="#FFBB7C"/>
<path d="M273 40.9692C252.636 36.9265 221.848 46.5039 209 51.7979L254.818 98C265.873 81.2517 271.545 53.001 273 40.9692Z" fill="#FFBB7C"/>
<path d="M56.9998 43.0011C78.2601 38.8256 110.404 48.7176 123.818 54.1855L75.9822 101.906C64.4409 84.6072 58.5184 55.4282 56.9998 43.0011Z" fill="#FFBB7C"/>
<path d="M67.6566 51.713C82.5599 48.786 105.092 55.7202 114.496 59.5532C98.0581 68.3645 90.8128 75.7848 80.9631 93.0048C72.8728 80.8786 68.7211 60.4243 67.6566 51.713Z" fill="#FF9C7C"/>
<path d="M262.839 49.7018C247.936 46.7747 225.403 53.709 216 57.542C232.437 66.3532 239.683 73.7735 249.532 90.9936C257.623 78.8674 261.774 58.4131 262.839 49.7018Z" fill="#FF9C7C"/>
<path d="M62 316.5C63.2 270.5 84.8333 222.667 95.5 204.5C136 191.833 221.8 174.1 241 204.5C260.2 234.9 266.667 291.833 267.5 316.5C187.752 351.115 142.769 352.872 62 316.5Z" fill="#FFBB7C"/>
<path d="M277.5 234C278.7 262.4 266.667 279.833 260.5 285C257 289.667 252.8 298 264 294C278 289 287.5 255 287.5 253C287.5 251 291.5 231 302 222.5C310.4 215.7 314.833 209.333 316 207C318.833 201.333 323.6 187.2 320 176C316.4 164.8 304.5 171.333 299 176C291.333 183.5 276.3 205.6 277.5 234Z" fill="#FFBB7C"/>
<path d="M115 214.5C103.4 214.9 94.1667 213 91 212L89 216C89.8 218.4 95.6667 218.333 98.5 218L131.5 214C130.833 214 126.6 214.1 115 214.5Z" fill="#FFA653"/>
<circle cx="119.5" cy="119.5" r="10.5" fill="black"/>
<circle cx="183.5" cy="119.5" r="10.5" fill="black"/>
<path d="M119 314.5C89.309 297.807 98.5526 244.612 116.5 219C140.167 217.667 188.1 217.3 190.5 226.5C218.197 317.921 178.564 333.976 152 331C147.166 333.167 139.583 326.073 119 314.5Z" fill="#FFE0C3"/>
<path d="M193 264C204.2 268 220.333 280 227 285.5C217.333 278.333 198 267.3 198 280.5V300.5C195.5 297.1 188.8 284.169 182 259.65C125.115 234.719 113.43 189.227 115 168.5C149.4 146.5 174 220.1 182 259.65C185.494 261.181 189.158 262.634 193 264Z" fill="#D9D9D9"/>
<path d="M158 143.5C151.6 139.9 144.667 142 142 143.5C143.5 146.667 147.5 152.7 151.5 151.5C155.5 150.3 157.5 145.667 158 143.5Z" fill="#FF7F55"/>
<path d="M172 147C181 144.333 204.1 139.5 224.5 141.5C213.167 139.667 186.8 138.2 172 147Z" fill="black"/>
<path d="M175 153.656C184.383 153.409 207.947 154.72 227.134 161.931C216.662 157.227 191.573 148.986 175 153.656Z" fill="black"/>
<path d="M131.494 146.891C122.494 144.224 99.3941 139.391 78.9941 141.391C90.3275 139.557 116.694 138.091 131.494 146.891Z" fill="black"/>
<path d="M128.494 153.547C119.111 153.3 95.547 154.61 76.3598 161.822C86.8324 157.118 111.921 148.877 128.494 153.547Z" fill="black"/>
<path d="M143.714 300.647C142.562 298.882 140.257 295.282 140.257 295L144.657 299.588L150 296.412L145.6 301L148.743 306.647L144.657 301.706L139 307L143.714 300.647Z" fill="#FF7F55"/>
<path d="M127 174.294C126.267 173.265 124.8 171.165 124.8 171L127.6 173.676L131 171.824L128.2 174.5L130.2 177.794L127.6 174.912L124 178L127 174.294Z" fill="black"/>
<path d="M137.5 217.337C126.3 200.137 102.167 217.17 91.5 227.837L83 250.837C84.4181 266.955 92.8518 266.984 114 259.837C126.5 252.837 148.7 234.537 137.5 217.337Z" fill="#FFA653"/>
<path d="M134.074 215.878C123.372 199.753 100.313 215.722 90.1216 225.722L82 247.285C83.3549 262.397 91.4132 262.424 111.62 255.723C123.563 249.16 144.775 232.004 134.074 215.878Z" fill="#FFBB7C"/>
<path d="M172.062 210.337C183.263 193.137 207.396 210.17 218.062 220.837L226.562 243.837C225.144 259.955 216.711 259.984 195.562 252.837C183.062 245.837 160.863 227.537 172.062 210.337Z" fill="#FFA653"/>
<path d="M177.062 212.337C188.263 195.137 212.396 212.17 223.062 222.837L231.562 245.837C230.144 261.955 221.711 261.984 200.562 254.837C188.062 247.837 165.863 229.537 177.062 212.337Z" fill="#FFBB7C"/>
<path d="M90.5 212.5L87 209C90.7981 210.393 97.8853 212.785 102.3 213.68L105.5 214C104.827 214.096 103.697 213.963 102.3 213.68L90.5 212.5Z" fill="#FFA653"/>
<path d="M245.5 174.5C253.1 152.1 254.833 106.833 254 88C262.4 99.2 264.333 137.333 263.5 151.5C258.7 180.3 246.167 198.833 240.5 204.5C253.5 219.5 259 257 261 264C262.6 269.6 266.667 301.333 268.5 316.5L261 317.5C260.833 314.167 260.6 305.4 261 297C261.5 286.5 248.5 239.5 240.5 225.5C234.1 214.3 219.833 209.5 213.5 208.5C222 208.167 237.9 196.9 245.5 174.5Z" fill="#FFA653"/>
<path d="M254.5 88.5L273 41C268.2 68.6 260 87.8333 256.5 94L254.5 88.5Z" fill="#FFA653"/>
<path d="M285.191 258.671C285.128 258.946 285.064 259.223 285 259.5C284.159 263.143 282.939 266.639 281.5 269.914C282.28 267.761 283.657 263.703 285.191 258.671C289.6 239.589 293.071 225.443 298 221.5C303 217.5 315.5 203 317.5 199C319.1 195.8 320.5 190.667 321 188.5C320.5 192.667 319.1 201.6 317.5 204C315.9 206.4 313.5 210.667 312.5 212.5L304 220.5C300.333 223.167 292.3 231.4 289.5 243C288.157 248.564 286.607 254.031 285.191 258.671Z" fill="#FFA653"/>
</g>
<defs>
<clipPath id="clip0_676_950">
<rect width="350" height="350" fill="white"/>
</clipPath>
</defs>
</svg>
