<svg width="350" height="350" viewBox="0 0 350 350" fill="none" xmlns="http://www.w3.org/2000/svg">
<g clip-path="url(#clip0_676_996)">
<rect width="350" height="350" fill="#E8F8F6"/>
<path d="M279.108 156.944C308.807 214.661 258.845 239.199 185.896 239.199C112.948 239.199 64.8624 205.795 92.6845 156.944C94.9244 91.6274 134.176 50.1892 185.896 58.1371C235.759 53.2743 275.637 96.7948 279.108 156.944Z" fill="#F4EBF8"/>
<path d="M62.3025 84.6505C79.6408 59.2774 107.761 82.8133 124.858 90.549C119.32 101.121 118.074 106.465 115.762 100.895C113.45 95.3257 85.9018 107.342 72.4165 114.046C61.8209 114.82 44.9642 110.024 62.3025 84.6505Z" fill="#F4EBF8"/>
<path d="M73.6621 87.751C84.0447 72.0975 100.884 86.6176 111.122 91.39C107.805 97.9123 107.059 101.209 105.675 97.773C104.291 94.3369 87.7939 101.75 79.7186 105.886C73.3737 106.363 63.2795 103.405 73.6621 87.751Z" fill="#F4EBF8"/>
<path d="M306.65 87.6599C289.311 62.2868 261.191 85.8227 244.094 93.5584C249.633 104.131 250.878 109.475 253.19 103.905C255.502 98.3351 283.05 110.351 296.536 117.056C307.131 117.829 323.988 113.033 306.65 87.6599Z" fill="#F4EBF8"/>
<path d="M120.834 83.2149C98.9054 68.1563 107.636 32.8034 114.742 17.0093C117.666 41.9337 139.107 60.7136 149.462 66.988L120.834 83.2149Z" fill="#F4EBF8"/>
<path d="M113.975 336C93.5344 288.653 110.82 243.379 122.018 226.66H245.039C270.022 257.155 266.805 312.26 262.073 336H113.975Z" fill="#F4EBF8"/>
<path d="M66.9734 236.726L124.858 226.66V266.921C104.04 273.631 59.8139 283.025 49.4556 266.921C39.0973 250.817 56.8182 240.081 66.9734 236.726Z" fill="#F4EBF8"/>
<path d="M269.32 294.149L221.675 257.879L248.532 229.41C267.729 240.269 305.268 266.776 301.849 285.928C298.431 305.079 278.739 299.388 269.32 294.149Z" fill="#F4EBF8"/>
<path d="M63.4692 259.997C57.7509 262.421 58.8628 270.099 60.1335 273.635C68.2343 276.666 90.1547 275.656 93.4904 274.14C96.1589 272.928 96.1907 271.278 95.873 270.604C94.92 268.584 91.5843 265.048 85.866 267.069C78.7181 269.594 73.9529 265.553 73.9529 264.543C73.9529 263.533 70.6171 256.966 63.4692 259.997Z" fill="#F4EBF8"/>
<path d="M117.793 279.192C114.362 274.342 107.786 281.212 104.927 285.253C104.927 291.651 105.023 304.751 105.404 305.963C105.88 307.479 110.646 316.571 114.458 317.581C118.27 318.592 123.035 309.499 119.7 306.468C116.364 303.438 121.606 294.851 123.035 294.345C124.465 293.84 133.995 295.861 137.331 290.81C140.667 285.758 129.707 282.727 128.277 283.738C126.847 284.748 122.082 285.253 117.793 279.192Z" fill="#F4EBF8"/>
<ellipse cx="153.532" cy="134.725" rx="10.007" ry="10.6077" fill="#F4EBF8"/>
<ellipse cx="214.528" cy="134.725" rx="10.007" ry="10.6077" fill="#F4EBF8"/>
<path d="M184.03 77.6461C172.974 68.7559 180.059 61.1453 184.983 58.4513C209.381 54.4102 234.859 69.5641 244.548 77.6461C248.837 81.6871 257.7 90.8804 258.844 95.3255C259.988 99.7706 259.32 107.617 258.844 110.984C258.685 114.857 255.604 122.501 244.548 122.097C233.493 121.693 224.375 114.52 221.199 110.984C220.245 108.627 214.146 104.822 197.372 108.459C180.599 112.096 182.124 103.239 184.983 98.3563C189.272 95.1572 195.085 86.5363 184.03 77.6461Z" fill="#F4EBF8"/>
<path d="M120.296 115.064C116.865 108.194 107.43 108.497 103.141 109.507C96.2791 117.589 93.6106 143.519 93.1341 155.474L92.181 156.989L92.6576 158.505C93.42 160.929 97.4228 159.515 99.3289 158.505C102.982 155.811 109.622 148.705 106.953 141.836C104.285 134.966 113.148 130.554 117.913 129.207C120.137 127.355 123.727 121.934 120.296 115.064Z" fill="#F4EBF8"/>
<path d="M241.494 80.2056C263.423 65.1471 254.692 29.7941 247.586 14C244.662 38.9245 223.221 57.7043 212.866 63.9787L241.494 80.2056Z" fill="#F4EBF8"/>
<path d="M258.985 171.381C281.929 225.454 241.354 231.205 184.996 231.205C128.638 231.205 92.0483 217.147 113.543 171.381C118.066 166.311 126.86 173.552 182.818 173.552C238.777 173.552 254.62 166.311 258.985 171.381Z" fill="#F4EBF8"/>
<path d="M253.17 132.7C256.779 122.646 264.242 128.511 267.523 132.7C273.428 137.037 273.538 146.642 272.854 150.902C270.667 153.213 265.39 156.449 261.782 150.902C258.173 145.355 255.904 149.457 255.22 152.202C252.213 157.692 244.64 165.377 238.406 152.202C232.173 139.027 239.363 138.334 243.738 139.634C245.378 141.512 249.561 142.754 253.17 132.7Z" fill="#F4EBF8"/>
<path d="M297.257 91.792C286.874 76.1385 270.035 90.6586 259.797 95.431C263.114 101.953 263.86 105.25 265.244 101.814C266.628 98.3779 283.125 105.791 291.2 109.927C297.545 110.404 307.639 107.446 297.257 91.792Z" fill="#F4EBF8"/>
<path d="M275.347 157.582C304.566 213.963 255.411 237.933 183.641 237.933C111.871 237.933 64.5621 205.302 91.9347 157.582C94.1384 93.7776 132.756 53.2988 183.641 61.0627C232.698 56.3124 271.931 98.8254 275.347 157.582Z" fill="#FFF4F4"/>
<path d="M62.0436 86.9623C79.1018 62.1766 106.768 85.1677 123.589 92.7243C118.14 103.052 116.914 108.272 114.639 102.831C112.365 97.3903 85.2616 109.128 71.9942 115.677C61.5698 116.433 44.9854 111.748 62.0436 86.9623Z" fill="#FFF4F4"/>
<path d="M73.2197 89.991C83.4346 74.6999 100.002 88.8839 110.075 93.5458C106.811 99.9171 106.077 103.138 104.715 99.781C103.353 96.4244 87.1232 103.666 79.1784 107.706C72.9359 108.173 63.0048 105.282 73.2197 89.991Z" fill="#EEBEBE"/>
<path d="M302.444 89.902C285.386 65.1163 257.72 88.1074 240.899 95.664C246.348 105.991 247.574 111.212 249.848 105.771C252.123 100.33 279.226 112.068 292.494 118.617C302.918 119.373 319.502 114.688 302.444 89.902Z" fill="#FFF4F4"/>
<path d="M119.63 85.5599C98.0557 70.85 106.645 36.3156 113.637 20.8871C116.514 45.2345 137.608 63.5796 147.796 69.7087C139.779 79.3527 134.435 83.7772 119.63 85.5599Z" fill="#FBF1BC"/>
<path d="M112.883 332.493C92.7724 286.242 109.779 242.016 120.796 225.684H241.83C266.409 255.473 263.243 309.302 258.588 332.493C217.281 362.213 162.37 361.528 112.883 332.493Z" fill="#FFF4F4"/>
<path d="M66.6396 235.517L123.589 225.684V265.013C103.107 271.568 59.5958 280.744 49.4049 265.013C39.2139 249.282 56.6485 238.794 66.6396 235.517Z" fill="#FFF4F4"/>
<path d="M265.717 291.611L218.842 256.18L245.265 228.371C264.151 238.979 301.084 264.872 297.721 283.58C294.358 302.288 274.984 296.729 265.717 291.611Z" fill="#FFF4F4"/>
<path d="M63.1923 258.249C57.5663 260.618 58.6603 268.118 59.9105 271.572C67.8804 274.532 89.4466 273.545 92.7284 272.065C95.3538 270.881 95.3851 269.269 95.0726 268.611C94.1349 266.637 90.8531 263.183 85.2272 265.157C78.1948 267.624 73.5066 263.677 73.5066 262.69C73.5066 261.703 70.2246 255.289 63.1923 258.249Z" fill="#8E7373"/>
<path d="M116.638 276.999C113.263 272.263 106.793 278.973 103.98 282.921C103.98 289.171 104.074 301.967 104.449 303.151C104.918 304.632 109.606 313.513 113.357 314.5C117.107 315.487 121.795 306.605 118.514 303.645C115.232 300.684 120.389 292.296 121.795 291.802C123.202 291.309 132.578 293.283 135.86 288.348C139.142 283.414 128.359 280.453 126.952 281.44C125.546 282.427 120.858 282.921 116.638 276.999Z" fill="#8E7373"/>
<ellipse cx="151.8" cy="135.878" rx="9.84535" ry="10.3621" fill="black"/>
<ellipse cx="211.81" cy="135.878" rx="9.84535" ry="10.3621" fill="black"/>
<path d="M181.805 80.12C170.928 71.4356 177.898 64.0012 182.742 61.3695C206.746 57.4221 231.813 72.225 241.345 80.12C245.565 84.0674 254.285 93.0479 255.41 97.3901C256.535 101.732 255.879 109.397 255.41 112.686C255.254 116.469 252.222 123.937 241.345 123.542C230.469 123.147 221.498 116.141 218.373 112.686C217.435 110.384 211.434 106.667 194.932 110.219C178.429 113.772 179.929 105.121 182.742 100.351C186.962 97.2256 192.681 88.8044 181.805 80.12Z" fill="#8E7373"/>
<path d="M119.101 116.672C115.726 109.961 106.443 110.257 102.223 111.244C95.4722 119.139 92.8468 144.468 92.378 156.146L91.4403 157.626L91.9092 159.107C92.6593 161.475 96.5974 160.094 98.4727 159.107C102.067 156.475 108.599 149.534 105.974 142.823C103.349 136.113 112.069 131.803 116.757 130.488C118.945 128.678 122.477 123.382 119.101 116.672Z" fill="#8E7373"/>
<path d="M238.341 82.6202C259.915 67.9103 251.325 33.3759 244.334 17.9474C241.457 42.2948 220.363 60.6399 210.175 66.769C216.62 77.4309 222.424 81.2628 238.341 82.6202Z" fill="#FBF1BC"/>
<path d="M255.549 171.684C278.123 224.506 238.203 230.123 182.756 230.123C127.308 230.123 91.3095 216.391 112.457 171.684C116.907 166.732 125.558 173.806 180.613 173.806C235.668 173.806 251.255 166.732 255.549 171.684Z" fill="#EEBEBE"/>
<path d="M249.827 133.899C253.378 124.078 260.721 129.807 263.949 133.899C269.759 138.136 269.866 147.518 269.194 151.68C267.042 153.938 261.851 157.099 258.3 151.68C254.75 146.261 252.517 150.269 251.845 152.95C248.886 158.312 241.435 165.82 235.303 152.95C229.17 140.08 236.244 139.403 240.548 140.673C242.162 142.507 246.277 143.721 249.827 133.899Z" fill="#8E7373"/>
<path d="M293.203 93.9384C282.988 78.6473 266.421 92.8312 256.348 97.4932C259.611 103.864 260.345 107.085 261.707 103.728C263.069 100.372 279.3 107.613 287.244 111.654C293.487 112.12 303.418 109.23 293.203 93.9384Z" fill="#EEBEBE"/>
<ellipse cx="182.742" cy="182.754" rx="39.8502" ry="19.7373" fill="#F3CFCF"/>
<ellipse cx="182.742" cy="179.793" rx="39.8502" ry="19.7373" fill="#EEBEBE"/>
<ellipse cx="166.803" cy="180.287" rx="5.15709" ry="5.42776" fill="#AE6060"/>
<ellipse cx="194.932" cy="180.287" rx="5.15709" ry="5.42776" fill="#AE6060"/>
<path d="M244.159 239.992C241.158 236.045 244.784 231.439 246.972 229.63C260.457 236.826 282.986 252.973 282.133 255.288C281.27 257.634 278.383 258.249 276.039 257.262C273.695 256.275 264.787 249.367 261.974 244.926C259.724 241.374 256.661 241.801 255.41 242.459C252.91 243.282 247.159 243.939 244.159 239.992Z" fill="#8E7373"/>
<path d="M104.449 229.136L119.451 226.176C120.702 227.656 123.39 231.209 124.14 233.577C125.077 236.538 121.796 237.525 121.327 237.525C120.858 237.525 116.17 237.525 113.825 235.551C111.95 233.972 107.418 234.564 105.387 235.058C103.511 235.88 98.823 237.525 95.0724 237.525C81.9453 236.34 87.1024 233.084 91.3218 231.604L104.449 229.136Z" fill="#8E7373"/>
<path d="M241.345 299.697C234.594 288.645 251.659 287.855 261.036 288.842C262.536 298.711 260.411 318.612 259.161 327.33C256.66 328.81 250.253 330.882 244.627 327.33C239.001 323.777 241.033 320.586 242.752 319.435C245.096 317.461 248.096 310.75 241.345 299.697Z" fill="#8E7373"/>
<path d="M120.36 227.484C120.047 227.375 119.744 227.268 119.451 227.163C119.754 227.271 120.057 227.378 120.36 227.484C134.726 232.479 169.662 241.109 201.965 238.018C234.97 234.86 246.034 230.781 247.441 229.137L243.69 233.577C226.899 240.123 178.834 248.003 120.36 227.484Z" fill="#D9D9D9"/>
<path d="M250.722 274.532L261.974 288.348H258.512L250.722 274.532Z" fill="#D9D9D9"/>
<path d="M115.285 258.149L101.636 270.585L104.917 270.091L104.449 272.559L115.285 258.149Z" fill="#D9D9D9"/>
<path d="M54.7529 213.347H89.4461V285.853L84.7578 290.322L54.7529 285.853V213.347Z" fill="#DDC7C7"/>
<rect x="36" y="218.281" width="48.7579" height="72.0411" fill="#EDDBDB"/>
<path d="M39.9885 213.347L36 218.281H84.7579L89.4462 213.347H39.9885Z" fill="#EDDBDB"/>
<rect x="36" y="235.058" width="48.7579" height="19.7373" fill="#C86E6E"/>
<path d="M48.0105 242.278H50.286L52.6895 248.141H52.7917L55.1951 242.278H57.4707V251.005H55.6809V245.325H55.6085L53.35 250.963H52.1312L49.8727 245.303H49.8002V251.005H48.0105V242.278ZM60.8361 242.278V251.005H58.9909V242.278H60.8361ZM62.3542 251.005V242.278H64.1994V249.484H67.9409V251.005H62.3542ZM69.1628 251.005V242.278H71.008V246.126H71.123L74.2637 242.278H76.4753L73.2367 246.186L76.5137 251.005H74.3063L71.9157 247.417L71.008 248.525V251.005H69.1628Z" fill="#FFF4F4"/>
<rect x="74.4438" y="202.491" width="2.81296" height="12.8292" fill="#FFF4F4"/>
<rect width="2.88772" height="12.5134" transform="matrix(0.6888 0.724952 -0.6888 0.724952 83.063 193.609)" fill="#FFF4F4"/>
<path d="M146.174 260.223C133.985 285.388 146.537 323.502 148.519 333.251C150.5 343 219.78 344.5 219.78 333.251C219.78 322.002 236.658 278.48 219.78 260.223C202.902 241.966 158.364 235.058 146.174 260.223Z" fill="#EEBEBE"/>
<path d="M182.943 319.58C181.863 317.838 179.702 314.286 179.702 314.007L183.827 318.535L188.837 315.4L184.711 319.928L187.658 325.501L183.827 320.625L178.523 325.849L182.943 319.58Z" fill="#AE6060"/>
</g>
<defs>
<clipPath id="clip0_676_996">
<rect width="350" height="350" fill="white"/>
</clipPath>
</defs>
</svg>
