<svg width="206" height="382" viewBox="0 0 206 382" fill="none" xmlns="http://www.w3.org/2000/svg">
<rect x="92" y="46.7186" width="18" height="14" fill="#E67878"/>
<path d="M56.8837 67.2609L103.807 55L151.501 67.2609L146.016 122.435C151.003 147.467 157.33 181.425 156.987 196H48.2811C46.0961 180.588 57.2567 130.098 60.7472 122.435L56.8837 67.2609Z" fill="#E67878"/>
<path d="M56.0595 67.6928C61.1565 64.1929 78.1438 64.3817 78.1438 64.3817L94.7035 67.6928L73.4201 88.9303L59.7796 111.872L53.4341 140.491L30.1509 174.29L21.8627 169.179L37.6816 116.901L45.8669 85.3818C45.8669 85.3818 50.9626 71.1927 56.0595 67.6928Z" fill="#E67878"/>
<path d="M11.6125 178.575L21.2737 169.253L32.3631 168.783L28.3948 187.175L19.5664 196.828L18.7735 197.138L17.744 196.54L17.6929 195.224L18.08 192.788L20.5745 189.096L19.8078 186.953L18.4112 185.391L18.3534 185.229L17.5122 186.482L14.7596 189.245L12.2135 192.075C12.2135 192.075 10.1908 203.402 10.39 204.092C10.5892 204.782 9.35617 207.117 6.13774 203.42L4.1942 194.833L5.67786 191.581L11.6125 178.575Z" fill="#E67878"/>
<path d="M149.941 66.6928C144.844 63.1929 127.857 63.3817 127.857 63.3817L111.297 66.6928L132.58 87.9303L146.221 110.872L152.566 139.491L175.85 173.29L184.138 168.179L168.319 115.901L160.134 84.3818C160.134 84.3818 155.038 70.1927 149.941 66.6928Z" fill="#E67878"/>
<path d="M194.388 177.575L184.727 168.253L173.637 167.783L177.606 186.175L186.434 195.828L187.227 196.138L188.256 195.54L188.308 194.224L187.921 191.788L185.426 188.096L186.193 185.953L187.589 184.391L187.647 184.229L188.488 185.482L191.241 188.245L193.787 191.075C193.787 191.075 195.81 202.402 195.61 203.092C195.411 203.782 196.644 206.117 199.863 202.42L201.806 193.833L200.323 190.581L194.388 177.575Z" fill="#E67878"/>
<path d="M96.7878 216.275L101 193H47.9714V210.641L55.4816 237.401V260.404C50.217 274.671 49.4962 277.928 49.4735 281.061V298.431C51.9426 316.544 52.2468 322.395 53.2286 334.58V366.504L42.7143 372.607L37.4571 375.658L24.2 379.008L21 382L80.2653 381.057V374.484L73.5061 361.809C73.5061 361.809 73.5061 346.594 75.0082 336.927C76.5102 327.261 78.6 319.166 80.2653 316.74C81.9306 314.314 86.3551 307.198 89.2775 295.23C92.2 283.261 90.2382 275.394 89.2775 258.527L96.7878 216.275Z" fill="#E67878"/>
<path d="M108.212 215.275L104 192H157.029V209.641L149.518 236.401V259.404C154.783 273.671 155.504 276.928 155.527 280.061V297.431C153.057 315.544 152.753 321.395 151.771 333.58V365.504L162.286 371.607L167.543 374.658L180.8 378.008L184 381L124.735 380.057V373.484L131.494 360.809C131.494 360.809 131.494 345.594 129.992 335.927C128.49 326.261 126.4 318.166 124.735 315.74C123.069 313.314 118.645 306.198 115.722 294.23C112.8 282.261 114.762 274.394 115.722 257.527L108.212 215.275Z" fill="#E67878"/>
<path d="M118 30.7186C116.085 42.143 108.522 53.3961 101 55.7186C93.6415 54.1695 86.3242 42.7523 84 30.7186C84 16.9114 91.6112 5.71857 101 5.71857C110.389 5.71857 118 16.9114 118 30.7186Z" fill="#E67878"/>
<path d="M84.5001 28.7186C84.5001 28.2186 82.0001 21.2186 84.0001 15.2186C85.6001 10.4186 88.3334 6.55189 89.5 5.21856C91 3.05189 95.5 -0.981444 101.5 0.218556C109 1.71856 112.5 3.71857 115.5 1.21857L112.5 5.21856C114.734 5.21856 118.911 5.07815 120.442 4.56203L121 4.21857C120.935 4.34826 120.738 4.46218 120.442 4.56203L114.5 8.21857C116.152 8.4546 119.125 8.75748 121.145 8.63017C122.616 8.10043 123.636 7.7949 123 8.21857C122.65 8.4521 121.978 8.57769 121.145 8.63017C119.839 9.10072 118.176 9.74816 117 10.2186C119.333 14.8852 120.1 26.1186 114.5 29.7186C108.9 33.3186 93.0001 30.2186 84.5001 28.7186Z" fill="#E67878"/>
</svg>
