<svg width="130" height="383" viewBox="0 0 130 383" fill="none" xmlns="http://www.w3.org/2000/svg">
<rect x="54" y="46.7186" width="18" height="14" fill="#8DF1A3"/>
<path d="M34.5 67.2186L64.5 55.2186L96 67.2186L87.5 125.219L88.5 150L96 173.219L98.5 193.219H29L31.5 173.219L41 149.719L43 125.219L34.5 67.2186Z" fill="#8DF1A3"/>
<path d="M33 66.0296C36.0003 62.5297 46.0001 62.7185 46.0001 62.7185L55.7482 66.0296L43.2195 87.2671L35.1898 110.209L31.4545 138.828L17.7485 172.627L12.8696 167.516L22.1816 115.237L26.9999 83.7186C26.9999 83.7186 29.9996 69.5295 33 66.0296Z" fill="#8DF1A3"/>
<path d="M6.83567 176.912L12.5228 167.59L19.0507 167.12L16.7148 185.511L11.5178 195.165L11.0511 195.475L10.4451 194.876L10.415 193.561L10.6428 191.125L12.1112 187.433L11.6599 185.29L10.8378 183.728L10.8038 183.566L10.3086 184.819L8.68824 187.582L7.18946 190.412C7.18946 190.412 5.99877 201.739 6.11604 202.429C6.23331 203.119 5.50744 205.454 3.61287 201.757L2.46878 193.17L3.34216 189.918L6.83567 176.912Z" fill="#8DF1A3"/>
<path d="M96.9229 66.4114C93.9225 62.9115 83.9227 63.1003 83.9227 63.1003L74.1746 66.4114L86.7033 87.6489L94.733 110.591L98.4684 139.21L112.174 173.009L117.053 167.898L107.741 115.619L102.923 84.1003C102.923 84.1003 99.9233 69.9113 96.9229 66.4114Z" fill="#8DF1A3"/>
<path d="M123.087 177.294L117.4 167.972L110.872 167.502L113.208 185.893L118.405 195.546L118.872 195.857L119.478 195.258L119.508 193.943L119.28 191.507L117.812 187.815L118.263 185.672L119.085 184.11L119.119 183.948L119.614 185.201L121.235 187.964L122.733 190.793C122.733 190.793 123.924 202.121 123.807 202.811C123.69 203.501 124.415 205.836 126.31 202.138L127.454 193.552L126.581 190.3L123.087 177.294Z" fill="#8DF1A3"/>
<path d="M60.3673 216.055L63 192.719H29.8571V210.406L34.551 237.237V260.301C31.2606 274.606 30.8101 277.871 30.7959 281.012V298.429C32.3392 316.589 32.5293 322.456 33.1429 334.673V366.681L26.5714 372.8L23.2857 375.86L15 379.219L13 382.219L50.0408 381.273V374.683L45.8163 361.974C45.8163 361.974 45.8163 346.719 46.7551 337.027C47.6939 327.335 49 319.219 50.0408 316.786C51.0816 314.354 53.8469 307.219 55.6735 295.219C57.5 283.219 56.2739 275.33 55.6735 258.419L60.3673 216.055Z" fill="#8DF1A3"/>
<path d="M67.6327 216.055L65 192.719H98.1429V210.406L93.449 237.237V260.301C96.7394 274.606 97.1899 277.871 97.2041 281.012V298.429C95.6608 316.589 95.4707 322.456 94.8571 334.673V366.681L101.429 372.8L104.714 375.86L113 379.219L115 382.219L77.9592 381.273V374.683L82.1837 361.974C82.1837 361.974 82.1837 346.719 81.2449 337.027C80.3061 327.335 79 319.219 77.9592 316.786C76.9184 314.354 74.1531 307.219 72.3265 295.219C70.5 283.219 71.7261 275.33 72.3265 258.419L67.6327 216.055Z" fill="#8DF1A3"/>
<path d="M80 30.7186C78.0847 42.143 70.5219 53.3961 63 55.7186C55.6415 54.1695 48.3242 42.7523 46 30.7186C46 16.9114 53.6112 5.71857 63 5.71857C72.3888 5.71857 80 16.9114 80 30.7186Z" fill="#8DF1A3"/>
<path d="M46.5001 28.7186C46.5001 28.2186 44.0001 21.2186 46.0001 15.2186C47.6001 10.4186 50.3334 6.55189 51.5 5.21856C53 3.05189 57.5 -0.981444 63.5 0.218556C71 1.71856 74.5 3.71857 77.5 1.21857L74.5 5.21856C76.7344 5.21856 80.9111 5.07815 82.4419 4.56203L83 4.21857C82.9352 4.34826 82.738 4.46218 82.4419 4.56203L76.5 8.21857C78.1522 8.4546 81.1247 8.75748 83.1454 8.63017C84.6163 8.10043 85.6355 7.7949 85 8.21857C84.6497 8.4521 83.9784 8.57769 83.1454 8.63017C81.8389 9.10072 80.176 9.74816 79 10.2186C81.3333 14.8852 82.1 26.1186 76.5 29.7186C70.9 33.3186 55.0001 30.2186 46.5001 28.7186Z" fill="#8DF1A3"/>
</svg>
