<svg width="175" height="382" viewBox="0 0 175 382" fill="none" xmlns="http://www.w3.org/2000/svg">
<rect x="77" y="46.7186" width="18" height="14" fill="#F1BE83"/>
<path d="M49.1362 68.7447L86.2534 53L124.5 68.7447L121.5 119.5C132.206 157.422 135.19 180.809 129.556 201H42.3876C34.7262 183.069 39.4551 163.562 52.9999 123L49.1362 68.7447Z" fill="#F1BE83"/>
<path d="M48.9779 67.6928C53.431 64.1929 68.2725 64.3817 68.2725 64.3817L82.7405 67.6928L64.1455 88.9303L52.228 111.872L46.6841 140.491L26.3419 174.29L19.1007 169.179L32.9214 116.901L40.0727 85.3818C40.0727 85.3818 44.5247 71.1927 48.9779 67.6928Z" fill="#F1BE83"/>
<path d="M10.1454 178.575L18.5862 169.253L28.2748 168.783L24.8078 187.175L17.0946 196.828L16.4018 197.138L15.5024 196.54L15.4577 195.224L15.7959 192.788L17.9753 189.096L17.3055 186.953L16.0853 185.391L16.0348 185.229L15.2999 186.482L12.8949 189.245L10.6705 192.075C10.6705 192.075 8.90329 203.402 9.07733 204.092C9.25138 204.782 8.17406 207.117 5.36217 203.42L3.66414 194.833L4.96039 191.581L10.1454 178.575Z" fill="#F1BE83"/>
<path d="M126.022 68.6928C121.569 65.1929 106.727 65.3817 106.727 65.3817L92.2595 68.6928L110.854 89.9303L122.772 112.872L128.316 141.491L148.658 175.29L155.899 170.179L142.079 117.901L134.927 86.3818C134.927 86.3818 130.475 72.1927 126.022 68.6928Z" fill="#F1BE83"/>
<path d="M164.855 179.575L156.414 170.253L146.725 169.783L150.192 188.175L157.905 197.828L158.598 198.138L159.498 197.54L159.542 196.224L159.204 193.788L157.025 190.096L157.695 187.953L158.915 186.391L158.965 186.229L159.7 187.482L162.105 190.245L164.33 193.075C164.33 193.075 166.097 204.402 165.923 205.092C165.749 205.782 166.826 208.117 169.638 204.42L171.336 195.833L170.04 192.581L164.855 179.575Z" fill="#F1BE83"/>
<path d="M80.4196 212.521L84 189H38.9257V206.828L45.3094 233.871V257.118C40.8345 271.535 40.2217 274.826 40.2024 277.993V295.547C42.3012 313.851 42.5598 319.765 43.3943 332.078V364.34L34.4571 370.507L29.9886 373.591L18.72 376.976L16 380L66.3755 379.047V372.405L60.6302 359.595C60.6302 359.595 60.6302 344.219 61.9069 334.45C63.1837 324.682 64.96 316.501 66.3755 314.05C67.791 311.598 71.5518 304.406 74.0359 292.311C76.52 280.216 74.8525 272.266 74.0359 255.22L80.4196 212.521Z" fill="#F1BE83"/>
<path d="M89.5804 214.521L86 191H131.074V208.828L124.691 235.871V259.118C129.166 273.535 129.778 276.826 129.798 279.993V297.547C127.699 315.851 127.44 321.765 126.606 334.078V366.34L135.543 372.507L140.011 375.591L151.28 378.976L154 382L103.624 381.047V374.405L109.37 361.595C109.37 361.595 109.37 346.219 108.093 336.45C106.816 326.682 105.04 318.501 103.624 316.05C102.209 313.598 98.4482 306.406 95.9641 294.311C93.48 282.216 95.1475 274.266 95.9641 257.22L89.5804 214.521Z" fill="#F1BE83"/>
<path d="M103 30.7186C101.085 42.143 93.5219 53.3961 86 55.7186C78.6415 54.1695 71.3242 42.7523 69 30.7186C69 16.9114 76.6112 5.71857 86 5.71857C95.3888 5.71857 103 16.9114 103 30.7186Z" fill="#F1BE83"/>
<path d="M69.5001 28.7186C69.5001 28.2186 67.0001 21.2186 69.0001 15.2186C70.6001 10.4186 73.3334 6.55189 74.5 5.21856C76 3.05189 80.5 -0.981444 86.5 0.218556C94 1.71856 97.5 3.71857 100.5 1.21857L97.5 5.21856C99.7344 5.21856 103.911 5.07815 105.442 4.56203L106 4.21857C105.935 4.34826 105.738 4.46218 105.442 4.56203L99.5 8.21857C101.152 8.4546 104.125 8.75748 106.145 8.63017C107.616 8.10043 108.636 7.7949 108 8.21857C107.65 8.4521 106.978 8.57769 106.145 8.63017C104.839 9.10072 103.176 9.74816 102 10.2186C104.333 14.8852 105.1 26.1186 99.5 29.7186C93.9 33.3186 78.0001 30.2186 69.5001 28.7186Z" fill="#F1BE83"/>
</svg>
