<svg width="158" height="382" viewBox="0 0 158 382" fill="none" xmlns="http://www.w3.org/2000/svg">
<rect x="73" y="46.7186" width="18" height="14" fill="#D9E97C"/>
<path d="M47.18 62L83.18 51L120.18 63L112 108.5C109.675 125.935 114.5 130.5 114.5 146C114.5 154.5 127.32 172.5 124.5 188H36.5C33.4997 173.5 46.1798 150.5 47.1798 146C49.6801 125.5 52.0002 118 52.0002 109.5L47.18 62Z" fill="#D9E97C"/>
<path d="M43.0316 63.0748C46.9441 59.3751 59.9837 59.5747 59.9837 59.5747L72.6951 63.0748L56.3577 85.5243L45.8871 109.775L41.0163 140.028L23.1439 175.756L16.7818 170.353L28.9245 115.091L35.2076 81.7733C35.2076 81.7733 39.1191 66.7744 43.0316 63.0748Z" fill="#D9E97C"/>
<path d="M8.91379 180.285L16.3298 170.431L24.8421 169.934L21.796 189.376L15.0193 199.58L14.4106 199.908L13.6204 199.275L13.5812 197.885L13.8782 195.309L15.7931 191.407L15.2046 189.142L14.1325 187.49L14.0881 187.319L13.4425 188.643L11.3295 191.564L9.37512 194.555C9.37512 194.555 7.82248 206.529 7.9754 207.259C8.12832 207.988 7.18179 210.456 4.7113 206.548L3.21942 197.471L4.35829 194.034L8.91379 180.285Z" fill="#D9E97C"/>
<path d="M120.838 61.0891C117.08 57.2319 104.044 56.8958 104.044 56.8958L91.1992 59.871L106.601 82.9724L116.067 107.633L119.691 138.06L136.081 174.492L142.66 169.355L132.797 113.641L127.887 80.0931C127.887 80.0931 124.595 64.9463 120.838 61.0891Z" fill="#D9E97C"/>
<path d="M150.113 179.602L143.108 169.452L134.623 168.605L136.868 188.155L143.22 198.629L143.815 198.982L144.63 198.382L144.727 196.995L144.536 194.41L142.783 190.431L143.464 188.192L144.603 186.586L144.654 186.417L145.245 187.767L147.236 190.772L149.066 193.841C149.066 193.841 150.125 205.868 149.943 206.591C149.76 207.314 150.604 209.818 153.233 206.015L155.097 197.007L154.1 193.526L150.113 179.602Z" fill="#D9E97C"/>
<path d="M75.5775 206.629L79 182H35.9143V200.668L42.0163 228.985V253.327C37.7388 268.424 37.1531 271.871 37.1347 275.186V293.567C39.1409 312.734 39.388 318.926 40.1857 331.82V365.602L31.6429 372.06L27.3714 375.289L16.6 378.834L14 382L62.1531 381.002V374.047L56.6612 360.634C56.6612 360.634 56.6612 344.533 57.8816 334.304C59.102 324.075 60.8 315.509 62.1531 312.942C63.5061 310.375 67.101 302.844 69.4755 290.179C71.85 277.515 70.2561 269.189 69.4755 251.34L75.5775 206.629Z" fill="#D9E97C"/>
<path d="M85.4225 206.629L82 182H125.086V200.668L118.984 228.985V253.327C123.261 268.424 123.847 271.871 123.865 275.186V293.567C121.859 312.734 121.612 318.926 120.814 331.82V365.602L129.357 372.06L133.629 375.289L144.4 378.834L147 382L98.8469 381.002V374.047L104.339 360.634C104.339 360.634 104.339 344.533 103.118 334.304C101.898 324.075 100.2 315.509 98.8469 312.942C97.4939 310.375 93.899 302.844 91.5245 290.179C89.15 277.515 90.7439 269.189 91.5245 251.34L85.4225 206.629Z" fill="#D9E97C"/>
<path d="M99 30.7186C97.0847 42.143 89.5219 53.3961 82 55.7186C74.6415 54.1695 67.3242 42.7523 65 30.7186C65 16.9114 72.6112 5.71857 82 5.71857C91.3888 5.71857 99 16.9114 99 30.7186Z" fill="#D9E97C"/>
<path d="M65.5001 28.7186C65.5001 28.2186 63.0001 21.2186 65.0001 15.2186C66.6001 10.4186 69.3334 6.55189 70.5 5.21856C72 3.05189 76.5 -0.981444 82.5 0.218556C90 1.71856 93.5 3.71857 96.5 1.21857L93.5 5.21856C95.7344 5.21856 99.9111 5.07815 101.442 4.56203L102 4.21857C101.935 4.34826 101.738 4.46218 101.442 4.56203L95.5 8.21857C97.1522 8.4546 100.125 8.75748 102.145 8.63017C103.616 8.10043 104.636 7.7949 104 8.21857C103.65 8.4521 102.978 8.57769 102.145 8.63017C100.839 9.10072 99.176 9.74816 98 10.2186C100.333 14.8852 101.1 26.1186 95.5 29.7186C89.9 33.3186 74.0001 30.2186 65.5001 28.7186Z" fill="#D9E97C"/>
</svg>
