<svg width="146" height="383" viewBox="0 0 146 383" fill="none" xmlns="http://www.w3.org/2000/svg">
<rect x="62" y="46.7186" width="18" height="14" fill="#C9F4B5"/>
<path d="M38.4099 64.1304L73.3739 53L110.086 64.1304L102 105.5V141.5L105 164.5L110.086 193H34L40.5 162.5L43 143.5V107L38.4099 64.1304Z" fill="#C9F4B5"/>
<path d="M37.766 62.6928C41.1997 59.1929 52.6438 59.3817 52.6438 59.3817L63.7998 62.6928L49.4615 83.9303L40.2721 106.872L35.9973 135.491L20.3117 169.29L14.7281 164.179L25.3851 111.901L30.8993 80.3818C30.8993 80.3818 34.3322 66.1927 37.766 62.6928Z" fill="#C9F4B5"/>
<path d="M7.82309 173.575L14.3316 164.253L21.8024 163.783L19.129 182.175L13.1815 191.828L12.6473 192.138L11.9538 191.54L11.9194 190.224L12.1801 187.788L13.8606 184.096L13.3441 181.953L12.4033 180.391L12.3643 180.229L11.7976 181.482L9.94322 184.245L8.22797 187.075C8.22797 187.075 6.86531 198.402 6.99952 199.092C7.13372 199.782 6.30302 202.117 4.13482 198.42L2.82549 189.833L3.82501 186.581L7.82309 173.575Z" fill="#C9F4B5"/>
<path d="M108.234 62.6928C104.8 59.1929 93.3562 59.3817 93.3562 59.3817L82.2002 62.6928L96.5385 83.9303L105.728 106.872L110.003 135.491L125.688 169.29L131.272 164.179L120.615 111.901L115.101 80.3818C115.101 80.3818 111.668 66.1927 108.234 62.6928Z" fill="#C9F4B5"/>
<path d="M138.177 173.575L131.668 164.253L124.198 163.783L126.871 182.175L132.818 191.828L133.353 192.138L134.046 191.54L134.081 190.224L133.82 187.788L132.139 184.096L132.656 181.953L133.597 180.391L133.636 180.229L134.202 181.482L136.057 184.245L137.772 187.075C137.772 187.075 139.135 198.402 139 199.092C138.866 199.782 139.697 202.117 141.865 198.42L143.175 189.833L142.175 186.581L138.177 173.575Z" fill="#C9F4B5"/>
<path d="M68 216.5L71.5 192.719H33.8571V210.406L38.551 237.237V260.301C35.2606 274.606 34.8101 277.871 34.7959 281.012V298.429C36.3392 316.589 36.5293 322.456 37.1429 334.673V366.681L30.5714 372.8L27.2857 375.86L19 379.219L17 382.219L54.0408 381.273V374.683L49.8163 361.974C49.8163 361.974 49.8163 346.719 50.7551 337.027C51.6939 327.335 53 319.219 54.0408 316.786C55.0816 314.354 57.8469 307.219 59.6735 295.219C61.5 283.219 60.2739 275.33 59.6735 258.419L68 216.5Z" fill="#C9F4B5"/>
<path d="M75.5 216.781L72 193H109.643V210.688L104.949 237.518V260.583C108.239 274.887 108.69 278.152 108.704 281.294V298.71C107.161 316.871 106.971 322.738 106.357 334.955V366.963L112.929 373.082L116.214 376.141L124.5 379.5L126.5 382.5L89.4592 381.555V374.965L93.6837 362.256C93.6837 362.256 93.6837 347 92.7449 337.308C91.8061 327.616 90.5 319.5 89.4592 317.068C88.4184 314.635 85.6531 307.5 83.8265 295.5C82 283.5 83.2261 275.612 83.8265 258.7L75.5 216.781Z" fill="#C9F4B5"/>
<path d="M88 30.7186C86.0847 42.143 78.5219 53.3961 71 55.7186C63.6415 54.1695 56.3242 42.7523 54 30.7186C54 16.9114 61.6112 5.71857 71 5.71857C80.3888 5.71857 88 16.9114 88 30.7186Z" fill="#C9F4B5"/>
<path d="M54.5001 28.7186C54.5001 28.2186 52.0001 21.2186 54.0001 15.2186C55.6001 10.4186 58.3334 6.55189 59.5 5.21856C61 3.05189 65.5 -0.981444 71.5 0.218556C79 1.71856 82.5 3.71857 85.5 1.21857L82.5 5.21856C84.7344 5.21856 88.9111 5.07815 90.4419 4.56203L91 4.21857C90.9352 4.34826 90.738 4.46218 90.4419 4.56203L84.5 8.21857C86.1522 8.4546 89.1247 8.75748 91.1454 8.63017C92.6163 8.10043 93.6355 7.7949 93 8.21857C92.6497 8.4521 91.9784 8.57769 91.1454 8.63017C89.8389 9.10072 88.176 9.74816 87 10.2186C89.3333 14.8852 90.1 26.1186 84.5 29.7186C78.9 33.3186 63.0001 30.2186 54.5001 28.7186Z" fill="#C9F4B5"/>
</svg>
