<svg width="1440" height="968" viewBox="0 0 1440 968" fill="none" xmlns="http://www.w3.org/2000/svg">
<g clip-path="url(#clip0_238_3723)">
<rect width="1440" height="968" fill="white"/>
<g filter="url(#filter0_f_238_3723)">
<path fill-rule="evenodd" clip-rule="evenodd" d="M144.7 301.793C99.7519 329.501 57.9659 355.26 0 328.072V560C39.7908 576.537 74.4851 601.92 109.482 627.525C200.215 693.908 292.983 761.78 481.875 680.838C700.632 587.099 765.41 605.804 923.486 651.452L923.488 651.452C954.555 660.423 989.224 670.435 1029.38 680.838C1180.85 720.085 1227.78 684.657 1287.73 639.413C1324.52 611.641 1366.22 580.169 1440 560V304.935C1278.62 354.726 1272.08 351.744 1132.56 288.139L1132.56 288.138L1132.56 288.137C1104.38 275.291 1070.77 259.971 1029.38 242.114C913.85 192.282 825.451 249.398 739.783 304.75C642.751 367.444 549.223 427.874 423.75 328.072C283.298 216.355 210.6 261.169 144.7 301.793Z" fill="#4DC247" fill-opacity="0.05"/>
<path d="M1440 968V560C1366.22 580.169 1324.52 611.641 1287.73 639.413C1227.78 684.657 1180.85 720.085 1029.38 680.838C989.224 670.435 954.555 660.423 923.488 651.452L923.486 651.452C765.41 605.804 700.632 587.099 481.875 680.838C292.983 761.78 200.215 693.908 109.482 627.525C74.4851 601.92 39.7908 576.537 0 560V968H1440Z" fill="#4DC247" fill-opacity="0.1"/>
</g>
<path d="M530.771 809.387L533.279 813.712L530.771 809.387ZM358.423 746.22L360.304 741.587L358.423 746.22ZM765.879 582.095C766.483 579.4 764.789 576.726 762.095 576.121L718.186 566.27C715.492 565.666 712.817 567.36 712.213 570.055C711.608 572.749 713.302 575.423 715.997 576.028L755.027 584.784L746.27 623.814C745.666 626.508 747.36 629.183 750.055 629.787C752.749 630.392 755.423 628.698 756.028 626.003L765.879 582.095ZM-0.428419 845.59C3.46401 846.279 7.51235 846.97 11.7069 847.659L13.3292 837.792C9.173 837.108 5.16467 836.424 1.31377 835.743L-0.428419 845.59ZM36.002 851.393C43.7765 852.509 51.9056 853.607 60.3456 854.67L61.5952 844.748C53.2118 843.692 45.1401 842.603 37.4239 841.494L36.002 851.393ZM84.8186 857.551C92.7634 858.422 100.92 859.256 109.258 860.041L110.196 850.085C101.909 849.305 93.8035 848.476 85.909 847.61L84.8186 857.551ZM133.802 862.164C141.845 862.799 150.019 863.382 158.301 863.908L158.934 853.928C150.704 853.406 142.581 852.826 134.588 852.195L133.802 862.164ZM182.875 865.272C191.001 865.658 199.205 865.983 207.464 866.239L207.774 856.244C199.571 855.99 191.423 855.667 183.35 855.283L182.875 865.272ZM232.055 866.788C240.233 866.899 248.445 866.936 256.67 866.894L256.619 856.894C248.457 856.936 240.308 856.899 232.19 856.789L232.055 866.788ZM281.288 866.521C289.506 866.312 297.718 866.017 305.905 865.628L305.43 855.639C297.32 856.024 289.182 856.317 281.034 856.524L281.288 866.521ZM330.504 864.163C338.74 863.569 346.93 862.872 355.052 862.064L354.063 852.114C346.035 852.912 337.936 853.601 329.785 854.188L330.504 864.163ZM379.582 859.249C387.827 858.171 395.978 856.966 404.013 855.624L402.366 845.761C394.455 847.081 386.421 848.27 378.286 849.334L379.582 859.249ZM428.282 851.073C436.494 849.353 444.552 847.472 452.426 845.419L449.903 835.743C442.197 837.752 434.297 839.597 426.232 841.286L428.282 851.073ZM476.197 838.502C484.262 835.891 492.084 833.065 499.626 830.013L495.875 820.744C488.571 823.699 480.974 826.444 473.116 828.989L476.197 838.502ZM522.311 819.687C526.061 817.768 529.719 815.777 533.279 813.712L528.263 805.062C524.86 807.035 521.356 808.942 517.755 810.785L522.311 819.687ZM533.279 813.712C536.884 811.622 540.227 809.567 543.317 807.548L537.846 799.177C534.92 801.089 531.73 803.051 528.263 805.062L533.279 813.712ZM561.657 793.262C569.035 786.059 573.43 778.851 574.26 771.604L564.325 770.467C563.866 774.472 561.258 779.676 554.671 786.107L561.657 793.262ZM562.196 748.345C556.577 744.134 549.299 740.563 541.024 737.523L537.575 746.909C545.346 749.765 551.642 752.932 556.199 756.347L562.196 748.345ZM519.001 731.055C511.931 729.387 504.437 727.934 496.693 726.684L495.099 736.556C502.647 737.775 509.904 739.183 516.705 740.787L519.001 731.055ZM474.232 723.674C466.78 722.863 459.238 722.214 451.74 721.719L451.082 731.697C458.447 732.183 465.847 732.821 473.15 733.616L474.232 723.674ZM429.186 720.684C421.419 720.483 413.847 720.451 406.632 720.578L406.808 730.577C413.872 730.452 421.299 730.484 428.928 730.681L429.186 720.684ZM383.955 721.598C375.223 722.268 367.458 723.243 361.158 724.524L363.15 734.324C368.908 733.153 376.231 732.22 384.719 731.569L383.955 721.598ZM345.115 744.352C347.637 746.714 351.57 748.833 356.542 750.852L360.304 741.587C355.626 739.687 353.092 738.122 351.949 737.052L345.115 744.352ZM356.542 750.852C360.494 752.457 364.823 753.576 369.456 754.28L370.958 744.393C366.957 743.786 363.406 742.846 360.304 741.587L356.542 750.852ZM395.19 754.611C402.953 753.886 411.273 752.529 420.04 750.63L417.924 740.857C409.46 742.689 401.544 743.974 394.26 744.655L395.19 754.611ZM444.196 744.41C451.839 742.165 459.736 739.613 467.836 736.792L464.548 727.348C456.582 730.122 448.843 732.623 441.378 734.815L444.196 744.41ZM491.105 728.19C498.613 725.265 506.249 722.155 513.978 718.889L510.085 709.677C502.435 712.911 494.887 715.984 487.475 718.872L491.105 728.19ZM536.623 708.999C544.046 705.658 551.523 702.2 559.024 698.648L554.744 689.61C547.298 693.136 539.879 696.567 532.519 699.88L536.623 708.999ZM581.232 687.899C588.587 684.265 595.937 680.563 603.255 676.812L598.694 667.913C591.417 671.642 584.111 675.323 576.802 678.934L581.232 687.899ZM625.117 665.422C632.426 661.553 639.674 657.657 646.833 653.755L642.047 644.975C634.922 648.858 627.71 652.735 620.439 656.584L625.117 665.422ZM668.396 641.84C675.682 637.76 682.838 633.698 689.831 629.679L684.848 621.008C677.886 625.01 670.762 629.054 663.51 633.115L668.396 641.84ZM711.14 617.275C718.436 612.973 725.492 608.756 732.265 604.656L727.087 596.102C720.347 600.181 713.324 604.379 706.062 608.66L711.14 617.275ZM753.243 591.777C756.838 589.537 760.319 587.351 763.676 585.224L758.324 576.776C754.989 578.889 751.529 581.063 747.955 583.29L753.243 591.777Z" fill="#E0E0E0" fill-opacity="0.25"/>
<path d="M1158.48 367.902H1271.06L1291.53 497.34L1150.8 503.978L1158.48 367.902Z" fill="#FFE6C1"/>
<path d="M1272.39 381.467C1253.81 410.132 1222.94 429.456 1187.33 430.853C1176.18 431.291 1165.35 429.939 1155.11 427.043L1157.16 366.47L1267.64 362.133L1272.39 381.467Z" fill="#FFCF86"/>
<ellipse cx="1188.5" cy="297.345" rx="108.056" ry="125.996" fill="#FFE6C1"/>
<path d="M1275.62 284.745C1253.5 258.538 1177.61 255.346 1142.43 257.026L1160.02 224.268L1242.95 236.867L1275.62 284.745Z" fill="#FFCF86"/>
<path d="M1165.85 246.947C1140.72 262.906 1087.95 292.809 1077.9 284.746C1065.33 274.666 1087.37 170.424 1170.07 163.789C1295.72 153.71 1314.15 241.907 1296.56 327.584C1278.97 272.146 1238.76 246.947 1165.85 246.947Z" fill="black" stroke="black"/>
<ellipse cx="17.5967" cy="22.6714" rx="17.5967" ry="22.6714" transform="matrix(0.935328 0.353782 -0.35207 0.935974 1282.36 272.146)" fill="#FFE6C1"/>
<path d="M1476.91 486.928C1468.37 470.194 1346.75 446.946 1284.42 437.006C1283.53 436.865 1282.71 437.318 1282.32 438.121C1271.73 459.882 1241.53 499.233 1199.8 492.545C1159.09 486.022 1158.09 476.343 1153.92 471.818C1153.55 471.416 1153.04 471.241 1152.5 471.294C1107.2 475.693 996.517 530.759 989.309 716.764C989.27 717.749 989.958 718.645 990.925 718.832L1090.65 738.032C1091.75 738.243 1092.47 739.263 1092.24 740.357C1071.65 839.228 1035.68 1039.96 1052.65 1070.77C1052.82 1071.08 1053.05 1071.28 1053.36 1071.45C1162.24 1131.47 1396.3 1105.37 1465.65 1071.66C1466.27 1071.36 1466.64 1070.78 1466.71 1070.09C1480.44 926.393 1453.05 776.771 1437.65 702.887C1437.44 701.892 1438.02 700.94 1438.99 700.621L1553.82 662.568C1554.75 662.259 1555.32 661.292 1555.16 660.323C1535.21 538.729 1496.35 495.407 1478.32 488.319C1477.68 488.064 1477.23 487.549 1476.91 486.928Z" fill="#FF7C43"/>
<path fill-rule="evenodd" clip-rule="evenodd" d="M1434.77 700.531L1444.11 749.736C1444.53 751.955 1443.5 754.197 1441.54 755.309L1273.31 850.659C1272.1 851.342 1270.67 851.521 1269.34 851.155L1218.69 837.304C1217.09 836.865 1215.37 837.214 1214.06 838.244L1185.19 860.994C1182.87 862.821 1182.5 866.204 1184.38 868.487L1214.71 905.425C1215.62 906.536 1216.95 907.224 1218.38 907.33L1282.77 912.113C1283.57 912.173 1284.38 912.048 1285.12 911.748L1573.99 795.382C1576.32 794.444 1577.67 791.985 1577.2 789.512L1558.89 692.726L1434.77 700.531Z" fill="#FFE6C1"/>
<path d="M1434.77 700.531L1558.89 692.726L1550.66 649.208C1550.47 648.169 1549.96 647.213 1549.22 646.464L1539.58 636.804C1538.45 635.672 1536.87 635.116 1535.29 635.293L1430.36 646.984C1427.31 647.323 1425.2 650.19 1425.78 653.206L1434.77 700.531Z" fill="#FFCF86"/>
<path fill-rule="evenodd" clip-rule="evenodd" d="M1282.96 436.774C1346.09 446.779 1473.33 471.02 1477.29 487.945C1494.9 493.771 1535.19 536.746 1555.44 662.032L1437.29 701.182L1264.97 719.799L1092.64 738.416L989.244 718.508C995.865 529.965 1108.41 475.039 1153.32 471.219C1158.08 475.432 1157.19 485.718 1199.8 492.545C1242.4 499.373 1272.99 458.209 1282.96 436.774Z" fill="#FF7C43"/>
<path fill-rule="evenodd" clip-rule="evenodd" d="M1079.38 812.508C1079.81 812.056 1080.16 811.684 1080.44 811.407C1080.44 802.55 1089.49 759.324 1095.67 731.3L989.525 717.376L987.462 725.73C975.668 713.116 958.341 692.473 942.232 673.282C924.015 651.579 907.356 631.733 902.022 627.453C894.108 621.105 892.175 613.757 889.318 602.891C887.638 596.504 885.639 588.903 881.918 579.575C871.866 554.376 849.25 526.657 856.789 554.376C858.725 561.494 849.875 564.319 838.451 567.965C823.7 572.674 804.656 578.753 798.991 597.214C791.899 620.329 811.001 630.767 832.849 642.705C835.773 644.303 838.745 645.927 841.711 647.613C845.026 653.573 848.98 661.097 853.497 669.693C882.083 724.087 933.211 821.374 987.462 836.606C1042.01 851.923 1072.01 820.286 1079.38 812.508Z" fill="#FFE6C1"/>
<path d="M1098.03 720.69L989.525 717.376L1095.67 731.3C1096.52 727.43 1097.32 723.85 1098.03 720.69Z" fill="#FFCF86"/>
<path d="M869.354 561.936C855.114 533.377 823.618 487.85 811.556 534.217C812.426 536.75 814.173 539.793 816.582 540.657C818.964 541.51 821.994 540.232 825.46 534.217C825.851 525.817 828.644 512.041 836.685 524.137C844.727 536.233 861.815 554.376 869.354 561.936Z" fill="#FFE6C1"/>
<path d="M836.685 524.137C828.644 512.041 825.851 525.817 825.46 534.217C821.994 540.232 818.964 541.51 816.582 540.657C810.804 545.342 806.188 549.932 802.548 554.376C797.457 560.59 794.273 566.517 792.489 572.015C787.556 587.211 793.377 610.497 799.062 616.141L869.354 561.936C861.815 554.376 844.727 536.233 836.685 524.137Z" fill="#FFE6C1"/>
<path d="M824.74 539.564C826.541 538.209 831.62 535.111 833.935 533.731L835.248 538.059C830.557 540.944 826.459 542.191 821.392 542.567C818.306 542.797 816.546 540.713 816.671 540.724C818.871 540.881 823.041 540.842 824.74 539.564Z" fill="#FFCF86"/>
<path fill-rule="evenodd" clip-rule="evenodd" d="M824.696 414.579V414.579C822.82 431.373 827.935 456.749 826.942 473.618C826.001 489.58 825.42 509.343 825.084 527.967C824.779 544.899 850.745 549.571 841.999 535.07V535.07C837.223 527.151 837.665 498.743 839.345 473.41C840.439 456.919 852.092 434.972 854.634 418.641V418.641C855.202 414.988 855.738 411.548 856.418 408.841L858.852 397.683C859.112 396.493 858.474 395.289 857.343 394.836V394.836C855.855 394.239 854.197 395.181 853.95 396.766L851.928 409.687C851.833 410.294 851.31 410.741 850.696 410.741V410.741C849.934 410.741 849.351 410.064 849.463 409.311L851.626 394.765C851.809 393.536 851.124 392.341 849.97 391.878V391.878C848.336 391.223 846.524 392.291 846.306 394.038L844.36 409.648C844.283 410.273 843.752 410.741 843.123 410.741V410.741C842.373 410.741 841.793 410.084 841.886 409.34L843.99 392.462C844.13 391.335 843.545 390.241 842.53 389.732V389.732C840.892 388.911 838.93 389.937 838.671 391.751L836.408 407.604C836.306 408.314 835.698 408.841 834.981 408.841V408.841C834.114 408.841 833.443 408.081 833.551 407.22L835.897 388.55C836.097 386.957 835.269 385.412 833.831 384.697V384.697C831.969 383.771 829.817 384.573 829.281 386.583C828.069 391.129 826.334 399.913 824.696 414.579Z" fill="#D9D9D9"/>
<path fill-rule="evenodd" clip-rule="evenodd" d="M825.46 534.217C825.851 525.817 828.644 512.041 836.686 524.137C844.727 536.233 861.815 554.376 869.354 561.936L844.727 579.575L834.173 554.376L825.46 534.217Z" fill="#FFE6C1"/>
<path d="M1261.48 796.287C1314.22 796.287 1372.05 793.166 1372.05 786.208C1372.05 779.249 1314.22 771.088 1261.48 771.088C1208.74 771.088 1155.94 776.729 1155.94 783.688C1155.94 790.646 1208.74 796.287 1261.48 796.287Z" fill="#5D5D5D"/>
<path d="M1372.05 786.208C1372.05 793.166 1314.22 796.287 1261.48 796.287C1208.74 796.287 1155.94 790.646 1155.94 783.688C1154.26 808.047 1172.02 858.781 1216.25 866.845C1260.47 874.909 1282.42 870.205 1299.17 866.845C1329.33 860.797 1372.05 824.007 1372.05 786.208Z" fill="#A7A6A6"/>
<path d="M1187.58 806.096C1188.72 805.619 1189.78 804.97 1190.72 804.171L1198.55 797.535C1202.28 794.376 1208.03 796.504 1208.8 801.328V801.328C1209.25 804.157 1211.55 806.319 1214.41 806.582L1228.46 807.876L1246.09 807.429C1253.43 807.243 1260.17 811.424 1263.27 818.076V818.076C1268.13 828.524 1281.26 831.97 1290.78 825.466C1296.8 821.352 1301.84 818.048 1302.65 817.919C1303.32 817.811 1304.94 814.478 1306.83 809.943C1311.51 798.712 1305.31 786.07 1293.83 782.058L1257.41 769.326C1250.2 766.808 1242.22 768.232 1236.23 772.976C1233.33 775.279 1231.22 776.896 1231.79 776.283V776.283C1238.99 768.56 1220.95 759.343 1210.54 761.01L1203.94 762.066C1201.57 762.445 1199.28 763.209 1197.15 764.328L1182.95 771.814C1176.95 774.973 1172.92 780.906 1172.19 787.641L1171.58 793.283C1171.39 795.063 1170.5 796.692 1169.1 797.81V797.81C1165.68 800.548 1165.75 805.776 1169.24 808.415L1170.26 809.189C1172.45 810.842 1175.35 811.207 1177.88 810.149L1187.58 806.096Z" fill="#62AB60"/>
<path d="M1185.77 796.944C1189.47 795.392 1193.71 797.351 1194.92 801.179L1195.12 801.795C1196.88 807.335 1204.43 808.023 1207.17 802.893V802.893C1209.29 798.913 1214.7 798.204 1217.77 801.503L1228.18 812.68C1235.08 820.09 1247.11 819.024 1252.61 810.517V810.517C1257.26 803.33 1266.84 801.246 1274.04 805.855L1288.3 814.972C1295.86 819.808 1305.83 817.257 1300.7 809.896C1299.05 807.539 1297.49 805.881 1298.07 805.787C1298.57 805.708 1299.94 806.03 1301.68 806.201C1309.94 807.011 1308.94 796.551 1303.18 790.571L1295.88 782.984C1287.95 774.75 1273.27 770.314 1261.84 769.921C1247.7 769.436 1231.52 767.651 1232.17 766.952C1232.71 766.371 1228.68 760.217 1224.32 753.542C1221.45 749.152 1210.88 750.547 1209.53 755.615V755.615C1208.02 761.26 1202.44 764.813 1196.7 763.791L1189.92 762.586C1182.82 761.324 1176.28 766.703 1176.13 773.911L1176.03 779.224C1175.96 782.64 1173.18 785.38 1169.76 785.395V785.395C1162.29 785.426 1161.09 796.138 1168.37 797.815L1175.99 799.572C1177.46 799.91 1179 799.778 1180.39 799.196L1185.77 796.944Z" fill="#72BE70"/>
<path d="M1332.07 768.183C1331.04 768.869 1330.12 769.71 1329.35 770.675L1322.92 778.697C1319.87 782.511 1313.82 781.523 1312.15 776.936V776.936C1311.17 774.245 1308.49 772.565 1305.64 772.855L1291.6 774.282L1274.37 778.106C1267.21 779.696 1259.79 776.886 1255.48 770.95V770.95C1248.72 761.628 1235.18 760.763 1227.08 768.972C1221.95 774.168 1217.63 778.383 1216.87 778.663C1216.22 778.9 1215.28 782.475 1214.29 787.283C1211.83 799.209 1220.33 810.437 1232.37 812.171L1270.55 817.676C1278.1 818.764 1285.66 815.837 1290.62 810.035C1293.04 807.214 1294.8 805.219 1294.36 805.931V805.931C1288.77 814.889 1308.22 820.479 1318.13 816.845L1324.41 814.537C1326.67 813.711 1328.77 812.522 1330.64 811.018L1343.16 800.938C1348.43 796.69 1351.26 790.094 1350.69 783.344L1350.21 777.689C1350.06 775.905 1350.62 774.134 1351.78 772.769V772.769C1354.62 769.425 1353.55 764.306 1349.62 762.385L1348.47 761.823C1346 760.621 1343.09 760.819 1340.81 762.342L1332.07 768.183Z" fill="#62AB60"/>
<path d="M1335.59 776.819C1332.25 779.053 1327.72 777.941 1325.79 774.416L1325.49 773.853C1322.7 768.751 1315.15 769.524 1313.44 775.087V775.087C1312.12 779.402 1306.95 781.135 1303.3 778.486L1290.96 769.513C1282.77 763.563 1271.17 766.917 1267.39 776.324V776.324C1264.2 784.273 1255.2 788.156 1247.25 785.015L1231.51 778.799C1223.17 775.504 1213.87 779.921 1220.31 786.16C1222.37 788.16 1224.23 789.489 1223.67 789.693C1223.2 789.865 1221.79 789.813 1220.06 789.979C1211.79 790.768 1214.77 800.847 1221.57 805.613L1230.19 811.658C1239.54 818.216 1254.78 819.752 1266.06 817.944C1280.04 815.706 1296.27 814.35 1295.77 815.161C1295.35 815.835 1300.48 821.102 1306.03 826.817C1309.69 830.576 1319.8 827.179 1320.16 821.943V821.943C1320.56 816.113 1325.35 811.555 1331.19 811.455L1338.08 811.337C1345.28 811.214 1350.68 804.678 1349.44 797.576L1348.53 792.34C1347.94 788.974 1350.15 785.752 1353.5 785.082V785.082C1360.82 783.618 1359.96 772.872 1352.49 772.623L1344.68 772.362C1343.18 772.312 1341.69 772.735 1340.44 773.573L1335.59 776.819Z" fill="#72BE70"/>
<path d="M1372.05 786.208C1372.05 793.166 1314.22 796.287 1261.48 796.287C1208.74 796.287 1155.94 790.646 1155.94 783.688C1154.26 808.047 1172.02 858.781 1216.25 866.845C1260.47 874.909 1282.42 870.205 1299.17 866.845C1329.33 860.797 1372.05 824.007 1372.05 786.208Z" fill="#A7A6A6"/>
<path d="M791.996 386.45C793.197 386.159 794.346 385.686 795.403 385.046L804.181 379.731C808.36 377.201 813.699 380.21 813.699 385.095V385.095C813.699 387.959 815.64 390.46 818.415 391.169L832.088 394.667L849.573 397.012C856.846 397.988 862.849 403.182 864.86 410.24V410.24C868.019 421.325 880.448 426.803 890.872 421.884C897.463 418.773 902.956 416.307 903.77 416.307C904.457 416.307 906.574 413.269 909.155 409.088C915.544 398.739 911.41 385.277 900.706 379.502L866.732 361.173C860.012 357.548 851.905 357.694 845.248 361.433C842.018 363.248 839.684 364.511 840.345 363.996V363.996C848.665 357.506 832.303 345.555 821.751 345.555H815.071C812.671 345.555 810.288 345.948 808.015 346.717L792.813 351.865C786.397 354.037 781.483 359.26 779.706 365.796L778.217 371.271C777.747 372.997 776.608 374.465 775.051 375.349V375.349C771.241 377.511 770.488 382.684 773.524 385.843L774.413 386.768C776.314 388.746 779.123 389.566 781.789 388.921L791.996 386.45Z" fill="#62AB60"/>
<path d="M791.645 377.126C795.549 376.179 799.424 378.783 800.023 382.755L800.119 383.396C800.985 389.143 808.34 391.017 811.849 386.383V386.383C814.572 382.789 820.023 382.943 822.537 386.686L831.057 399.368C836.704 407.774 848.752 408.623 855.522 401.092V401.092C861.242 394.729 871.029 394.184 877.42 399.874L890.061 411.128C896.768 417.099 907.02 416.156 903.105 408.074C901.852 405.488 900.569 403.604 901.162 403.604C901.66 403.604 902.968 404.139 904.659 404.582C912.693 406.688 913.348 396.202 908.6 389.387L902.576 380.74C896.038 371.355 882.241 364.655 871.015 362.461C857.13 359.747 841.432 355.429 842.183 354.841C842.808 354.353 839.791 347.638 836.537 340.359C834.397 335.571 823.736 335.278 821.605 340.069V340.069C819.231 345.404 813.165 348.032 807.649 346.114L801.147 343.854C794.339 341.487 787.027 345.764 785.753 352.859L784.814 358.089C784.211 361.452 781.032 363.718 777.656 363.193V363.193C770.274 362.044 767.403 372.431 774.326 375.237L781.581 378.177C782.977 378.743 784.516 378.856 785.981 378.501L791.645 377.126Z" fill="#72BE70"/>
</g>
<defs>
<filter id="filter0_f_238_3723" x="-10" y="213" width="1460" height="765" filterUnits="userSpaceOnUse" color-interpolation-filters="sRGB">
<feFlood flood-opacity="0" result="BackgroundImageFix"/>
<feBlend mode="normal" in="SourceGraphic" in2="BackgroundImageFix" result="shape"/>
<feGaussianBlur stdDeviation="5" result="effect1_foregroundBlur_238_3723"/>
</filter>
<clipPath id="clip0_238_3723">
<rect width="1440" height="968" fill="white"/>
</clipPath>
</defs>
</svg>
