<svg width="126" height="126" viewBox="0 0 126 126" fill="none" xmlns="http://www.w3.org/2000/svg">
<path d="M62.9737 26.25C53.5992 26.25 45.9675 33.9514 45.9675 43.3659C45.9675 49.3216 49.0257 54.5802 53.6439 57.6454C48.0661 59.5104 43.2398 62.9961 39.6999 67.5562C37.7428 66.0508 35.5559 64.8401 33.1985 63.9726C36.7734 61.3186 39.1095 57.0553 39.1095 52.2637C39.1095 44.2791 32.6518 37.7427 24.7156 37.7427C16.7794 37.7427 10.3217 44.2791 10.3217 52.2637C10.3217 57.058 12.6598 61.3233 16.2377 63.9773C6.76517 67.4728 0 76.6244 0 87.3948V94.9605C0.000969536 95.5373 0.231674 96.0898 0.640733 96.496C1.04979 96.9031 1.60329 97.1299 2.18005 97.128H35.3731C35.4535 97.1367 35.534 97.1416 35.6145 97.1406H90.3348C90.4153 97.1416 90.4967 97.1367 90.5762 97.128H123.772C124.965 97.1231 125.931 96.1548 125.934 94.9605V87.3948C125.934 76.6244 119.181 67.4728 109.713 63.9763C113.291 61.3233 115.629 57.057 115.629 52.2627C115.629 44.2781 109.172 37.7417 101.235 37.7417C93.2994 37.7417 86.8414 44.2781 86.8414 52.2627C86.8414 57.0543 89.1785 61.3183 92.7534 63.9716C90.3911 64.8411 88.2033 66.0557 86.2434 67.5648C82.7052 63.002 77.8856 59.5115 72.3081 57.6454C76.9249 54.5802 79.9844 49.3216 79.9844 43.3659C79.9844 33.9514 72.3487 26.25 62.9743 26.25H62.9737ZM62.9737 30.5927C69.985 30.5927 75.6372 36.2828 75.6372 43.3659C75.6372 50.3936 70.0731 56.0284 63.1395 56.1188C63.0842 56.1188 63.0299 56.111 62.9737 56.111C62.9175 56.111 62.8642 56.1188 62.8079 56.1188C55.8743 56.0296 50.3139 50.3939 50.3139 43.3659C50.3139 36.2819 55.9614 30.5927 62.9727 30.5927H62.9737ZM24.7159 42.0852C30.279 42.0852 34.7671 46.6003 34.7671 52.2634C34.7671 57.8886 30.337 62.3844 24.8263 62.4454C24.7894 62.4454 24.7536 62.4416 24.7158 62.4416C24.6789 62.4416 24.6431 62.4454 24.6053 62.4454C19.0945 62.3844 14.6645 57.8876 14.6645 52.2634C14.6645 46.6006 19.1526 42.0852 24.7157 42.0852H24.7159ZM101.234 42.0852C106.797 42.0852 111.285 46.6003 111.285 52.2634C111.285 57.8886 106.855 62.3844 101.344 62.4454C101.308 62.4454 101.272 62.4416 101.234 62.4416C101.197 62.4416 101.161 62.4454 101.123 62.4454C95.6127 62.3844 91.1827 57.8876 91.1827 52.2634C91.1827 46.6006 95.6708 42.0852 101.234 42.0852H101.234ZM62.8074 60.4612C62.8627 60.4622 62.917 60.469 62.9732 60.469C63.0285 60.469 63.0827 60.4612 63.139 60.4612C77.0442 60.5504 88.1727 71.7745 88.1727 85.825L88.1717 92.7966H37.7767V85.825C37.7767 71.7733 48.9019 60.5505 62.8055 60.4612H62.8074ZM24.5496 66.7931C24.6048 66.7941 24.6591 66.8008 24.7153 66.8008C24.7716 66.8008 24.8249 66.7931 24.8811 66.7931C29.5844 66.8309 33.8767 68.4526 37.2945 71.1658C34.8488 75.4931 33.4345 80.4879 33.4345 85.8262V92.7812H4.34094V87.3946C4.34094 75.9755 13.3191 66.8822 24.5491 66.7921L24.5496 66.7931ZM101.068 66.7931C101.124 66.7941 101.177 66.8008 101.234 66.8008C101.29 66.8008 101.343 66.7931 101.399 66.7931C112.629 66.8823 121.607 75.9768 121.607 87.3956V92.7812H92.499L92.498 85.8262C92.498 80.4909 91.0876 75.4998 88.6467 71.1735C92.0655 68.4565 96.3608 66.8308 101.068 66.7931H101.068Z" fill="#103E13"/>
</svg>
