<svg width="84" height="84" viewBox="0 0 84 84" fill="none" xmlns="http://www.w3.org/2000/svg">
<path fill-rule="evenodd" clip-rule="evenodd" d="M80.6067 13.8913C80.8511 14.1351 81.0451 14.4248 81.1774 14.7437C81.3098 15.0626 81.3779 15.4045 81.3779 15.7498C81.3779 16.0951 81.3098 16.437 81.1774 16.7559C81.0451 17.0748 80.8511 17.3645 80.6067 17.6083L43.8567 54.3583C43.6129 54.6028 43.3232 54.7967 43.0043 54.929C42.6854 55.0614 42.3435 55.1295 41.9982 55.1295C41.6529 55.1295 41.311 55.0614 40.9921 54.929C40.6732 54.7967 40.3835 54.6028 40.1397 54.3583L24.3897 38.6083C24.1456 38.3642 23.952 38.0745 23.8199 37.7556C23.6879 37.4367 23.6199 37.095 23.6199 36.7498C23.6199 36.4047 23.6879 36.0629 23.8199 35.744C23.952 35.4251 24.1456 35.1354 24.3897 34.8913C24.6338 34.6472 24.9235 34.4536 25.2424 34.3216C25.5613 34.1895 25.903 34.1215 26.2482 34.1215C26.5933 34.1215 26.9351 34.1895 27.254 34.3216C27.5729 34.4536 27.8626 34.6472 28.1067 34.8913L41.9982 48.7881L76.8897 13.8913C77.1335 13.6469 77.4232 13.4529 77.7421 13.3206C78.061 13.1882 78.4029 13.1201 78.7482 13.1201C79.0935 13.1201 79.4353 13.1882 79.7543 13.3206C80.0732 13.4529 80.3628 13.6469 80.6067 13.8913V13.8913Z" fill="#273204"/>
<path fill-rule="evenodd" clip-rule="evenodd" d="M42.0001 13.1255C36.2891 13.1255 30.7064 14.819 25.958 17.9918C21.2095 21.1647 17.5085 25.6743 15.323 30.9505C13.1375 36.2268 12.5657 42.0326 13.6799 47.6338C14.794 53.235 17.5441 58.38 21.5823 62.4182C25.6206 66.4565 30.7656 69.2065 36.3668 70.3207C41.968 71.4348 47.7738 70.863 53.05 68.6775C58.3263 66.4921 62.8359 62.7911 66.0087 58.0426C69.1816 53.2941 70.8751 47.7115 70.8751 42.0005C70.8751 41.3043 71.1516 40.6367 71.6439 40.1444C72.1362 39.6521 72.8039 39.3755 73.5001 39.3755C74.1962 39.3755 74.8639 39.6521 75.3562 40.1444C75.8485 40.6367 76.1251 41.3043 76.1251 42.0005C76.1241 49.5124 73.6445 56.8141 69.0709 62.7732C64.4973 68.7322 58.0852 73.0157 50.8291 74.9592C43.573 76.9027 35.8783 76.3977 28.9384 73.5225C21.9986 70.6473 16.2014 65.5625 12.4458 59.0567C8.69031 52.551 7.18635 44.9879 8.16721 37.5403C9.14806 30.0927 12.5589 23.1769 17.8708 17.8653C23.1827 12.5538 30.0987 9.14339 37.5464 8.16301C44.994 7.18264 52.5571 8.68708 59.0626 12.443C59.3763 12.6071 59.6535 12.833 59.8777 13.107C60.1018 13.3811 60.2682 13.6976 60.3669 14.0376C60.4655 14.3776 60.4943 14.7341 60.4516 15.0855C60.409 15.437 60.2956 15.7762 60.1184 16.0827C59.9413 16.3892 59.7039 16.6567 59.4207 16.8691C59.1375 17.0815 58.8142 17.2344 58.4703 17.3186C58.1265 17.4029 57.7691 17.4167 57.4198 17.3592C57.0704 17.3017 56.7363 17.1742 56.4376 16.9843C52.0497 14.4469 47.0687 13.1156 42.0001 13.1255V13.1255Z" fill="#273204"/>
</svg>
