<svg width="71" height="71" viewBox="0 0 71 71" fill="none" xmlns="http://www.w3.org/2000/svg">
<path d="M68.7889 8.60854C69.2035 9.02444 69.4363 9.58773 69.4363 10.175C69.4363 10.7622 69.2035 11.3255 68.7889 11.7414L64.1605 16.3742L55.2855 7.49917L59.9139 2.86642C60.3299 2.45047 60.8942 2.2168 61.4825 2.2168C62.0708 2.2168 62.6351 2.45047 63.0512 2.86642L68.7889 8.6041V8.60854ZM61.0232 19.507L52.1482 10.632L21.9156 40.8692C21.6713 41.1133 21.4875 41.4112 21.3786 41.7389L17.8064 52.451C17.7416 52.6463 17.7324 52.8558 17.7799 53.056C17.8273 53.2562 17.9294 53.4393 18.0749 53.5848C18.2204 53.7303 18.4035 53.8324 18.6037 53.8799C18.8039 53.9273 19.0134 53.9181 19.2087 53.8533L29.9208 50.2811C30.2481 50.1735 30.5459 49.9912 30.7906 49.7486L61.0232 19.5115V19.507Z" fill="#273204"/>
<path fill-rule="evenodd" clip-rule="evenodd" d="M4.4375 59.9062C4.4375 61.6716 5.13878 63.3646 6.38707 64.6129C7.63536 65.8612 9.3284 66.5625 11.0938 66.5625H59.9062C61.6716 66.5625 63.3646 65.8612 64.6129 64.6129C65.8612 63.3646 66.5625 61.6716 66.5625 59.9062V33.2812C66.5625 32.6928 66.3287 32.1285 65.9126 31.7124C65.4965 31.2963 64.9322 31.0625 64.3438 31.0625C63.7553 31.0625 63.191 31.2963 62.7749 31.7124C62.3588 32.1285 62.125 32.6928 62.125 33.2812V59.9062C62.125 60.4947 61.8912 61.059 61.4751 61.4751C61.059 61.8912 60.4947 62.125 59.9062 62.125H11.0938C10.5053 62.125 9.94095 61.8912 9.52486 61.4751C9.10876 61.059 8.875 60.4947 8.875 59.9062V11.0938C8.875 10.5053 9.10876 9.94095 9.52486 9.52486C9.94095 9.10876 10.5053 8.875 11.0938 8.875H39.9375C40.5259 8.875 41.0903 8.64124 41.5064 8.22514C41.9225 7.80905 42.1562 7.2447 42.1562 6.65625C42.1562 6.0678 41.9225 5.50345 41.5064 5.08736C41.0903 4.67126 40.5259 4.4375 39.9375 4.4375H11.0938C9.3284 4.4375 7.63536 5.13878 6.38707 6.38707C5.13878 7.63536 4.4375 9.3284 4.4375 11.0938V59.9062Z" fill="#273204"/>
</svg>
