<svg width="177" height="177" viewBox="0 0 177 177" fill="none" xmlns="http://www.w3.org/2000/svg">
<path d="M68.6693 168.5V163.178L77.9139 157L85.7945 159.374C60.001 155.566 43.6722 149.401 33.0493 137.756C22.7532 126.469 17.4239 109.61 14.754 83.3183H157.796C157.176 103.038 154.501 117.097 146.603 128.358C138.367 140.102 124.153 149.217 99.3295 158.144L100.176 162.996H103.845V168.5H68.6693Z" fill="#4DC247"/>
<path d="M26.7102 78.2836C26.5935 78.0802 26.4608 77.834 26.3138 77.5432C25.7919 76.5103 25.1688 75.0734 24.5227 73.3607C23.2301 69.9346 21.9073 65.5713 21.1375 61.4235C20.3452 57.1543 20.2297 53.5679 20.9457 51.4261C21.278 50.4319 21.699 50.0151 22.0659 49.8268C22.4495 49.63 23.2479 49.44 24.8178 49.8698C30.2054 51.3448 48.2232 55.9865 69.2945 61.4149C78.5868 63.8087 88.4729 66.3556 98.1315 68.8513C113.443 72.8076 128.192 76.6378 139.128 79.534C126.221 79.3947 108.25 79.1961 90.3956 78.9973C74.0656 78.8155 57.8433 78.6336 45.7034 78.4973L26.7102 78.2836Z" fill="#4DC247"/>
<path d="M155.965 68.1363L155.999 68.1363C155.995 68.1362 155.984 68.136 155.965 68.1363Z" fill="#4DC247"/>
<path d="M102.021 54.1394C115.958 51.8998 130.22 49.8485 134.793 49.2344C134.946 49.7965 135.104 50.5544 135.253 51.5021C135.667 54.1443 135.937 57.7785 136 61.4941C136.063 65.214 135.917 68.8938 135.536 71.6382C135.354 72.9431 135.135 73.9231 134.909 74.5648C134.338 74.4875 133.565 74.351 132.598 74.1544C130.636 73.7556 128.006 73.1368 124.919 72.3571C118.751 70.7994 110.857 68.6253 103.026 66.3558C95.1944 64.0864 87.452 61.7292 81.5877 59.8074C80.1493 59.336 78.8306 58.893 77.6557 58.4857C78.4466 58.3152 79.3027 58.1378 80.2179 57.9544C86.0139 56.7929 93.9345 55.4389 102.021 54.1394Z" fill="#4DC247"/>
<path d="M87.8282 36.7618C87.7699 36.7257 87.783 36.7272 87.8374 36.7675L87.8282 36.7618Z" fill="#4DC247"/>
<path d="M87.7237 40.4199C87.7271 40.418 87.731 40.4157 87.7355 40.4131C87.7155 40.423 87.7074 40.4283 87.7074 40.4283C87.7074 40.4283 87.7135 40.4257 87.7237 40.4199Z" fill="#4DC247"/>
</svg>
