<svg width="144" height="147" viewBox="0 0 144 147" fill="none" xmlns="http://www.w3.org/2000/svg">
<path d="M77.9629 0H70.7036V10.3704H60.3333V17.6297H70.7036V28H77.9629V17.6297H88.3332V10.3704L77.9629 10.3704V0Z" fill="#4DC247"/>
<path d="M87.7407 61.3183H0.0872803C2.75714 87.6099 8.08649 104.469 18.3825 115.756C27.6911 125.96 41.3808 131.957 61.9809 135.846L54.0025 141.178V146.5H89.1781V140.996H85.5088L84.6628 136.144C109.487 127.217 123.701 118.102 131.937 106.358C139.834 95.0974 142.509 81.0384 143.129 61.3183H106.926V75H87.7407V61.3183Z" fill="#4DC247"/>
<path d="M141.332 46.1363C141.329 46.1362 141.317 46.136 141.298 46.1363L141.332 46.1363Z" fill="#4DC247"/>
<path d="M91.111 24H103.555V41.7778L121.333 41.7778V54.2222H103.555V72H91.111V54.2222H73.3333V41.7778H91.111V24Z" fill="#4DC247"/>
</svg>
