<svg width="178" height="177" viewBox="0 0 178 177" fill="none" xmlns="http://www.w3.org/2000/svg">
<path fill-rule="evenodd" clip-rule="evenodd" d="M161.43 51.4524C161.402 51.2053 161.373 50.9564 161.344 50.706L161.343 50.6942C161.372 50.9486 161.401 51.2014 161.43 51.4524Z" fill="#4DC247"/>
<path fill-rule="evenodd" clip-rule="evenodd" d="M2.46548 106.341C6.28061 124.979 15.9551 141.484 29.4804 153.845L53.7858 160.863L54.1189 161.148C65.4591 170.868 78.6894 171.965 90.8679 169.965C100.457 168.391 109.011 164.986 115.322 162.473C117.123 161.756 118.74 161.112 120.148 160.604L120.754 160.385L121.397 160.435C134.46 161.44 144.083 152.29 147.074 149.447C147.306 149.226 147.498 149.044 147.648 148.907L147.776 148.791L147.916 148.69C153.396 144.751 158.429 135.759 161.148 121.97C163.798 108.537 163.071 75.9778 160.869 70.4889C158.667 65 157.873 61.6339 156.667 58.5C155.46 55.3661 156.075 57.2365 155.663 53.7942C155.565 52.9805 155.471 52.1666 155.377 51.3551C154.698 45.489 154.033 39.7478 152.312 35.1229C150.8 34.3382 148.977 33.1894 147.065 31.9013C144.569 30.2198 141.733 28.1694 138.898 26.056C133.535 22.0571 128.095 17.7707 124.845 15.2051C120.046 14.2815 115.066 16.6171 110.691 20.3567C108.471 22.2538 106.558 24.3914 105.109 26.3214C103.819 28.0397 103.002 29.4533 102.632 30.2897C102.261 31.1261 102.51 30.7705 102.167 31.5C101.765 32.3516 100.923 34.6561 100.559 35.2342L100.518 35.2992C100.416 35.4618 100.326 35.6047 100.246 35.7343L103.353 40.9542L101.934 42.5914C101.185 43.4557 101.302 43.8418 101.35 44.0024L101.352 44.0094C101.481 44.4339 101.969 45.1721 103.208 46.1046C105.642 47.9364 109.517 49.4381 112.449 50.2305L112.941 50.3633L113.361 50.6507C116.766 52.9806 119.506 53.7214 121.596 53.8307C123.699 53.9407 125.386 53.4247 126.723 52.8617L132.037 50.6243L130.819 56.26C127.632 71.0152 122.921 80.9104 118.612 88.1479C116.92 90.9896 115.281 93.4328 113.877 95.5266C113.512 96.07 113.164 96.5899 112.834 97.0871C111.829 98.6032 111.026 99.8715 110.419 100.997C112.667 102.862 114.801 105.407 116.698 107.952C119.09 111.158 121.361 114.722 123.252 117.69C123.402 117.926 123.55 118.159 123.696 118.387L118.637 121.613L118.212 120.946C116.299 117.945 114.142 114.56 111.889 111.539C109.405 108.208 107.085 105.715 105.157 104.593C93.1559 97.6051 80.4812 102.953 72.4514 106.341L70.1325 107.319L68.7345 105.383C58.8649 91.7175 48.0273 87.8425 38.6483 88.1376C29.0455 88.4397 7.33482 102.09 2.46548 106.341ZM2.46548 106.341C2.10468 104.578 1.79629 102.796 1.542 100.997L2.46548 106.341ZM105.539 141.603C91.962 143.3 80.422 138.816 76.1067 136.189L79.2263 131.064C82.5776 133.104 92.771 137.153 104.794 135.65L105.539 141.603Z" fill="#4DC247"/>
</svg>
