<svg width="177" height="177" viewBox="0 0 177 177" fill="none" xmlns="http://www.w3.org/2000/svg">
<path d="M104 51.2166V73.439C114.429 70.1163 124.611 71.3889 130.998 73.2332L127.175 50.76C124.672 48.4068 120.599 47.6968 115.782 48.1765C111.482 48.6047 107.124 49.9378 104 51.2166Z" fill="#4DC247"/>
<path d="M98.9997 73.3893V50.9721C95.007 48.7011 90.7616 48.2143 86.9176 48.6078C83.3529 48.9726 80.2306 50.0879 78.1723 51.1329L75.8727 72.7633C80.1195 71.2005 84.68 70.9436 88.7987 71.2907C92.5885 71.6101 96.149 72.4519 98.9997 73.3893Z" fill="#4DC247"/>
<path fill-rule="evenodd" clip-rule="evenodd" d="M94.6479 24.0151C80.982 26.2233 70.0545 33.8201 64.2351 40.0953L64.2162 40.1157L64.1969 40.1356C55.8814 48.7121 53.3192 58.734 53.5077 67.8855C53.6934 76.8956 56.5526 84.9732 59.1507 89.7065C70.0557 100.173 77.0525 111.969 81.3252 122.198H122.666C124.253 118.533 126.115 114.996 128.091 111.676C133.709 102.24 140.425 94.2779 145.033 89.6978C159.461 65.4413 148.705 46.5466 141.837 40.2489C124.637 24.879 108.177 21.829 94.6479 24.0151ZM101.7 46.7575C105.205 45.2831 110.222 43.7054 115.286 43.2011C120.872 42.6449 127.284 43.3305 131.375 47.9116L131.854 48.4483L137.431 81.2337L133.149 79.3003C128.326 77.1219 115.185 73.98 102.469 79.3265L101.465 79.7483L100.473 79.3013C97.8825 78.1343 93.3434 76.6915 88.3787 76.2731C83.3944 75.853 78.2934 76.4888 74.2731 79.1149L69.863 81.9956L73.4686 48.0806L74.5282 47.4387C77.0603 45.9045 81.3813 44.1483 86.4084 43.6338C91.1109 43.1524 96.5483 43.7498 101.7 46.7575Z" fill="#4DC247"/>
<path d="M117.752 141.102C118.044 136.443 119.124 131.756 120.711 127.198H83.2503C85.1812 132.675 86.294 137.487 86.8071 141.102H117.752Z" fill="#4DC247"/>
<path fill-rule="evenodd" clip-rule="evenodd" d="M177 88.5C177 137.377 137.377 177 88.5 177C88.0024 177 87.5057 176.996 87.01 176.988C86.5345 171.083 83.5815 166.768 80.0532 163.818C76.2637 160.649 71.7623 158.996 68.6962 158.424L68.3385 158.357L67.9766 158.395C49.0558 160.381 38.7139 155.943 33.2642 150.257C27.7591 144.514 26.7368 136.977 27.5266 131.779L27.555 131.593V131.404C27.555 124.032 26.0583 119.299 23.675 116.504C21.3826 113.815 18.4656 113.162 16.1662 113.619C10.2655 112.818 8.20758 110.596 7.48635 108.823C6.66723 106.81 7.13282 104.361 7.99362 102.616L27.4705 69.8502L27.5355 69.3328C30.9645 42.0563 41.6261 26.5753 54.0042 17.621C66.4774 8.59802 82 1.29694 106 1.72996C146.495 9.85239 177 45.6138 177 88.5ZM75.8806 122.198H66.2384V127.198H77.9303C80.57 134.229 81.7876 140.177 82.0852 143.806L82.2735 146.102H122.673V143.602C122.673 138.244 123.957 132.67 126.031 127.198H136.065V122.198H128.149C129.42 119.478 130.854 116.81 132.388 114.233C137.861 105.039 144.435 97.3023 148.77 93.034L148.996 92.8121L149.159 92.541C165.297 65.7072 153.483 44.1325 145.203 36.5515L145.192 36.5414L145.181 36.5315C126.906 20.1961 108.941 16.6408 93.8503 19.0792C78.9079 21.4936 67.0273 29.7402 60.5879 36.675C51.1789 46.3909 48.2987 57.7913 48.5088 67.9884C48.7177 78.1291 51.9754 87.1699 54.9729 92.4813L55.1562 92.8061L55.4264 93.0633C65.2595 102.424 71.7566 112.927 75.8806 122.198ZM89.8288 156.266H115.505V151.266H89.8288V156.266Z" fill="#4DC247"/>
</svg>
