<svg width="1440" height="750" viewBox="0 0 1440 750" fill="none" xmlns="http://www.w3.org/2000/svg">
<g filter="url(#filter0_f_449_351)">
<path fill-rule="evenodd" clip-rule="evenodd" d="M141.7 88.7931C96.7519 116.501 54.9659 142.26 -3 115.072V347C36.7908 363.537 71.4851 388.92 106.482 414.525C197.215 480.908 289.983 548.78 478.875 467.838C697.632 374.099 762.41 392.804 920.486 438.452L920.488 438.452C951.555 447.423 986.224 457.435 1026.38 467.838C1177.85 507.085 1224.78 471.657 1284.73 426.413C1321.52 398.641 1363.22 367.169 1437 347V91.9351C1275.62 141.726 1269.08 138.744 1129.56 75.1385L1129.56 75.1377L1129.56 75.1371C1101.38 62.2905 1067.77 46.971 1026.38 29.1138C910.85 -20.7176 822.451 36.3984 736.783 91.7497C639.751 154.444 546.223 214.874 420.75 115.072C280.298 3.35473 207.6 48.169 141.7 88.7931Z" fill="#4DC247" fill-opacity="0.05"/>
<path d="M1437 755V347C1363.22 367.169 1321.52 398.641 1284.73 426.413C1224.78 471.657 1177.85 507.085 1026.38 467.838C986.224 457.435 951.555 447.423 920.488 438.452L920.486 438.452C762.41 392.804 697.632 374.099 478.875 467.838C289.983 548.78 197.215 480.908 106.482 414.525C71.4851 388.92 36.7908 363.537 -3 347V755H1437Z" fill="#4DC247" fill-opacity="0.1"/>
</g>
<defs>
<filter id="filter0_f_449_351" x="-13" y="0" width="1460" height="765" filterUnits="userSpaceOnUse" color-interpolation-filters="sRGB">
<feFlood flood-opacity="0" result="BackgroundImageFix"/>
<feBlend mode="normal" in="SourceGraphic" in2="BackgroundImageFix" result="shape"/>
<feGaussianBlur stdDeviation="5" result="effect1_foregroundBlur_449_351"/>
</filter>
</defs>
</svg>
