<svg width="641" height="600" viewBox="0 0 641 600" fill="none" xmlns="http://www.w3.org/2000/svg">
<path d="M307.692 421.394C297.127 427.308 282.536 420.349 280.795 419.478C280.679 419.42 280.563 419.366 280.442 419.317L229.909 398.794C228.367 398.167 227.373 396.65 227.416 394.985L228.276 361.336L230.651 345.807C230.686 345.583 230.739 345.363 230.81 345.148L253.811 276.043C254.39 274.305 256.066 273.179 257.891 273.336C287.275 275.874 341.818 285.474 347.425 306.044C353.211 327.271 341.036 368.457 334.141 386.637C334.081 386.796 334.023 386.925 333.941 387.074C332.547 389.644 318.379 415.411 307.692 421.394Z" fill="#FFE6C1"/>
<path d="M357.232 331.863C364.315 317.176 356.176 297.287 350.459 287.802C349.872 286.828 348.872 286.195 347.749 286.022L248.927 270.829C246.79 270.5 244.779 271.928 244.386 274.054L234.605 326.853C234.5 327.42 234.519 328.003 234.66 328.562L236.686 336.573C237.034 337.95 237.254 338.117 237.792 336.803C238.771 334.411 240.984 329.575 245.452 320.54C255.258 300.707 310.839 298.256 330.271 310.944C340.194 317.423 343.541 330.332 344.028 341.811C344.207 346.019 349.235 347.732 351.176 343.993C352.968 340.543 354.995 336.501 357.232 331.863Z" fill="black"/>
<path d="M244.746 266.873C282.577 254.615 320.991 264.309 342.729 280.639C345.657 282.839 343.796 286.999 340.144 286.723L268.277 281.288C266.793 281.175 265.37 281.896 264.582 283.157L238.554 324.839L236.889 328.545C235.642 331.319 235.37 337.683 235.548 340.719C235.667 342.732 235.171 344.71 233.16 345.741C231.926 346.374 237.71 368.454 229.917 368.723C228.663 368.766 227.713 367.726 227.31 366.537C218.059 339.23 202.841 280.451 244.746 266.873Z" fill="black"/>
<path d="M221.887 332.812C223.439 329.962 228.503 326.333 236.796 333.168C237.76 333.963 238.215 335.211 238.088 336.455L235.423 362.648C235.099 365.834 231.358 367.357 228.922 365.278C225.908 362.707 222.402 359.674 219.427 356.996C214.088 352.19 218.843 338.871 221.887 332.812Z" fill="#FFE6C1"/>
<path d="M216.794 429.988C222.162 420.535 226.594 402.479 227.602 391.232C227.815 388.858 229.88 386.988 232.246 387.279C259.073 390.577 300.717 399.886 292.463 417.981C284.654 435.101 275.238 449.296 270.282 455.921C269.352 457.164 267.778 457.703 266.272 457.322C245.879 452.154 210.885 440.394 216.794 429.988Z" fill="#FFE6C1"/>
<path d="M270.099 468.063L279.54 444.681C279.881 443.836 279.494 442.874 278.663 442.5L225.519 418.617C223.549 417.731 221.231 418.57 220.284 420.511L212.305 436.869C212.027 437.439 211.889 438.066 211.901 438.7L212.53 471.235C212.55 472.305 212.999 473.322 213.775 474.059L230.386 489.824C231.699 491.07 233.685 491.28 235.228 490.334L268.478 469.977C269.21 469.529 269.778 468.858 270.099 468.063Z" fill="#FFE6C1"/>
<path d="M253.969 474.507C262.081 470.395 270.289 466.654 277.036 464.411C283.56 462.243 285.79 459.468 285.612 456.644C286.346 463.319 286.12 476.549 279.344 476.069C276.163 475.844 267.138 478.074 256.823 481.062C252.253 482.386 249.725 476.658 253.969 474.507Z" fill="#D1E49B"/>
<path d="M258.624 468.799C266.275 461.394 273.92 451.525 277.49 445.799C278.707 443.847 281.42 442.685 282.925 444.426C285.65 447.579 285.365 452.32 285.745 455.74C286.028 458.283 285.792 460.778 285.067 462.374C284.798 462.966 284.257 463.366 283.665 463.636L244.099 481.696C244.877 481.333 248.84 478.266 258.624 468.799Z" fill="#D1E49B"/>
<path d="M218.029 443.504C217.789 442.886 217.595 442.233 217.443 441.553C216.524 437.441 209.299 433.961 207.498 437.769C203.511 446.197 209.638 462.175 210.812 465.308C211.575 467.342 222.047 478.894 227.589 485.099C228.308 486.276 229.094 487.311 229.95 488.135C232.137 490.242 230.582 488.45 227.589 485.099C224.732 480.424 222.937 473.514 222.072 468.726C221.773 467.073 222.632 465.452 224.123 464.679L226.307 463.548C228.933 462.187 229.277 458.472 227.172 456.394C223.77 453.035 219.933 448.394 218.029 443.504Z" fill="#D1E49B"/>
<path d="M354.723 492.912C322.265 471.733 317.405 473.909 286.771 468.904C286.584 468.873 286.394 468.817 286.221 468.739C285.749 468.527 285.218 468.489 284.721 468.632L274.747 471.49C271.615 472.388 270.813 476.454 273.37 478.474L366.287 551.896C366.892 552.374 367.621 552.667 368.388 552.74L435.294 559.118C438.968 559.468 441.116 555.078 438.584 552.392L405.57 517.369C404.932 516.692 404.084 516.269 403.171 516.091C396.214 514.735 378.922 508.702 354.723 492.912Z" fill="#D1E49B"/>
<path d="M497.764 472.213C497.922 462.592 496.208 446.833 495.186 428.12C494.917 423.193 482.413 421.338 480.781 425.997C466.003 468.176 447.762 502.556 433.986 500.167C415.546 496.968 359.636 498.61 339.29 501.584C338.202 501.743 337.234 502.352 336.704 503.315C327.044 520.868 336.543 564.596 371.578 567.779C407.634 571.056 454.023 571.442 471.19 561.886C488.356 552.329 497.471 489.942 497.764 472.213Z" fill="#D1E49B"/>
<path d="M462.146 375.137C468.827 380.099 474.783 382.204 479.866 382.592C484.246 382.927 494.18 390.441 493.174 394.717L454.281 560.029C453.863 561.805 452.306 563.075 450.482 563.102C430.416 563.403 397.997 562.736 408.053 557.818C418.643 552.639 428.846 496.229 432.624 468.672C434.721 431.742 443.561 361.335 462.146 375.137Z" fill="#D1E49B"/>
<path d="M224.154 731.364C233.257 709.59 262.776 651.236 336.404 519.562C336.408 519.554 336.417 519.551 336.425 519.555C336.442 519.562 336.456 519.538 336.44 519.527L294.97 489.303L274.029 475.246C272.994 474.551 271.694 474.379 270.514 474.78L244.961 483.459L233.035 487.827C231.367 488.438 229.496 487.876 228.441 486.447L224.928 481.688C224.214 480.722 223.105 480.127 221.905 480.068L129.695 475.548C128.175 475.474 126.745 476.269 126.004 477.599L61.768 593.031L1.63812 672.592C1.04321 673.379 0.744649 674.359 0.907752 675.332C3.53455 691.005 27.7196 726.947 107.301 757.269C172.681 782.181 204.323 769.096 216.637 753.476C219.102 750.349 222.618 735.038 224.154 731.364Z" fill="#D1E49B"/>
<path d="M294.793 581.983C313.086 573.862 355.191 570.174 380.95 568.993C384.52 568.829 386.191 564.43 383.594 561.981L334.239 515.439C332.515 513.813 329.768 514.023 328.336 515.915C307.322 543.671 274.823 590.847 294.793 581.983Z" fill="#D1E49B"/>
<path d="M173.951 420.488C186.473 422.392 201.899 434.31 208.684 440.59C209.115 440.988 209.444 441.481 209.658 442.028L224.205 479.217C225.057 481.393 223.868 483.833 221.63 484.505L125.92 513.227C124.386 513.687 122.725 513.188 121.699 511.959L55.0511 432.118C54.4119 431.353 54.0783 430.396 54.1347 429.401C55.5481 404.452 65.7539 350.028 75.8347 359.112C85.9662 368.241 117.431 399.304 135.357 411.327C135.915 411.701 136.543 411.903 137.209 411.988C144.918 412.963 161.584 418.607 173.951 420.488Z" fill="#D1E49B"/>
<path d="M46.3886 350.793L91.2624 389.577C92.4254 390.582 92.9095 392.164 92.5078 393.648L78.6188 444.951C77.8387 447.833 74.2916 448.875 72.0764 446.874L46.9917 424.214C46.2853 423.576 45.8296 422.707 45.7066 421.763L37.0977 355.671C36.8766 353.974 37.7602 352.324 39.2955 351.567L42.0044 350.232C43.4459 349.521 45.1727 349.742 46.3886 350.793Z" fill="#D1E49B"/>
<rect x="278.095" y="44.0522" width="309.321" height="208.764" transform="rotate(24.1997 278.095 44.0522)" fill="#6A6A6A"/>
<rect x="283.863" y="55.0649" width="289.538" height="194.335" transform="rotate(24.1997 283.863 55.0649)" fill="#333333"/>
<path d="M218.647 438.404C217.588 433.948 220.257 422.33 221.725 417.078C218.727 424.202 217.541 430.55 217.323 432.834C216.891 435.404 216.611 441.572 218.948 445.684C221.285 449.796 225.83 455.071 227.81 457.194C229.717 458.783 229.409 461.797 227.22 462.968L224.103 464.634C222.584 465.446 221.752 467.14 222.073 468.832C222.576 471.489 223.247 474.711 223.75 476.165C224.431 478.136 226.355 482.68 227.339 484.957C227.418 485.139 227.524 485.307 227.655 485.457L229.451 487.521C229.542 487.625 229.71 487.6 229.767 487.474C229.781 487.443 229.786 487.408 229.782 487.374L229.763 487.211C229.729 486.928 229.542 486.692 229.323 486.51C227.308 484.842 224.093 476.554 223.194 470.462C222.911 468.548 224.352 466.932 226.266 466.654L227.737 466.44C231.14 465.945 232.694 461.327 230.611 458.591C225.147 451.415 219.413 441.627 218.647 438.404Z" fill="#FFCF86"/>
<path d="M245.837 389.074C257.801 405.08 273.186 412.999 276.844 415.814C277.348 416.201 277.84 416.615 278.407 416.905L286.49 421.034C288.435 422.028 289.224 424.399 288.261 426.36L287.085 428.755C286.175 430.607 284.02 431.403 282.343 430.2C277.709 426.877 271.043 420.125 265.408 413.944C258.643 406.523 244.879 389.409 239.763 380.731C241.019 382.571 243.994 386.817 245.837 389.074Z" fill="#FFCF86"/>
<path d="M250.096 476.694L234.918 484.622C232.64 485.811 229.736 482.567 229.291 480.036C229.048 478.656 230.187 479.226 231.586 479.161C248.077 478.396 270.941 451.891 279.484 441.958C275.444 451.579 258.799 468.592 250.993 476.054C250.723 476.311 250.426 476.522 250.096 476.694Z" fill="#FFCF86"/>
<path d="M175.838 217.907L162.458 222.055C162.331 222.095 162.219 222.17 162.135 222.273C162.028 222.404 161.974 222.57 161.984 222.738L164.044 259.475C164.143 261.238 165.386 262.728 167.103 263.14L171.892 264.291C173.278 264.624 174.735 264.195 175.72 263.164L199.847 237.901L205.724 230.072C206.236 229.39 206.953 228.889 207.769 228.643L211.632 227.481C213.251 226.993 215.002 227.576 216.005 228.937L217.09 230.41C217.963 231.594 217.674 233.268 216.454 234.091C214.867 235.161 214.951 237.524 216.61 238.48L216.846 238.615C217.776 239.151 218.932 239.098 219.809 238.481L245.472 220.432C246.17 219.941 246.693 219.24 246.964 218.431L254.189 196.868C254.644 195.511 254.339 194.014 253.39 192.943L241.472 179.499C239.285 177.515 231.488 173.88 217.794 175.204C204.542 176.486 186.34 202.169 178.128 216.086C177.615 216.955 176.802 217.608 175.838 217.907Z" fill="#FFE6C1"/>
<path d="M137.824 311.846C112.125 339.907 120.092 349.181 81.7214 392.157C80.5666 393.451 78.6773 393.87 77.0957 393.159L67.6504 388.914C65.6354 388.009 63.2679 388.908 62.3623 390.923L50.304 417.755C48.9755 420.711 44.7863 420.988 42.8503 418.389C29.0113 399.812 7.5053 385.535 16.3479 365.858C26.1775 343.986 108.158 267.261 140.165 236.354C172.172 205.448 175.326 220.006 174.927 219.189C174.529 218.372 166.403 226.838 165.934 242.322C165.428 259.063 171.005 259.145 178.454 257.9C188.824 256.167 176.42 275.215 170.843 279.198C170.672 279.321 170.504 279.45 170.348 279.592C154.172 294.296 158.625 289.132 137.824 311.846Z" fill="#D1E49B"/>
<path d="M491.882 373.64C491.812 375.8 491.678 378.956 491.492 381.052C491.408 381.999 490.928 382.855 490.206 383.473L486.364 386.76C485.49 387.509 484.335 387.844 483.195 387.681L475.948 386.64C475.487 386.574 475.041 386.427 474.631 386.208L462.988 379.985C461.133 378.994 460.363 376.736 461.225 374.818L467.751 360.297C467.985 359.777 468.104 359.213 468.102 358.644L468.071 349.165C468.066 347.595 467.143 346.173 465.711 345.53L462.827 344.234C461.876 343.806 460.757 344.231 460.329 345.182C459.694 346.597 457.72 346.686 456.959 345.334L455.089 342.01C454.496 340.954 454.438 339.68 454.934 338.576L468.074 309.339C468.401 308.61 468.94 307.996 469.621 307.575L489.59 295.245C490.898 294.437 492.556 294.437 493.802 295.339C501.977 301.252 514.506 314.04 512.037 327.752C509.44 342.175 498.305 362.379 492.512 371.585C492.123 372.203 491.906 372.91 491.882 373.64Z" fill="#FFE6C1"/>
<path d="M220.493 465.039C211.214 454.995 207.497 444.207 206.717 439.688C206.678 439.461 206.572 439.253 206.408 439.091C205.591 438.284 204.236 439.171 204.641 440.246C205.782 443.274 207.014 446.641 207.557 448.418C208.536 451.624 218.697 463.119 220.49 465.052C220.664 465.24 220.667 465.227 220.493 465.039Z" fill="#AFBD88"/>
<path d="M483.534 384.521C488.365 384.446 490.612 382.683 491.131 381.811C491.223 381.673 491.439 381.757 491.413 381.921L491.333 382.435C491.323 382.498 491.291 382.555 491.242 382.597L486.452 386.715C485.58 387.465 484.427 387.803 483.288 387.643L475.043 386.486C474.855 386.459 474.674 386.398 474.508 386.306L468.439 382.916C467.47 382.374 468.129 380.898 469.179 381.259C471.951 382.377 478.703 384.595 483.534 384.521Z" fill="#FFCF86"/>
<path d="M170.205 225.208C170.741 224.301 172.049 222.184 172.999 220.978C173.534 220.3 174.054 220.752 173.676 221.529C171.586 225.821 169.648 231.875 168.831 234.797C167.962 239.509 167.289 249.949 171.552 254.008C172.324 254.744 173.082 255.353 173.814 255.855C174.492 256.32 174.164 258.252 173.342 258.258C170.06 258.279 168.144 255.815 167.438 254.271L167.432 254.257C167.315 254.001 167.198 253.744 167.106 253.477C166.832 252.676 166.39 250.747 166.003 247.049C165.401 241.293 166.275 238.496 166.846 234.67C167.303 231.61 169.276 227.087 170.205 225.208Z" fill="#FFCF86"/>
<path d="M403.205 563.264C421.608 565.654 448.219 562.737 463.229 560.424C466.27 559.955 467.813 562.992 465.08 564.407C458.961 567.577 435.245 569.285 424.152 569.743C419.265 569.545 404.62 569.028 385.14 568.541C365.66 568.054 322.487 574.618 303.335 577.96C328.106 571.955 382.76 560.608 403.205 563.264Z" fill="#AFBD88"/>
<path d="M128.636 506.211C123.643 511.417 96.3983 545.391 85.9335 560.633C83.8605 563.047 80.0723 560.422 81.6046 557.633L111.472 503.274C112.266 501.828 112.091 500.042 111.031 498.778L58.2198 435.781L46.6889 423.964C46.4884 422.139 40.5806 415.223 37.6518 411.993C24.7087 399.808 17.7674 387.382 15.6399 382.079C15.4729 381.663 15.394 381.225 15.388 380.776C15.3303 376.43 15.3933 369.827 16.0682 373.715C16.7792 377.811 34.2797 399.718 42.9411 410.16L74.6202 444.427C87.5491 461.082 134.878 499.703 128.636 506.211Z" fill="#AFBD88"/>
<path d="M238.494 486.86L234.146 487.702C233.118 487.901 232.956 489.303 233.91 489.732C234.176 489.851 234.382 490.074 234.48 490.349L238.567 501.776C241.008 502.022 246.768 502.094 250.282 500.407C271 489.509 281.876 475.056 284.724 469.191C274.376 486.995 249.641 498.332 238.567 501.776C241.584 497.8 241.7 492.273 241.194 488.67C241.014 487.389 239.764 486.615 238.494 486.86Z" fill="#AFBD88"/>
<path d="M281.427 593.454C285.451 589.569 288.572 586.033 290.519 583.174C291.908 581.136 291.585 580.964 290.1 582.933C288.203 585.447 285.282 589.064 281.427 593.454C266.507 607.86 239.179 627.075 213.266 634.443C195.098 639.608 167.435 643.257 143.362 645.566C138.585 646.024 138.242 653.694 142.977 654.47L173.136 659.412C174.027 659.558 174.931 659.401 175.725 658.971C200.365 645.609 240.786 634.153 263.646 612.049C270.818 605.115 276.796 598.727 281.427 593.454Z" fill="#AFBD88"/>
<path d="M452.341 174.225C455.251 175.562 458.693 174.288 460.029 171.379C461.365 168.471 460.089 165.029 457.178 163.693C454.268 162.356 450.826 163.63 449.49 166.539C448.154 169.447 449.431 172.889 452.341 174.225Z" fill="white"/>
<path d="M420.792 170.364C419.456 173.272 416.014 174.547 413.104 173.21C410.194 171.873 408.917 168.432 410.253 165.524C411.589 162.615 415.031 161.341 417.941 162.677C420.852 164.014 422.128 167.455 420.792 170.364Z" fill="white"/>
<path d="M367.384 157.086L349.473 148.86L347.581 152.979L365.492 161.205L367.384 157.086Z" fill="white"/>
<path d="M338.239 157.577L338.617 161.696L333.25 173.38L339.845 176.409L345.16 164.837L344.857 161.841C346.526 161.368 348.285 161.556 350.134 162.405C352.657 163.564 353.362 165.354 352.25 167.776L346.814 179.61L353.409 182.639L359.085 170.281C360.267 167.709 360.29 165.286 359.157 163.012C358.035 160.713 355.813 158.801 352.49 157.275C347.769 155.106 343.019 155.207 338.239 157.577Z" fill="white"/>
<path d="M368.077 190.056C366.428 189.299 365.171 188.313 364.307 187.1C363.454 185.862 362.997 184.518 362.936 183.069C362.887 181.596 363.207 180.11 363.895 178.612L369.743 165.879L376.338 168.908L370.679 181.229C370.197 182.277 370.123 183.196 370.457 183.984C370.791 184.772 371.495 185.413 372.569 185.906C373.493 186.331 374.366 186.505 375.188 186.429C376.021 186.328 376.858 185.987 377.699 185.406L383.72 172.298L390.314 175.327L381.112 195.363L374.855 192.489L375.801 190.429C374.598 190.874 373.313 191.07 371.946 191.017C370.59 190.938 369.301 190.618 368.077 190.056Z" fill="white"/>
<path d="M303.477 198.785L320.666 185.366L313.472 182.062L303.356 190.748L303.317 177.398L296.048 174.059L297.069 195.842L293.079 204.53L299.486 207.473L303.477 198.785Z" fill="white"/>
<path fill-rule="evenodd" clip-rule="evenodd" d="M323.493 218.817C321.02 217.681 319.01 216.063 317.465 213.962C315.944 211.873 315.041 209.523 314.758 206.914C314.51 204.291 314.977 201.694 316.158 199.122C317.339 196.551 319 194.517 321.139 193.02C323.303 191.535 325.673 190.689 328.249 190.481C330.85 190.285 333.387 190.755 335.86 191.891C338.333 193.027 340.33 194.639 341.851 196.729C343.397 198.829 344.287 201.173 344.521 203.759C344.779 206.357 344.318 208.942 343.137 211.514C341.956 214.085 340.29 216.132 338.139 217.653C336 219.15 333.642 220.002 331.066 220.209C328.491 220.417 325.966 219.953 323.493 218.817ZM326.176 212.975C328.275 213.939 330.269 214.008 332.161 213.184C334.077 212.371 335.562 210.816 336.617 208.519C337.684 206.197 337.895 204.057 337.252 202.099C336.645 200.127 335.293 198.659 333.194 197.696C331.071 196.72 329.057 196.627 327.152 197.415C325.272 198.214 323.794 199.787 322.716 202.134C321.649 204.456 321.419 206.603 322.026 208.575C322.67 210.533 324.053 212 326.176 212.975Z" fill="white"/>
<path d="M351.776 218.701L359 202.972L352.592 200.03L345.385 215.721C344.308 218.068 343.865 220.283 344.057 222.367C344.261 224.425 344.986 226.24 346.231 227.809C347.513 229.365 349.19 230.62 351.264 231.572C353.337 232.524 355.4 232.973 357.452 232.918C359.529 232.874 361.44 232.27 363.185 231.106C364.929 229.943 366.34 228.187 367.418 225.84L374.625 210.149L368.218 207.206L360.994 222.935C360.271 224.508 359.315 225.535 358.126 226.017C356.937 226.498 355.593 226.395 354.094 225.707C352.595 225.018 351.653 224.072 351.269 222.867C350.884 221.663 351.053 220.274 351.776 218.701Z" fill="white"/>
<path fill-rule="evenodd" clip-rule="evenodd" d="M422.521 189.369C429.019 192.353 434.107 196.249 437.784 201.056C441.461 205.862 443.542 211.211 444.027 217.103C444.597 222.962 443.484 228.935 440.689 235.02C437.921 241.047 434.115 245.783 429.272 249.227C424.487 252.698 419.044 254.591 412.944 254.907C406.902 255.25 400.661 253.942 394.22 250.984L371.123 240.376L399.423 178.76L422.521 189.369ZM408.555 198.472L392.107 234.283L399.221 237.55C404.9 240.159 410.032 240.638 414.618 238.989C419.204 237.34 422.801 233.678 425.408 228.002C428.015 222.326 428.463 217.182 426.753 212.57C425.043 207.958 421.348 204.348 415.669 201.74L408.555 198.472Z" fill="white"/>
<path d="M429.497 180.74C432.407 182.076 435.849 180.802 437.185 177.893C438.521 174.985 437.245 171.544 434.335 170.207C431.425 168.87 427.983 170.145 426.647 173.053C425.311 175.962 426.587 179.403 429.497 180.74Z" fill="white"/>
<path d="M453.579 185.423C452.243 188.331 448.801 189.606 445.891 188.269C442.98 186.932 441.704 183.491 443.04 180.582C444.376 177.674 447.818 176.4 450.728 177.736C453.638 179.073 454.915 182.514 453.579 185.423Z" fill="white"/>
</svg>
