<svg width="716" height="806" viewBox="0 0 716 806" fill="none" xmlns="http://www.w3.org/2000/svg">
<path d="M434.478 205.902H547.058L567.527 335.34L426.802 341.978L434.478 205.902Z" fill="#FFE6C1"/>
<path d="M548.387 219.467C529.808 248.132 498.935 267.456 463.332 268.853C452.18 269.291 441.354 267.939 431.105 265.043L433.155 204.47L543.639 200.133L548.387 219.467Z" fill="#FFCF86"/>
<ellipse cx="464.496" cy="135.345" rx="108.056" ry="125.996" fill="#FFE6C1"/>
<path d="M551.615 122.745C529.501 96.5384 453.61 93.3465 418.429 95.0264L436.019 62.2676L518.946 74.8671L551.615 122.745Z" fill="#FFCF86"/>
<path d="M441.851 84.9469C416.721 100.906 363.949 130.809 353.898 122.746C341.333 112.666 363.37 8.42404 446.071 1.78947C571.716 -8.29022 590.145 79.907 572.555 165.584C554.964 110.146 514.757 84.9469 441.851 84.9469Z" fill="black" stroke="black"/>
<ellipse cx="17.5967" cy="22.6714" rx="17.5967" ry="22.6714" transform="matrix(0.935328 0.353782 -0.35207 0.935974 558.362 110.146)" fill="#FFE6C1"/>
<path d="M752.911 324.928C744.369 308.194 622.748 284.946 560.416 275.006C559.534 274.865 558.709 275.318 558.318 276.121C547.728 297.882 517.526 337.233 475.796 330.545C435.09 324.022 434.09 314.343 429.924 309.818C429.554 309.416 429.039 309.241 428.495 309.294C383.198 313.693 272.516 368.759 265.308 554.764C265.27 555.749 265.957 556.645 266.925 556.832L366.648 576.032C367.745 576.243 368.467 577.263 368.239 578.357C347.651 677.228 311.68 877.957 328.652 908.773C328.821 909.081 329.05 909.283 329.358 909.453C438.242 969.472 672.295 943.366 741.652 909.663C742.272 909.362 742.639 908.781 742.704 908.095C756.439 764.393 729.053 614.771 713.647 540.887C713.44 539.892 714.02 538.94 714.985 538.621L829.822 500.568C830.753 500.259 831.319 499.292 831.16 498.323C811.209 376.729 772.347 333.407 754.323 326.319C753.675 326.064 753.228 325.549 752.911 324.928Z" fill="#FF7C43"/>
<path fill-rule="evenodd" clip-rule="evenodd" d="M710.765 538.531L720.111 587.736C720.533 589.955 719.497 592.197 717.535 593.309L549.306 688.659C548.1 689.342 546.674 689.521 545.338 689.155L494.689 675.304C493.085 674.865 491.368 675.214 490.06 676.244L461.185 698.994C458.866 700.821 458.501 704.204 460.375 706.487L490.711 743.425C491.623 744.536 492.948 745.224 494.379 745.33L558.773 750.113C559.573 750.173 560.375 750.048 561.119 749.748L849.994 633.382C852.323 632.444 853.665 629.985 853.198 627.512L834.892 530.726L710.765 538.531Z" fill="#FFE6C1"/>
<path d="M710.765 538.531L834.892 530.726L826.662 487.208C826.465 486.169 825.961 485.213 825.215 484.464L815.581 474.804C814.452 473.672 812.872 473.116 811.286 473.293L706.357 484.984C703.313 485.323 701.203 488.19 701.776 491.206L710.765 538.531Z" fill="#FFCF86"/>
<path fill-rule="evenodd" clip-rule="evenodd" d="M558.959 274.774C622.086 284.779 749.33 309.02 753.292 325.945C770.902 331.771 811.186 374.746 831.438 500.032L713.291 539.182L540.967 557.799L368.644 576.416L265.243 556.508C271.865 367.965 384.411 313.039 429.315 309.219C434.083 313.432 433.189 323.718 475.796 330.545C518.403 337.373 548.991 296.209 558.959 274.774Z" fill="#FF7C43"/>
<path fill-rule="evenodd" clip-rule="evenodd" d="M355.382 650.508C355.811 650.056 356.163 649.684 356.44 649.407C356.44 640.55 365.493 597.324 371.668 569.3L265.524 555.376L263.461 563.73C251.668 551.116 234.34 530.473 218.231 511.282C200.014 489.579 183.355 469.733 178.021 465.453C170.107 459.105 168.175 451.757 165.317 440.891C163.637 434.504 161.638 426.903 157.917 417.575C147.866 392.376 125.249 364.657 132.788 392.376C134.724 399.494 125.875 402.319 114.45 405.965C99.6994 410.674 80.655 416.753 74.9903 435.214C67.8979 458.329 87 468.767 108.848 480.705C111.772 482.303 114.745 483.927 117.71 485.613C121.025 491.573 124.98 499.097 129.497 507.693C158.083 562.087 209.21 659.374 263.461 674.606C318.011 689.923 348.007 658.286 355.382 650.508Z" fill="#FFE6C1"/>
<path d="M374.03 558.69L265.524 555.376L371.668 569.3C372.521 565.43 373.319 561.85 374.03 558.69Z" fill="#FFCF86"/>
<path d="M145.353 399.936C131.113 371.377 99.6174 325.85 87.5553 372.217C88.4252 374.75 90.1727 377.793 92.5812 378.657C94.9636 379.51 97.9928 378.232 101.459 372.217C101.85 363.817 104.643 350.041 112.685 362.137C120.726 374.233 137.814 392.376 145.353 399.936Z" fill="#FFE6C1"/>
<path d="M112.685 362.137C104.643 350.041 101.85 363.817 101.459 372.217C97.9928 378.232 94.9636 379.51 92.5812 378.657C86.8034 383.342 82.1873 387.932 78.5468 392.376C73.456 398.59 70.2727 404.517 68.488 410.015C63.5555 425.211 69.3758 448.497 75.0615 454.141L145.353 399.936C137.814 392.376 120.726 374.233 112.685 362.137Z" fill="#FFE6C1"/>
<path d="M100.739 377.564C102.541 376.209 107.62 373.111 109.934 371.731L111.248 376.059C106.556 378.944 102.458 380.191 97.3914 380.567C94.3051 380.797 92.5454 378.713 92.6705 378.724C94.8707 378.881 99.0403 378.842 100.739 377.564Z" fill="#FFCF86"/>
<path fill-rule="evenodd" clip-rule="evenodd" d="M100.695 252.579V252.579C98.8193 269.373 103.935 294.749 102.941 311.618C102.001 327.58 101.419 347.343 101.084 365.967C100.779 382.899 126.745 387.571 117.998 373.07V373.07C113.222 365.151 113.664 336.743 115.345 311.41C116.439 294.919 128.092 272.972 130.633 256.641V256.641C131.202 252.988 131.737 249.548 132.417 246.841L134.852 235.683C135.111 234.493 134.473 233.289 133.343 232.836V232.836C131.854 232.239 130.197 233.181 129.949 234.766L127.927 247.687C127.832 248.294 127.31 248.741 126.696 248.741V248.741C125.934 248.741 125.35 248.064 125.462 247.311L127.626 232.765C127.808 231.536 127.123 230.341 125.969 229.878V229.878C124.335 229.223 122.523 230.291 122.306 232.038L120.36 247.648C120.282 248.273 119.752 248.741 119.123 248.741V248.741C118.373 248.741 117.793 248.084 117.885 247.34L119.989 230.462C120.13 229.335 119.545 228.241 118.529 227.732V227.732C116.891 226.911 114.93 227.937 114.671 229.751L112.407 245.604C112.306 246.314 111.698 246.841 110.98 246.841V246.841C110.113 246.841 109.442 246.081 109.55 245.22L111.896 226.55C112.096 224.957 111.268 223.412 109.831 222.697V222.697C107.968 221.771 105.817 222.573 105.281 224.583C104.068 229.129 102.333 237.913 100.695 252.579Z" fill="#D9D9D9"/>
<path fill-rule="evenodd" clip-rule="evenodd" d="M101.459 372.217C101.851 363.817 104.643 350.041 112.685 362.137C120.726 374.233 137.814 392.376 145.353 399.936L120.726 417.575L110.172 392.376L101.459 372.217Z" fill="#FFE6C1"/>
<path d="M537.479 634.287C590.218 634.287 648.049 631.166 648.049 624.208C648.049 617.249 590.218 609.088 537.479 609.088C484.741 609.088 431.936 614.729 431.936 621.688C431.936 628.646 484.741 634.287 537.479 634.287Z" fill="#5D5D5D"/>
<path d="M648.049 624.208C648.049 631.166 590.218 634.287 537.479 634.287C484.741 634.287 431.936 628.646 431.936 621.688C430.261 646.047 448.019 696.781 492.246 704.845C536.474 712.909 558.421 708.205 575.174 704.845C605.329 698.797 648.049 662.007 648.049 624.208Z" fill="#A7A6A6"/>
<path d="M463.576 644.096C464.716 643.619 465.776 642.97 466.719 642.171L474.554 635.535C478.283 632.376 484.027 634.504 484.794 639.328V639.328C485.244 642.157 487.554 644.319 490.406 644.582L504.458 645.876L522.094 645.429C529.429 645.243 536.173 649.424 539.268 656.076V656.076C544.129 666.524 557.261 669.97 566.782 663.466C572.803 659.352 577.841 656.048 578.645 655.919C579.323 655.811 580.935 652.478 582.827 647.943C587.511 636.712 581.312 624.07 569.834 620.058L533.404 607.326C526.2 604.808 518.219 606.232 512.233 610.976C509.328 613.279 507.221 614.896 507.792 614.283V614.283C514.989 606.56 496.954 597.343 486.536 599.01L479.936 600.066C477.566 600.445 475.275 601.209 473.152 602.328L458.946 609.814C452.953 612.973 448.922 618.906 448.193 625.641L447.583 631.283C447.391 633.063 446.496 634.692 445.098 635.81V635.81C441.676 638.548 441.745 643.776 445.239 646.415L446.263 647.189C448.45 648.842 451.352 649.207 453.883 648.149L463.576 644.096Z" fill="#62AB60"/>
<path d="M461.765 634.944C465.47 633.392 469.707 635.351 470.921 639.179L471.117 639.795C472.875 645.335 480.433 646.023 483.171 640.893V640.893C485.294 636.913 490.701 636.204 493.772 639.503L504.178 650.68C511.076 658.09 523.106 657.024 528.609 648.517V648.517C533.258 641.33 542.837 639.246 550.042 643.855L564.295 652.972C571.855 657.808 581.831 655.257 576.696 647.896C575.052 645.539 573.488 643.881 574.073 643.787C574.565 643.708 575.94 644.03 577.679 644.201C585.944 645.011 584.943 634.551 579.184 628.571L571.876 620.984C563.945 612.75 549.27 608.314 537.842 607.921C523.703 607.436 507.52 605.651 508.169 604.952C508.71 604.371 504.675 598.217 500.318 591.542C497.452 587.152 486.879 588.547 485.527 593.615V593.615C484.021 599.26 478.444 602.813 472.696 601.791L465.918 600.586C458.823 599.324 452.275 604.703 452.133 611.911L452.027 617.224C451.96 620.64 449.178 623.38 445.761 623.395V623.395C438.292 623.426 437.089 634.138 444.366 635.815L451.991 637.572C453.459 637.91 454.996 637.778 456.386 637.196L461.765 634.944Z" fill="#72BE70"/>
<path d="M608.065 606.183C607.037 606.869 606.12 607.71 605.347 608.675L598.921 616.697C595.865 620.511 589.824 619.523 588.149 614.936V614.936C587.167 612.245 584.488 610.565 581.639 610.855L567.599 612.282L550.371 616.106C543.209 617.696 535.793 614.886 531.484 608.95V608.95C524.719 599.628 511.177 598.763 503.078 606.972C497.95 612.168 493.632 616.383 492.867 616.663C492.223 616.9 491.277 620.475 490.287 625.283C487.832 637.209 496.332 648.437 508.366 650.171L546.554 655.676C554.101 656.764 561.657 653.837 566.624 648.035C569.039 645.214 570.801 643.219 570.357 643.931V643.931C564.769 652.889 584.224 658.479 594.127 654.845L600.414 652.537C602.666 651.711 604.767 650.522 606.636 649.018L619.156 638.938C624.434 634.69 627.256 628.094 626.686 621.344L626.208 615.689C626.057 613.905 626.624 612.134 627.782 610.769V610.769C630.619 607.425 629.552 602.306 625.618 600.385L624.465 599.823C622.004 598.621 619.089 598.819 616.808 600.342L608.065 606.183Z" fill="#62AB60"/>
<path d="M611.588 614.819C608.247 617.053 603.716 615.941 601.793 612.416L601.486 611.853C598.701 606.751 591.152 607.524 589.444 613.087V613.087C588.119 617.402 582.948 619.135 579.303 616.486L566.958 607.513C558.771 601.563 547.168 604.917 543.39 614.324V614.324C540.199 622.273 531.197 626.156 523.244 623.015L507.506 616.799C499.166 613.504 489.865 617.921 496.307 624.16C498.373 626.16 500.226 627.489 499.67 627.693C499.202 627.865 497.793 627.813 496.056 627.979C487.788 628.768 490.766 638.847 497.564 643.613L506.185 649.658C515.538 656.216 530.777 657.752 542.063 655.944C556.036 653.706 572.272 652.35 571.767 653.161C571.348 653.835 576.483 659.102 582.034 664.817C585.686 668.576 595.795 665.179 596.155 659.943V659.943C596.556 654.113 601.35 649.555 607.186 649.455L614.078 649.337C621.279 649.214 626.676 642.678 625.44 635.576L624.529 630.34C623.943 626.974 626.149 623.752 629.498 623.082V623.082C636.821 621.618 635.954 610.872 628.493 610.623L620.679 610.362C619.175 610.312 617.693 610.735 616.441 611.573L611.588 614.819Z" fill="#72BE70"/>
<path d="M648.049 624.208C648.049 631.166 590.218 634.287 537.479 634.287C484.741 634.287 431.936 628.646 431.936 621.688C430.261 646.047 448.019 696.781 492.246 704.845C536.474 712.909 558.421 708.205 575.174 704.845C605.329 698.797 648.049 662.007 648.049 624.208Z" fill="#A7A6A6"/>
<path d="M67.9955 224.45C69.1964 224.159 70.3455 223.686 71.4025 223.046L80.1806 217.731C84.3594 215.201 89.6983 218.21 89.6983 223.095V223.095C89.6983 225.959 91.6395 228.46 94.4145 229.169L108.088 232.667L125.572 235.012C132.846 235.988 138.849 241.182 140.86 248.24V248.24C144.018 259.325 156.447 264.803 166.871 259.884C173.462 256.773 178.956 254.307 179.769 254.307C180.456 254.307 182.573 251.269 185.154 247.088C191.543 236.739 187.409 223.277 176.705 217.502L142.732 199.173C136.012 195.548 127.905 195.694 121.247 199.433C118.017 201.248 115.684 202.511 116.344 201.996V201.996C124.665 195.506 108.302 183.555 97.7503 183.555H91.07C88.6705 183.555 86.2871 183.948 84.0143 184.717L68.8118 189.865C62.3963 192.037 57.4826 197.26 55.705 203.796L54.216 209.271C53.7463 210.997 52.6069 212.465 51.0506 213.349V213.349C47.2404 215.511 46.4876 220.684 49.5233 223.843L50.4122 224.768C52.3132 226.746 55.1219 227.566 57.7885 226.921L67.9955 224.45Z" fill="#62AB60"/>
<path d="M67.6443 215.126C71.5479 214.179 75.4236 216.783 76.0219 220.755L76.1183 221.396C76.9839 227.143 84.3393 229.017 87.8487 224.383V224.383C90.5709 220.789 96.0221 220.943 98.5364 224.686L107.056 237.368C112.703 245.774 124.751 246.623 131.521 239.092V239.092C137.242 232.729 147.029 232.184 153.419 237.874L166.06 249.128C172.767 255.099 183.019 254.156 179.105 246.074C177.852 243.488 176.569 241.604 177.161 241.604C177.659 241.604 178.967 242.139 180.658 242.582C188.692 244.688 189.347 234.202 184.6 227.387L178.575 218.74C172.037 209.355 158.24 202.655 147.014 200.461C133.129 197.747 117.431 193.429 118.183 192.841C118.808 192.353 115.79 185.638 112.536 178.359C110.396 173.571 99.7356 173.278 97.6038 178.069V178.069C95.2298 183.404 89.1641 186.032 83.6479 184.114L77.1467 181.854C70.3381 179.487 63.0258 183.764 61.7523 190.859L60.8136 196.089C60.2099 199.452 57.0317 201.718 53.6555 201.193V201.193C46.2734 200.044 43.4018 210.431 50.3256 213.237L57.58 216.177C58.9766 216.743 60.5155 216.856 61.9799 216.501L67.6443 215.126Z" fill="#72BE70"/>
</svg>
