<svg width="55" height="55" viewBox="0 0 55 55" fill="none" xmlns="http://www.w3.org/2000/svg">
<g opacity="0.2">
<path fill-rule="evenodd" clip-rule="evenodd" d="M13.75 0H41.25C43.0734 0 44.822 0.724328 46.1114 2.01364C47.4007 3.30295 48.125 5.05164 48.125 6.875V48.125C48.125 49.9484 47.4007 51.697 46.1114 52.9864C44.822 54.2757 43.0734 55 41.25 55H13.75C11.9266 55 10.178 54.2757 8.88864 52.9864C7.59933 51.697 6.875 49.9484 6.875 48.125V6.875C6.875 5.05164 7.59933 3.30295 8.88864 2.01364C10.178 0.724328 11.9266 0 13.75 0V0ZM13.75 3.4375C12.8383 3.4375 11.964 3.79966 11.3193 4.44432C10.6747 5.08898 10.3125 5.96332 10.3125 6.875V41.25L17.9575 33.605C18.2284 33.3347 18.5818 33.1626 18.9616 33.1159C19.3415 33.0692 19.726 33.1506 20.0544 33.3472L27.5 37.8125L34.9147 27.4312C35.0598 27.2284 35.2473 27.0595 35.4642 26.9363C35.6811 26.8132 35.9222 26.7387 36.1708 26.7181C36.4194 26.6975 36.6695 26.7312 36.9037 26.817C37.1379 26.9027 37.3507 27.0384 37.5272 27.2147L44.6875 34.375V6.875C44.6875 5.96332 44.3253 5.08898 43.6807 4.44432C43.036 3.79966 42.1617 3.4375 41.25 3.4375H13.75Z" fill="#61E45A"/>
<path fill-rule="evenodd" clip-rule="evenodd" d="M22.3505 24.0625C23.0276 24.0625 23.6981 23.9291 24.3237 23.67C24.9493 23.4109 25.5177 23.0311 25.9965 22.5523C26.4753 22.0735 26.8551 21.505 27.1142 20.8795C27.3733 20.2539 27.5067 19.5834 27.5067 18.9062C27.5067 18.2291 27.3733 17.5586 27.1142 16.933C26.8551 16.3075 26.4753 15.739 25.9965 15.2602C25.5177 14.7814 24.9493 14.4016 24.3237 14.1425C23.6981 13.8834 23.0276 13.75 22.3505 13.75C20.9829 13.75 19.6714 14.2932 18.7044 15.2602C17.7375 16.2272 17.1942 17.5387 17.1942 18.9062C17.1942 20.2738 17.7375 21.5853 18.7044 22.5523C19.6714 23.5193 20.9829 24.0625 22.3505 24.0625Z" fill="#61E45A"/>
</g>
</svg>
