<svg width="784" height="584" viewBox="0 0 784 584" fill="none" xmlns="http://www.w3.org/2000/svg">
<path d="M392 584C559.905 584 696.02 576.056 696.02 566.256C696.02 556.456 559.905 548.511 392 548.511C224.095 548.511 87.9805 556.456 87.9805 566.256C87.9805 576.056 224.095 584 392 584Z" fill="#FBFBFB"/>
<path d="M547.624 169.967L532.069 163.697C532.069 163.697 511.544 201.114 505.664 203.011C497.668 205.582 481.109 212.73 471.294 213.984C469.961 215.551 467.781 220.426 467.985 222.198C481.172 226.602 510.149 220.755 516.358 216.147C530.486 205.691 547.624 169.967 547.624 169.967Z" fill="#E58A7B"/>
<path d="M552.406 161.456C555.307 172.162 539.596 193.7 539.596 193.7L519.008 182.163C519.008 182.163 522.865 173.306 527.569 164.293C535.111 149.73 549.098 149.244 552.406 161.456Z" fill="#4CAF4F"/>
<path opacity="0.2" d="M552.406 161.456C555.307 172.162 539.596 193.7 539.596 193.7L519.008 182.163C519.008 182.163 522.865 173.306 527.569 164.293C535.111 149.73 549.098 149.244 552.406 161.456Z" fill="black"/>
<path opacity="0.2" d="M527.177 186.771L535.284 191.317L536.711 166.44C531.991 170.061 528.667 180.971 527.177 186.771Z" fill="black"/>
<path d="M538.859 153.399C538.859 153.399 522.834 189.044 532.179 255.414H595.323C596.326 245.726 593.002 198.45 605.028 152.803C598.102 151.45 591.093 150.554 584.049 150.123C575.113 149.605 566.155 149.605 557.22 150.123C551.026 150.751 544.888 151.847 538.859 153.399Z" fill="#4CAF4F"/>
<path opacity="0.2" d="M538.859 153.399C538.859 153.399 522.834 189.044 532.179 255.414H595.323C596.326 245.726 593.002 198.45 605.028 152.803C598.102 151.45 591.093 150.554 584.049 150.123C575.113 149.605 566.155 149.605 557.22 150.123C551.026 150.751 544.888 151.847 538.859 153.399Z" fill="black"/>
<g style="mix-blend-mode:multiply">
<path d="M524.214 567.666C524.12 569.359 548.063 570.723 577.683 570.723C607.302 570.723 631.418 569.359 631.512 567.666C631.606 565.974 607.678 564.625 578.043 564.625C548.408 564.625 524.324 565.989 524.214 567.666Z" fill="#E8ECF1"/>
</g>
<path d="M566.363 523.184L555.163 527.518L564.81 552.432L576.01 548.098L566.363 523.184Z" fill="#E58A7B"/>
<path d="M616.302 555.612H604.495L600.168 528.29H611.975L616.302 555.612Z" fill="#E58A7B"/>
<path d="M603.68 554.248H616.945C617.175 554.249 617.398 554.331 617.573 554.48C617.748 554.63 617.865 554.836 617.902 555.063L619.611 565.55C619.647 565.813 619.626 566.081 619.549 566.335C619.473 566.589 619.342 566.824 619.166 567.023C618.991 567.223 618.774 567.382 618.532 567.49C618.289 567.598 618.026 567.653 617.761 567.65C613.135 567.572 610.909 567.29 605.076 567.29C601.485 567.29 594.1 567.666 589.113 567.666C584.127 567.666 583.798 562.775 585.852 562.321C595.072 560.33 598.647 557.618 601.72 554.985C602.262 554.509 602.959 554.247 603.68 554.248Z" fill="#263238"/>
<path d="M564.48 550.204L577.024 546.536C577.248 546.473 577.487 546.488 577.7 546.579C577.914 546.671 578.091 546.832 578.2 547.037L582.904 556.443C583.013 556.681 583.069 556.941 583.068 557.203C583.066 557.466 583.007 557.725 582.895 557.962C582.783 558.199 582.621 558.409 582.419 558.577C582.218 558.745 581.982 558.867 581.728 558.935C577.165 560.189 574.108 560.957 568.4 562.619C564.464 563.763 560.45 565.628 556.562 566.867C553.865 567.729 547.53 567.76 544.253 567.76C539.408 567.76 538.326 562.65 540.411 562.415C545.664 561.835 546.37 562.101 549.27 560.644C554.017 558.569 558.319 555.6 561.94 551.897C562.623 551.119 563.499 550.535 564.48 550.204Z" fill="#263238"/>
<path d="M473.269 213.921L460.286 208.482L454.94 222.872C460.261 223.682 465.674 223.682 470.996 222.872L473.269 213.921Z" fill="#E58A7B"/>
<path d="M450.628 208.105L450.283 217.667L454.94 222.84L460.286 208.45L450.628 208.105Z" fill="#E58A7B"/>
<path d="M567.899 525.3L556.665 529.636L561.64 542.519L572.874 538.183L567.899 525.3Z" fill="#CF6F64"/>
<path d="M611.975 528.29H600.168L602.41 542.382H614.217L611.975 528.29Z" fill="#CF6F64"/>
<path opacity="0.2" d="M530.172 237.465C530.407 240.302 530.674 243.202 531.019 246.181L577.965 230.944C585.296 228.772 591.668 224.166 596.028 217.887C596.216 213.701 596.451 209.297 596.812 204.704C596.969 202.478 597.157 200.189 597.361 197.869C597.565 195.549 597.847 192.979 598.145 190.502L530.172 237.465Z" fill="black"/>
<path d="M583.171 119.916C580.96 128.553 578.357 144.37 584.049 150.122C584.049 150.122 580.066 158.885 564.025 158.885C549.364 158.885 557.22 150.122 557.22 150.122C566.973 147.834 567.146 140.717 565.86 133.977L583.171 119.916Z" fill="#E58A7B"/>
<path d="M576.114 125.653L565.875 133.977C566.193 135.526 566.376 137.099 566.424 138.68C569.419 141.658 575.425 134.118 576.036 130.262C576.347 128.744 576.373 127.181 576.114 125.653Z" fill="#CF6F64"/>
<path d="M548.267 119.806C548.979 121.041 549.939 122.115 551.085 122.962C552.232 123.809 553.541 124.41 554.931 124.728C558.694 125.559 560.576 122.095 559.541 118.615C558.616 115.48 555.527 111.263 551.701 111.984C550.881 112.153 550.114 112.516 549.464 113.042C548.813 113.568 548.298 114.242 547.962 115.008C547.626 115.774 547.478 116.609 547.531 117.444C547.584 118.279 547.836 119.089 548.267 119.806Z" fill="#CF6F64"/>
<path d="M554.492 92.171C548.628 94.8515 546.558 118.145 553.927 121.594C561.297 125.042 565.593 87.0765 554.492 92.171Z" fill="#263238"/>
<path d="M584.958 106.921C583.547 118.615 583.39 125.497 577.118 131.485C575.175 133.472 572.72 134.883 570.024 135.563C567.329 136.243 564.498 136.166 561.844 135.339C559.19 134.511 556.816 132.967 554.985 130.876C553.153 128.786 551.935 126.229 551.466 123.49C549.568 112.988 552.187 95.6353 563.916 90.9797C566.38 89.893 569.09 89.4851 571.765 89.7982C574.44 90.1113 576.983 91.1339 579.129 92.7602C581.276 94.3865 582.948 96.5571 583.973 99.0471C584.998 101.537 585.338 104.256 584.958 106.921Z" fill="#E58A7B"/>
<path d="M565.687 98.2214C574.374 96.0112 580.756 94.5064 578.467 101.733C575.44 111.389 571.803 120.731 576.679 121.154C579.658 121.421 592.829 115.841 591.152 110.182C589.693 105.26 595.856 103.912 596.953 101.419C601.014 92.3902 589.396 93.5815 591.465 88.0952C593.535 82.6088 575.93 75.0824 569.658 79.4872C562.364 80.2164 563.093 78.0287 548.506 88.0951C535.836 95.055 546.181 103.222 565.687 98.2214Z" fill="#263238"/>
<path d="M589.568 119.806C587.853 122.287 585.277 124.041 582.339 124.728C578.467 125.559 576.977 122.095 578.435 118.615C579.737 115.48 583.312 111.263 587.012 111.984C590.713 112.705 591.559 116.734 589.568 119.806Z" fill="#E58A7B"/>
<path d="M532.179 255.414C532.179 255.414 521.58 350.249 520.749 386.24C519.902 423.673 556.671 540.469 556.671 540.469L575.487 532.632C575.487 532.632 553.535 425.914 556.671 389.155C559.996 349.074 573.731 255.476 573.731 255.476L532.179 255.414Z" fill="#4CAF4F"/>
<path opacity="0.2" d="M558.522 281.45C550.07 298.975 555.762 333.633 560.34 354.168C562.081 339.668 564.151 323.93 566.111 309.368C565.923 286.984 564.182 269.694 558.522 281.45Z" fill="black"/>
<path d="M574.656 526.424C574.75 526.424 576.883 532.412 576.883 532.412L555.182 541.535L551.764 535.171L574.656 526.424Z" fill="#4CAF4F"/>
<path d="M554.586 255.414C554.586 255.414 562.692 345.609 568.055 379.39C573.951 416.399 597.063 539.654 597.063 539.654H618.686C618.686 539.654 605.734 419.393 603.288 382.744C600.622 342.992 595.323 255.414 595.323 255.414H554.586Z" fill="#4CAF4F"/>
<path d="M619.015 534.027C619.109 534.027 619.736 540.062 619.736 540.062H595.965L594.272 533.133L619.015 534.027Z" fill="#4CAF4F"/>
<path opacity="0.2" d="M610.736 526.879C610.687 526.88 610.639 526.863 610.602 526.831C610.564 526.799 610.54 526.755 610.532 526.707C610.407 525.609 598.725 416.979 596.53 384.061C594.147 348.353 589.348 269.145 589.301 268.346C589.299 268.32 589.303 268.294 589.311 268.269C589.319 268.244 589.333 268.222 589.351 268.203C589.368 268.183 589.39 268.168 589.414 268.158C589.438 268.147 589.464 268.142 589.49 268.142C589.541 268.142 589.591 268.161 589.629 268.196C589.666 268.231 589.689 268.279 589.693 268.33C589.693 269.13 594.539 348.274 596.922 384.045C599.117 416.964 610.799 525.515 610.908 526.691C610.913 526.717 610.912 526.743 610.905 526.769C610.899 526.794 610.887 526.818 610.871 526.839C610.855 526.86 610.834 526.877 610.811 526.889C610.788 526.901 610.762 526.909 610.736 526.91V526.879Z" fill="black"/>
<path d="M611.097 168.227L594.789 163.885C594.789 163.885 578.796 203.246 573.135 205.801C565.452 209.312 545.993 221.476 537.714 227.229C537.26 229.189 537.62 234.377 538.655 235.804C552.767 233.233 579.784 222.84 585.428 217.558C598.302 205.503 611.097 168.227 611.097 168.227Z" fill="#E58A7B"/>
<path d="M599.713 556.317C598.917 556.38 598.124 556.164 597.471 555.706C597.269 555.524 597.118 555.292 597.032 555.034C596.947 554.775 596.931 554.499 596.985 554.233C596.994 554.066 597.049 553.905 597.143 553.767C597.237 553.629 597.366 553.519 597.518 553.449C598.835 552.775 602.52 555.11 602.943 555.377C602.99 555.405 603.025 555.448 603.045 555.499C603.065 555.55 603.068 555.606 603.053 555.659C603.039 555.714 603.012 555.764 602.974 555.805C602.935 555.846 602.887 555.877 602.833 555.894C601.811 556.145 600.765 556.287 599.713 556.317ZM598.145 553.872C598.026 553.846 597.903 553.846 597.784 553.872C597.724 553.902 597.674 553.95 597.641 554.008C597.607 554.067 597.592 554.134 597.596 554.201C597.554 554.384 597.561 554.574 597.616 554.753C597.671 554.931 597.773 555.093 597.91 555.22C598.521 555.769 600.058 555.831 602.081 555.439C600.876 554.646 599.52 554.113 598.098 553.872H598.145Z" fill="#4CAF4F"/>
<path d="M602.755 555.894C602.714 555.908 602.67 555.908 602.629 555.894C601.453 555.236 599.243 552.649 599.572 551.333C599.621 551.124 599.739 550.938 599.907 550.804C600.075 550.671 600.282 550.597 600.497 550.596C600.707 550.568 600.921 550.586 601.124 550.648C601.327 550.71 601.515 550.815 601.673 550.957C602.974 552.07 603.053 555.487 603.053 555.659C603.06 555.711 603.051 555.763 603.025 555.809C603 555.854 602.96 555.89 602.912 555.91C602.859 555.921 602.804 555.915 602.755 555.894ZM600.654 551.113H600.544C600.183 551.113 600.136 551.317 600.121 551.395C599.933 552.164 601.328 554.123 602.488 555.048C602.483 553.724 602.073 552.433 601.312 551.348C601.13 551.19 600.895 551.106 600.654 551.113Z" fill="#4CAF4F"/>
<path d="M558.083 554.358C557.123 554.692 556.079 554.692 555.119 554.358C554.901 554.24 554.716 554.069 554.582 553.861C554.448 553.652 554.368 553.414 554.351 553.166C554.331 553.011 554.351 552.854 554.408 552.709C554.466 552.563 554.559 552.435 554.68 552.336C555.934 551.207 561.062 552.336 561.642 552.555C561.697 552.569 561.746 552.602 561.78 552.647C561.814 552.693 561.832 552.749 561.83 552.806C561.832 552.865 561.817 552.923 561.787 552.973C561.756 553.023 561.711 553.063 561.658 553.088C560.503 553.609 559.307 554.034 558.083 554.358ZM555.527 552.492C555.347 552.528 555.18 552.609 555.041 552.728C554.991 552.765 554.952 552.816 554.93 552.874C554.908 552.932 554.903 552.996 554.915 553.057C554.925 553.221 554.977 553.381 555.064 553.52C555.152 553.66 555.273 553.775 555.417 553.856C556.248 554.295 558.177 553.95 560.67 552.9C558.99 552.477 557.252 552.339 555.527 552.492Z" fill="#4CAF4F"/>
<path d="M561.611 553.088H561.485C559.917 552.806 556.781 551.003 556.687 549.655C556.687 549.342 556.828 548.903 557.581 548.652C557.835 548.561 558.105 548.523 558.374 548.539C558.644 548.555 558.907 548.626 559.149 548.746C560.842 549.577 561.736 552.586 561.783 552.728C561.794 552.775 561.793 552.824 561.779 552.871C561.765 552.918 561.74 552.96 561.705 552.994C561.681 553.032 561.649 553.065 561.611 553.088ZM557.894 549.122H557.738C557.252 549.295 557.252 549.498 557.252 549.561C557.252 550.376 559.525 551.865 561.109 552.367C560.744 551.108 559.972 550.005 558.914 549.232C558.599 549.072 558.236 549.033 557.894 549.122Z" fill="#4CAF4F"/>
<path d="M539.047 226.305L522.693 233.829L520.796 238.531L526.832 242.591C526.832 242.591 538.122 241.369 541.336 234.111L539.047 226.305Z" fill="#E58A7B"/>
<path d="M539.737 236.07C539.371 232.929 538.334 229.903 536.695 227.198L539.282 225.254C541.228 228.371 542.47 231.875 542.92 235.522L539.737 236.07Z" fill="#263238"/>
<path d="M542.528 228.531C542.874 229.074 543.044 229.711 543.014 230.355C542.985 230.998 542.758 231.617 542.365 232.127C541.971 232.638 541.43 233.014 540.815 233.206C540.2 233.398 539.541 233.395 538.927 233.199C538.313 233.003 537.774 232.622 537.385 232.11C536.995 231.597 536.772 230.976 536.748 230.332C536.723 229.689 536.898 229.053 537.247 228.512C537.597 227.971 538.105 227.55 538.702 227.308C539.372 226.967 540.15 226.904 540.867 227.133C541.583 227.362 542.18 227.864 542.528 228.531Z" fill="#263238"/>
<path d="M511.638 239.911L513.818 242.105L528.494 235.835L522.693 233.829L511.638 239.911Z" fill="#E58A7B"/>
<path opacity="0.2" d="M574.656 526.424C574.75 526.424 576.883 532.412 576.883 532.412L555.182 541.535L551.764 535.171L574.656 526.424Z" fill="black"/>
<path opacity="0.2" d="M619.015 534.027C619.109 534.027 619.736 540.062 619.736 540.062H595.965L594.272 533.133L619.015 534.027Z" fill="black"/>
<path d="M615.346 163.713C619.658 177.617 602.802 196.631 602.802 196.631L579.517 187.132C582.277 179.095 585.459 171.21 589.051 163.509C596.201 148.1 610.987 149.684 615.346 163.713Z" fill="#4CAF4F"/>
<path opacity="0.2" d="M615.346 163.713C619.658 177.617 602.802 196.631 602.802 196.631L579.517 187.132C582.277 179.095 585.459 171.21 589.051 163.509C596.201 148.1 610.987 149.684 615.346 163.713Z" fill="black"/>
<path d="M383.972 24.4062H373.952V26.0208H383.972V24.4062Z" fill="#4CAF4F"/>
<path d="M513.674 88.309L512.461 115.212L514.075 115.285L515.287 88.3817L513.674 88.309Z" fill="#4CAF4F"/>
<path d="M510.557 31.6484H325.533L308.316 416.823H493.34L510.557 31.6484Z" fill="#4CAF4F"/>
<path opacity="0.56" d="M505.037 36.9463H320.013L302.797 422.12H487.821L505.037 36.9463Z" fill="#FAFAFA"/>
<path opacity="0.07" d="M499.518 42.229H314.494L297.261 427.403H482.285L499.518 42.229Z" fill="#4CAF4F"/>
<path d="M449.458 99.2986C449.053 107.875 446.002 116.116 440.725 122.89C436.818 128.007 431.79 132.16 426.028 135.033C420.266 137.905 413.922 139.419 407.483 139.459C402.28 139.498 397.124 138.473 392.332 136.445C387.54 134.417 383.215 131.43 379.622 127.667C376.029 123.905 373.244 119.447 371.44 114.568C369.635 109.689 368.849 104.493 369.13 99.2986C369.681 88.5202 374.331 78.3596 382.127 70.8946C389.924 63.4296 400.278 59.2242 411.074 59.1384C416.281 59.0898 421.442 60.1092 426.24 62.1336C431.037 64.158 435.368 67.1444 438.966 70.9082C442.563 74.672 445.35 79.1332 447.155 84.0163C448.96 88.8994 449.744 94.1007 449.458 99.2986Z" fill="white"/>
<path d="M453.237 67.54C453.134 69.8205 452.323 72.0123 450.916 73.8101C449.875 75.1691 448.537 76.2724 447.004 77.0358C445.472 77.7992 443.785 78.2025 442.072 78.2149C440.413 78.225 438.777 77.8288 437.307 77.061C435.836 76.2932 434.576 75.177 433.637 73.8101C432.392 71.9631 431.777 69.7644 431.88 67.54C432.032 64.6783 433.27 61.9822 435.341 60.0015C437.413 58.0208 440.162 56.9047 443.029 56.8808C444.412 56.8682 445.783 57.1388 447.057 57.6759C448.331 58.213 449.482 59.0053 450.438 60.004C451.395 61.0026 452.136 62.1864 452.617 63.4825C453.099 64.7786 453.309 66.1594 453.237 67.54Z" fill="#4CAF4F"/>
<path d="M420.989 97.2068C427.552 90.7908 427.9 80.5067 421.766 74.2367C415.633 67.9666 405.341 68.085 398.778 74.501C392.215 80.917 391.867 91.201 398 97.4711C404.133 103.741 414.426 103.623 420.989 97.2068Z" fill="#4CAF4F"/>
<path d="M440.725 122.89C436.818 128.007 431.791 132.16 426.028 135.032C420.266 137.905 413.922 139.419 407.483 139.459C401.24 139.512 395.079 138.028 389.544 135.138C384.01 132.249 379.271 128.042 375.747 122.89C383.367 115.303 395.425 110.35 408.785 110.35C422.144 110.35 433.779 115.303 440.725 122.89Z" fill="#4CAF4F"/>
<path opacity="0.1" d="M420.989 97.2068C427.552 90.7908 427.9 80.5067 421.766 74.2367C415.633 67.9666 405.341 68.085 398.778 74.501C392.215 80.917 391.867 91.201 398 97.4711C404.133 103.741 414.426 103.623 420.989 97.2068Z" fill="white"/>
<path opacity="0.1" d="M440.725 122.89C436.818 128.007 431.791 132.16 426.028 135.032C420.266 137.905 413.922 139.419 407.483 139.459C401.24 139.512 395.079 138.028 389.544 135.138C384.01 132.249 379.271 128.042 375.747 122.89C383.367 115.303 395.425 110.35 408.785 110.35C422.144 110.35 433.779 115.303 440.725 122.89Z" fill="white"/>
<path d="M204.483 246.792C202.993 250.053 201.425 253.643 200.061 257.123C198.697 260.602 197.301 264.192 196.094 267.766C193.629 274.809 191.751 282.045 190.481 289.398L190.136 291.702C190.103 292.098 190.14 292.496 190.245 292.878C190.615 294.177 191.198 295.406 191.97 296.515C193.984 299.384 196.32 302.014 198.932 304.352C201.686 306.913 204.576 309.326 207.587 311.579C210.598 313.899 213.765 316.156 216.886 318.288L213.954 323.79C206.503 320.544 199.431 316.491 192.864 311.704C189.361 309.15 186.199 306.158 183.456 302.8C181.83 300.802 180.562 298.538 179.708 296.107C179.212 294.589 178.958 293.002 178.956 291.404C178.956 291.028 178.956 290.48 178.956 290.213V289.445L179.113 287.878C180.012 279.711 181.729 271.655 184.24 263.832C185.463 259.975 186.764 256.135 188.254 252.389C189.744 248.642 191.28 244.974 193.178 241.165L204.483 246.792Z" fill="#E58A7B"/>
<path d="M214.675 317.316L225.761 311.704L222.891 323.868C222.891 323.868 215.286 326 211.758 322.301L214.675 317.316Z" fill="#E58A7B"/>
<path d="M235.906 313.695L232.958 323.758L222.891 323.868L225.761 311.704L235.906 313.695Z" fill="#E58A7B"/>
<path d="M220.931 199.609C222.358 206.898 223.785 220.269 218.673 225.145C218.673 225.145 220.68 232.543 234.243 232.543C249.155 232.543 241.362 225.145 241.362 225.145C233.224 223.201 233.428 217.166 234.855 211.491L220.931 199.609Z" fill="#E58A7B"/>
<path d="M216.964 182.994C217.717 195.173 217.78 200.346 223.926 206.601C233.193 216.006 247.995 212.432 250.896 200.33C253.514 189.358 251.852 171.3 239.92 166.456C237.3 165.377 234.449 164.985 231.636 165.315C228.822 165.645 226.14 166.687 223.841 168.343C221.543 169.998 219.705 172.213 218.502 174.776C217.299 177.34 216.769 180.168 216.964 182.994Z" fill="#E58A7B"/>
<path d="M218.171 169.294C212.056 171.52 203.903 169.858 207.101 188.715C210.488 208.686 205.282 215.254 205.282 215.254C205.282 215.254 228.473 220.191 252.15 214.956C252.15 214.956 244.922 202.322 246.944 193.01C249.531 181.254 247.493 176.912 247.493 176.912C247.493 176.912 226.764 166.159 218.171 169.294Z" fill="#263238"/>
<path d="M244.043 189.342C244.05 191.658 244.713 193.925 245.956 195.879C247.619 198.418 249.578 197.446 250.065 194.75C250.504 192.383 250.174 188.198 248.058 186.567C245.941 184.937 244.075 186.536 244.043 189.342Z" fill="#E58A7B"/>
<path d="M212.856 171.347C211.1 166.409 219.473 158.807 237.191 161.942C254.91 165.077 255.678 179.827 255.678 179.827L252.103 175.564L252.26 180.047L234.055 183.542L212.856 171.347Z" fill="#263238"/>
<path d="M214.361 225.975C214.257 225.26 214.436 224.531 214.86 223.946C215.285 223.36 215.922 222.964 216.635 222.84C222.154 221.931 234.698 220.082 241.002 220.959C245.706 221.618 246.929 224.345 247.132 226.587C247.164 226.979 247.112 227.374 246.978 227.745C246.845 228.115 246.634 228.453 246.359 228.735C246.084 229.017 245.752 229.237 245.385 229.38C245.018 229.524 244.625 229.587 244.232 229.565L216.98 228.342C216.337 228.31 215.726 228.057 215.249 227.625C214.771 227.194 214.458 226.611 214.361 225.975Z" fill="#4CAF4F"/>
<path opacity="0.6" d="M214.361 225.975C214.257 225.26 214.436 224.531 214.86 223.946C215.285 223.36 215.922 222.964 216.635 222.84C222.154 221.931 234.698 220.082 241.002 220.959C245.706 221.618 246.929 224.345 247.132 226.587C247.164 226.979 247.112 227.374 246.978 227.745C246.845 228.115 246.634 228.453 246.359 228.735C246.084 229.017 245.752 229.237 245.385 229.38C245.018 229.524 244.625 229.587 244.232 229.565L216.98 228.342C216.337 228.31 215.726 228.057 215.249 227.625C214.771 227.194 214.458 226.611 214.361 225.975Z" fill="black"/>
<path d="M230.12 499.824L240.233 506.846L257.152 483.913L247.038 476.906L230.12 499.824Z" fill="#E58A7B"/>
<path d="M206.537 499.369L217.215 505.451L232.189 481.201L221.511 475.119L206.537 499.369Z" fill="#E58A7B"/>
<path d="M257.136 483.913L248.418 495.732L238.305 488.725L247.023 476.906L257.136 483.913Z" fill="#CF6F64"/>
<path d="M221.496 475.119L232.189 481.217L224.475 493.71L213.781 487.612L221.496 475.119Z" fill="#CF6F64"/>
<path d="M238.65 302.534C238.65 302.534 278.132 352.271 270.715 399.846C264.741 438.266 230.088 490.293 230.088 490.293L213.797 482.204C225.28 459.201 235.079 435.396 243.118 410.976C245.597 403.394 246.321 395.348 245.234 387.446C244.148 379.544 241.28 371.992 236.846 365.36C216.839 336.157 184.789 353.541 206.349 302.534H238.65Z" fill="#4CAF4F"/>
<path opacity="0.6" d="M238.65 302.534C238.65 302.534 278.132 352.271 270.715 399.846C264.741 438.266 230.088 490.293 230.088 490.293L213.797 482.204C225.28 459.201 235.079 435.396 243.118 410.976C245.597 403.394 246.321 395.348 245.234 387.446C244.148 379.544 241.28 371.992 236.846 365.36C216.839 336.157 184.789 353.541 206.349 302.534H238.65Z" fill="black"/>
<path opacity="0.4" d="M258.014 334.48L252.276 328.774C252.276 329.229 263.393 397.84 266.513 417.121C268.354 411.488 269.764 405.724 270.731 399.878C274.4 376.537 266.732 352.695 258.014 334.48Z" fill="black"/>
<path d="M256.274 302.534C256.274 302.534 303.816 365.047 305.164 402.527C306.277 433.877 253.42 494.619 253.42 494.619L238.054 484.681C238.054 484.681 268.99 441.543 276.783 406.304C273.773 371.38 210.112 302.534 210.112 302.534H256.274Z" fill="#4CAF4F"/>
<path opacity="0.6" d="M256.274 302.534C256.274 302.534 303.816 365.047 305.164 402.527C306.277 433.877 253.42 494.619 253.42 494.619L238.054 484.681C238.054 484.681 268.99 441.543 276.783 406.304C273.773 371.38 210.112 302.534 210.112 302.534H256.274Z" fill="black"/>
<path d="M197.458 227.935C192.378 229.142 187.501 247.607 187.501 247.607L207.368 260.869C207.368 260.869 213.985 246.259 211.664 239.864C209.265 233.202 203.84 226.414 197.458 227.935Z" fill="#4CAF4F"/>
<path opacity="0.2" d="M201.347 239.833L199.967 255.931L207.352 260.884C209.392 256.295 210.901 251.488 211.852 246.557L201.347 239.833Z" fill="black"/>
<path d="M262.154 228.296C262.154 228.296 268.018 230.349 256.274 302.518H206.317C207.164 282.14 207.18 269.6 197.458 227.935C204.453 226.494 211.543 225.561 218.673 225.145C226.227 224.603 233.809 224.603 241.362 225.145C251.115 226.038 262.154 228.296 262.154 228.296Z" fill="#4CAF4F"/>
<path d="M267.234 239.833C268.363 242.968 269.555 246.338 270.809 249.583C272.064 252.828 273.255 256.166 274.525 259.458L278.367 269.302L279.339 271.763L279.841 272.986L280.076 273.597C280.076 273.707 280.076 273.707 280.076 273.691C279.79 273.288 279.414 272.955 278.978 272.719C278.358 272.355 277.659 272.145 276.94 272.108C276.343 272.09 275.749 272.202 275.2 272.437C274.478 272.767 274.478 272.908 274.494 272.892C274.624 272.787 274.74 272.666 274.839 272.531C275.707 271.392 276.458 270.169 277.081 268.879C277.818 267.437 278.524 265.901 279.229 264.349C280.609 261.214 281.879 257.969 283.149 254.693C284.419 251.417 285.627 248.109 286.803 244.77L290.378 234.77L296.415 236.337C295.223 243.485 293.686 250.445 291.836 257.53C290.942 261.057 289.892 264.553 288.7 268.08C288.104 269.851 287.446 271.607 286.693 273.409C285.909 275.366 284.943 277.244 283.808 279.021C283.391 279.619 282.93 280.185 282.428 280.714C281.627 281.578 280.656 282.267 279.574 282.736C278.615 283.148 277.576 283.341 276.532 283.3C275.364 283.257 274.225 282.917 273.224 282.313C272.043 281.576 271.062 280.558 270.37 279.35C270.135 278.943 269.931 278.535 269.79 278.237L269.492 277.642L268.896 276.419L267.705 273.989C266.137 270.729 264.569 267.437 263.204 264.129C261.84 260.822 260.398 257.467 259.049 254.097C257.701 250.727 256.493 247.357 255.349 243.72L267.234 239.833Z" fill="#E58A7B"/>
<path d="M262.154 228.295C268.159 229.722 274.917 247.466 274.917 247.466L257.058 262.656C257.058 262.656 245.502 243.312 247.838 236.932C250.268 230.286 254.314 226.43 262.154 228.295Z" fill="#4CAF4F"/>
<path d="M293.216 229.157L299.488 223.922L303.847 230.709L300.633 236.368C300.633 236.368 295.521 241.071 291.005 238.672C290.288 237.062 290.116 235.262 290.515 233.544C290.914 231.827 291.862 230.287 293.216 229.157Z" fill="#E58A7B"/>
<path d="M310.809 223.938L310.339 225.646L300.413 227.308L299.441 223.922L310.809 223.938Z" fill="#E58A7B"/>
<path d="M254.643 495.419L236.737 483.85L239.951 478.27L260.068 490.638L254.643 495.419Z" fill="#4CAF4F"/>
<path d="M224.224 504.636C222.653 504.444 221.143 503.909 219.802 503.068C219.747 503.049 219.699 503.013 219.665 502.965C219.631 502.918 219.613 502.86 219.613 502.802C219.613 502.743 219.631 502.686 219.665 502.638C219.699 502.591 219.747 502.555 219.802 502.535C220.288 502.379 224.506 501.077 225.729 502.081C225.867 502.195 225.971 502.344 226.032 502.512C226.093 502.68 226.107 502.861 226.074 503.037C226.052 503.319 225.959 503.591 225.803 503.827C225.646 504.063 225.432 504.255 225.181 504.385C224.887 504.545 224.559 504.631 224.224 504.636ZM220.696 502.911C222.656 503.915 224.224 504.275 224.977 503.899C225.141 503.808 225.278 503.677 225.377 503.518C225.476 503.359 225.533 503.177 225.541 502.99C225.541 502.739 225.541 502.629 225.4 502.567C224.741 502.034 222.389 502.441 220.665 502.911H220.696Z" fill="#263238"/>
<path d="M219.912 503.178C219.829 503.177 219.75 503.143 219.692 503.084C219.669 503.04 219.657 502.992 219.657 502.943C219.657 502.894 219.669 502.845 219.692 502.802C219.692 502.661 220.712 499.259 222.311 498.491C222.515 498.398 222.737 498.35 222.962 498.35C223.186 498.35 223.408 498.398 223.612 498.491C223.833 498.56 224.023 498.702 224.154 498.892C224.285 499.082 224.348 499.311 224.334 499.541C224.224 500.952 221.354 502.896 220.037 503.225L219.912 503.178ZM222.954 498.898C222.801 498.903 222.652 498.941 222.515 499.008C221.543 499.478 220.743 501.312 220.351 502.425C221.731 501.845 223.628 500.309 223.691 499.447C223.691 499.306 223.691 499.134 223.33 498.977C223.213 498.914 223.086 498.871 222.954 498.851V498.898Z" fill="#263238"/>
<path d="M246.599 511.407C244.827 511.407 242.366 509.134 241.017 507.739C240.983 507.691 240.964 507.634 240.964 507.575C240.964 507.516 240.983 507.458 241.017 507.41C241.048 507.36 241.092 507.318 241.145 507.291C241.197 507.263 241.256 507.25 241.315 507.253C241.942 507.253 247.383 508.068 248.152 509.605C248.233 509.742 248.276 509.899 248.276 510.059C248.276 510.219 248.233 510.376 248.152 510.514C248.036 510.753 247.862 510.959 247.646 511.113C247.429 511.266 247.177 511.362 246.913 511.392L246.599 511.407ZM242.052 507.959C244.028 509.871 245.768 510.937 246.756 510.812C246.929 510.789 247.094 510.724 247.236 510.623C247.378 510.522 247.493 510.388 247.571 510.232C247.607 510.178 247.625 510.115 247.625 510.051C247.625 509.987 247.607 509.925 247.571 509.871C247.164 509.025 244.263 508.304 242.052 507.959Z" fill="#263238"/>
<path d="M242.225 507.881C241.873 507.891 241.521 507.864 241.174 507.802C241.126 507.795 241.08 507.775 241.042 507.745C241.003 507.715 240.973 507.675 240.955 507.63C240.931 507.584 240.919 507.533 240.919 507.481C240.919 507.429 240.931 507.378 240.955 507.332C241.049 507.222 243.165 504.667 245.173 504.495C245.741 504.451 246.304 504.631 246.741 504.996C247.352 505.529 247.321 506 247.164 506.297C246.772 507.363 244.059 507.881 242.225 507.881ZM241.817 507.301C243.573 507.395 246.38 506.815 246.741 506.047C246.741 506.047 246.866 505.796 246.458 505.451C246.296 505.31 246.107 505.204 245.902 505.139C245.697 505.074 245.48 505.053 245.267 505.075C243.915 505.452 242.711 506.234 241.817 507.316V507.301Z" fill="#263238"/>
<path d="M220.335 501.485L207.039 497.723C206.809 497.653 206.563 497.671 206.346 497.772C206.129 497.874 205.957 498.051 205.863 498.272L201.378 508.351C201.273 508.609 201.223 508.886 201.233 509.165C201.243 509.444 201.311 509.717 201.434 509.967C201.557 510.218 201.732 510.439 201.946 510.617C202.161 510.795 202.411 510.925 202.68 511C207.384 512.223 209.642 512.567 215.49 514.245C219.097 515.248 224.24 517.113 229.21 518.524C234.181 519.935 235.843 515.091 233.914 514.057C225.196 509.448 224.506 506.219 222.123 502.77C221.696 502.146 221.063 501.691 220.335 501.485Z" fill="#4CAF4F"/>
<path d="M241.378 505.905L230.026 498.068C229.833 497.927 229.596 497.863 229.359 497.886C229.122 497.909 228.902 498.018 228.74 498.193L221.213 506.282C221.03 506.491 220.893 506.736 220.812 507.002C220.731 507.268 220.707 507.548 220.743 507.824C220.779 508.1 220.873 508.365 221.019 508.602C221.165 508.839 221.359 509.041 221.59 509.197C225.588 511.878 227.658 512.959 232.66 516.423C235.796 518.555 241.864 523.289 246.098 526.236C250.331 529.183 253.483 525.139 251.978 523.54C245.235 516.345 243.761 511.831 242.648 507.739C242.455 506.997 242.005 506.347 241.378 505.905Z" fill="#4CAF4F"/>
<path d="M232.174 491.327L211.711 481.154L213.828 475.605L235.686 486.327L232.174 491.327Z" fill="#4CAF4F"/>
<path d="M205.565 299.587L203.84 304.101C203.667 304.446 204.075 304.807 204.655 304.807H256.525C256.979 304.807 257.356 304.587 257.387 304.305L257.826 299.822C257.826 299.524 257.466 299.258 256.979 299.258H206.38C206.228 299.243 206.074 299.266 205.932 299.323C205.79 299.38 205.664 299.471 205.565 299.587Z" fill="#4CAF4F"/>
<path opacity="0.4" d="M205.565 299.587L203.84 304.101C203.667 304.446 204.075 304.807 204.655 304.807H256.525C256.979 304.807 257.356 304.587 257.387 304.305L257.826 299.822C257.826 299.524 257.466 299.258 256.979 299.258H206.38C206.228 299.243 206.074 299.266 205.932 299.323C205.79 299.38 205.664 299.471 205.565 299.587Z" fill="white"/>
<path d="M213.734 305.246H212.37C212.103 305.246 211.899 305.105 211.915 304.932L212.558 299.117C212.558 298.96 212.809 298.819 213.075 298.819H214.44C214.706 298.819 214.91 298.96 214.894 299.117L214.251 304.932C214.236 305.105 214.001 305.246 213.734 305.246Z" fill="#4CAF4F"/>
<path d="M245.721 305.246H244.373C244.106 305.246 243.902 305.105 243.918 304.932L244.545 299.117C244.545 298.96 244.812 298.819 245.078 298.819H246.427C246.693 298.819 246.913 298.96 246.882 299.117L246.254 304.932C246.176 305.105 246.004 305.246 245.721 305.246Z" fill="#4CAF4F"/>
<g style="mix-blend-mode:multiply">
<path d="M212.542 570.708C235.742 570.708 254.549 569.346 254.549 567.667C254.549 565.987 235.742 564.625 212.542 564.625C189.343 564.625 170.536 565.987 170.536 567.667C170.536 569.346 189.343 570.708 212.542 570.708Z" fill="#F5F5F5"/>
</g>
<path d="M238.132 563.371C230.7 561.208 222.452 558.433 217.466 555.534C217.325 555.439 217.168 555.392 217.027 555.314V521.675H232.064C233.205 521.607 234.278 521.106 235.062 520.274C235.847 519.443 236.283 518.343 236.283 517.2C236.283 516.056 235.847 514.956 235.062 514.125C234.278 513.293 233.205 512.792 232.064 512.724H217.105V359.388H208.074V512.724H193.131C192.52 512.688 191.909 512.777 191.335 512.986C190.76 513.194 190.234 513.518 189.79 513.937C189.345 514.356 188.99 514.862 188.748 515.423C188.506 515.984 188.381 516.589 188.381 517.2C188.381 517.811 188.506 518.415 188.748 518.976C188.99 519.537 189.345 520.043 189.79 520.462C190.234 520.881 190.76 521.205 191.335 521.413C191.909 521.622 192.52 521.711 193.131 521.675H208.074V555.267C207.932 555.267 207.791 555.392 207.65 555.487C202.586 558.433 194.401 561.208 186.968 563.324C186.466 563.476 186.035 563.802 185.753 564.244C185.471 564.687 185.356 565.215 185.43 565.734C185.504 566.253 185.762 566.729 186.156 567.074C186.55 567.42 187.055 567.614 187.58 567.619H237.521C238.022 567.585 238.496 567.38 238.864 567.039C239.233 566.697 239.473 566.239 239.544 565.742C239.616 565.245 239.515 564.739 239.258 564.307C239.001 563.876 238.603 563.545 238.132 563.371Z" fill="#E0E0E0"/>
<path d="M240.437 343.775H184.679C180.193 343.775 176.557 347.411 176.557 351.895V368.464C176.557 372.948 180.193 376.584 184.679 376.584H240.437C244.923 376.584 248.559 372.948 248.559 368.464V351.895C248.559 347.411 244.923 343.775 240.437 343.775Z" fill="#4CAF4F"/>
<path d="M184.162 376.6V379.453C184.162 381.804 186.717 383.716 189.853 383.716H235.325C238.461 383.716 241.017 381.804 241.017 379.453V376.6H184.162Z" fill="#4CAF4F"/>
<path opacity="0.3" d="M184.162 376.6V379.453C184.162 381.804 186.717 383.716 189.853 383.716H235.325C238.461 383.716 241.017 381.804 241.017 379.453V376.6H184.162Z" fill="white"/>
<path d="M370.757 157.952C370.813 156.89 371.69 156.058 372.754 156.058H441.364C442.51 156.058 443.421 157.019 443.361 158.163L440.331 215.42C440.275 216.482 439.397 217.314 438.334 217.314H369.724C368.578 217.314 367.666 216.353 367.727 215.208L370.757 157.952Z" fill="#ECFFED"/>
<path d="M362.065 328.592C362.122 327.531 362.999 326.7 364.062 326.7H434.068C435.215 326.7 436.127 327.662 436.065 328.807L432.976 386.064C432.919 387.125 432.042 387.956 430.979 387.956H360.973C359.826 387.956 358.914 386.993 358.976 385.848L362.065 328.592Z" fill="#ECFFED"/>
<path d="M366.441 242.542C366.498 241.481 367.375 240.649 368.438 240.649H438.444C439.591 240.649 440.503 241.612 440.441 242.757L437.353 300.013C437.296 301.075 436.418 301.906 435.356 301.906H365.35C364.203 301.906 363.291 300.943 363.353 299.798L366.441 242.542Z" fill="#ECFFED"/>
</svg>
