<svg width="140" height="89" viewBox="0 0 140 89" fill="none" xmlns="http://www.w3.org/2000/svg">
<path d="M26.24 38.016L24.64 35.232C27.2427 32.0107 30.56 30.4 34.592 30.4C37.4293 30.4 39.616 31.0293 41.152 32.288C42.688 33.5253 43.456 35.2427 43.456 37.44V48H37.824V37.888C37.824 35.8187 36.7467 34.784 34.592 34.784C33.0133 34.784 31.712 35.2213 30.688 36.096L31.872 38.112V48H26.24V38.016ZM29.7382 25.44H45.0343V28.96H29.7382V25.44ZM56.2023 48.48C54.7943 48.48 53.5889 48.192 52.5863 47.616C51.5836 47.0187 50.8263 46.2187 50.3143 45.216C49.8023 44.192 49.5463 43.04 49.5463 41.76V30.88H55.1783V41.408C55.1783 42.304 55.4236 42.976 55.9143 43.424C56.4049 43.872 57.1089 44.096 58.0263 44.096C58.8156 44.096 59.4876 43.936 60.0423 43.616C60.5969 43.2747 61.0769 42.7627 61.4823 42.08V30.88H67.1143V48H61.7703V46.24C61.0663 46.944 60.2236 47.4987 59.2423 47.904C58.2609 48.288 57.2476 48.48 56.2023 48.48Z" fill="#277723"/>
<path d="M21.248 60.536L13.472 75.576V83H8V75.576L0.224 60.536H6.432L10.784 69.944L15.104 60.536H21.248ZM34.0768 83.224C31.9648 83.224 30.0234 82.7333 28.2528 81.752C26.5034 80.7707 25.1061 79.4053 24.0608 77.656C23.0367 75.8853 22.5247 73.9013 22.5247 71.704C22.5247 69.5067 23.0367 67.5333 24.0608 65.784C25.1061 64.0347 26.5034 62.6693 28.2528 61.688C30.0234 60.7067 31.9648 60.216 34.0768 60.216C36.1888 60.216 38.1194 60.7067 39.8688 61.688C41.6394 62.6693 43.0261 64.0347 44.0288 65.784C45.0528 67.5333 45.5648 69.5067 45.5648 71.704C45.5648 73.9013 45.0528 75.8853 44.0288 77.656C43.0048 79.4053 41.6181 80.7707 39.8688 81.752C38.1194 82.7333 36.1888 83.224 34.0768 83.224ZM34.0768 78.232C35.8688 78.232 37.2981 77.6347 38.3647 76.44C39.4528 75.2453 39.9968 73.6667 39.9968 71.704C39.9968 69.72 39.4528 68.1413 38.3647 66.968C37.2981 65.7733 35.8688 65.176 34.0768 65.176C32.2634 65.176 30.8128 65.7627 29.7248 66.936C28.6581 68.1093 28.1248 69.6987 28.1248 71.704C28.1248 73.688 28.6581 75.2773 29.7248 76.472C30.8128 77.6453 32.2634 78.232 34.0768 78.232ZM53.985 60.536V73.976C53.985 75.32 54.3157 76.3547 54.977 77.08C55.6383 77.8053 56.609 78.168 57.889 78.168C59.169 78.168 60.1503 77.8053 60.833 77.08C61.5157 76.3547 61.857 75.32 61.857 73.976V60.536H67.329V73.944C67.329 75.9493 66.9023 77.6453 66.049 79.032C65.1957 80.4187 64.0437 81.464 62.593 82.168C61.1637 82.872 59.5637 83.224 57.793 83.224C56.0223 83.224 54.433 82.8827 53.025 82.2C51.6383 81.496 50.5397 80.4507 49.729 79.064C48.9183 77.656 48.513 75.9493 48.513 73.944V60.536H53.985Z" fill="#277723"/>
<path d="M94.375 30.35C99.925 30.35 104.775 31.45 108.925 33.65C113.075 35.85 116.275 38.95 118.525 42.95C120.825 46.9 121.975 51.475 121.975 56.675C121.975 61.825 120.825 66.4 118.525 70.4C116.275 74.4 113.05 77.5 108.85 79.7C104.7 81.9 99.875 83 94.375 83H74.65V30.35H94.375ZM93.55 71.9C98.4 71.9 102.175 70.575 104.875 67.925C107.575 65.275 108.925 61.525 108.925 56.675C108.925 51.825 107.575 48.05 104.875 45.35C102.175 42.65 98.4 41.3 93.55 41.3H87.475V71.9H93.55Z" fill="#61E45A"/>
<path fill-rule="evenodd" clip-rule="evenodd" d="M108.925 33.65C104.775 31.45 99.925 30.35 94.375 30.35H74.65V83L87.475 59V41.3H93.55C98.4 41.3 102.175 42.65 104.875 45.35C106.664 47.1392 106 46.5 107.5 49L118.525 42.95C116.275 38.95 113.075 35.85 108.925 33.65Z" fill="#4DC247"/>
<circle cx="82.5" cy="17.5" r="4.5" fill="#277723"/>
<circle cx="96.5" cy="17.5" r="4.5" fill="#277723"/>
<circle cx="110.5" cy="17.5" r="4.5" fill="#277723"/>
<circle cx="110.5" cy="5.5" r="4.5" fill="#277723"/>
</svg>
