<svg width="25" height="25" viewBox="0 0 25 25" fill="none" xmlns="http://www.w3.org/2000/svg">
<path fill-rule="evenodd" clip-rule="evenodd" d="M24.4998 12.7838C24.4998 11.8975 24.4202 11.0452 24.2725 10.2271H12.5V15.0622H19.2271C18.9374 16.6247 18.0567 17.9485 16.7329 18.8348V21.9712H20.7726C23.1362 19.7951 24.4998 16.5906 24.4998 12.7838Z" fill="#4285F4"/>
<path fill-rule="evenodd" clip-rule="evenodd" d="M12.4998 24.9998C15.8747 24.9998 18.7042 23.8805 20.7724 21.9715L16.7327 18.8352C15.6134 19.5851 14.1816 20.0283 12.4998 20.0283C9.24416 20.0283 6.48853 17.8295 5.50559 14.875H1.32953V18.1136C3.38631 22.1987 7.61351 24.9998 12.4998 24.9998Z" fill="#34A853"/>
<path fill-rule="evenodd" clip-rule="evenodd" d="M5.50558 14.8752C5.25559 14.1252 5.11354 13.3241 5.11354 12.5003C5.11354 11.6764 5.25559 10.8753 5.50558 10.1253V6.88672H1.32952C0.482946 8.57419 0 10.4832 0 12.5003C0 14.5173 0.482946 16.4263 1.32952 18.1138L5.50558 14.8752Z" fill="#FBBC05"/>
<path fill-rule="evenodd" clip-rule="evenodd" d="M12.4998 4.9715C14.335 4.9715 15.9827 5.60217 17.2781 6.84079L20.8633 3.25562C18.6985 1.23861 15.869 0 12.4998 0C7.61351 0 3.38631 2.80109 1.32953 6.88624L5.50559 10.1248C6.48853 7.17032 9.24416 4.9715 12.4998 4.9715Z" fill="#EA4335"/>
</svg>
