<svg width="131" height="89" viewBox="0 0 131 89" fill="none" xmlns="http://www.w3.org/2000/svg">
<path d="M27.9923 40.0665L26.2708 37.053C29.0712 33.5662 32.6405 31.8228 36.9788 31.8228C40.0317 31.8228 42.3845 32.504 44.0372 33.8664C45.6898 35.2057 46.5162 37.0646 46.5162 39.443V50.8732H40.4563V39.9279C40.4563 37.688 39.2972 36.5681 36.9788 36.5681C35.2802 36.5681 33.88 37.0415 32.7782 37.9882L34.0522 40.1704V50.8732H27.9923V40.0665Z" fill="#277723"/>
<path d="M31.7563 26.4541H48.2143V30.2642H31.7563V26.4541Z" fill="#277723"/>
<path d="M60.2307 51.3928C58.7158 51.3928 57.4189 51.081 56.34 50.4576C55.2612 49.811 54.4463 48.9451 53.8954 47.8598C53.3445 46.7514 53.0691 45.5045 53.0691 44.119V32.3424H59.1289V43.738C59.1289 44.7078 59.3929 45.4352 59.9208 45.9201C60.4488 46.405 61.2063 46.6475 62.1933 46.6475C63.0426 46.6475 63.7656 46.4743 64.3624 46.1279C64.9592 45.7585 65.4757 45.2043 65.9118 44.4654V32.3424H71.9717V50.8732H66.2217V48.9682C65.4642 49.7302 64.5575 50.3306 63.5017 50.7693C62.4458 51.185 61.3555 51.3928 60.2307 51.3928Z" fill="#277723"/>
<path d="M22.6211 64.4423L14.2544 80.7217V88.7575H8.36672V80.7217L0 64.4423H6.6796L11.3622 74.6256L16.0104 64.4423H22.6211Z" fill="#277723"/>
<path d="M36.4244 89C34.152 89 32.0632 88.4689 30.158 87.4067C28.2758 86.3445 26.7723 84.8666 25.6475 82.9731C24.5458 81.0566 23.9949 78.9091 23.9949 76.5306C23.9949 74.1522 24.5458 72.0163 25.6475 70.1228C26.7723 68.2293 28.2758 66.7514 30.158 65.6892C32.0632 64.627 34.152 64.0959 36.4244 64.0959C38.6969 64.0959 40.7742 64.627 42.6564 65.6892C44.5616 66.7514 46.0536 68.2293 47.1324 70.1228C48.2342 72.0163 48.7851 74.1522 48.7851 76.5306C48.7851 78.9091 48.2342 81.0566 47.1324 82.9731C46.0307 84.8666 44.5386 86.3445 42.6564 87.4067C40.7742 88.4689 38.6969 89 36.4244 89ZM36.4244 83.5966C38.3526 83.5966 39.8905 82.9501 41.0382 81.6569C42.2088 80.3638 42.7941 78.6551 42.7941 76.5306C42.7941 74.3831 42.2088 72.6744 41.0382 71.4044C39.8905 70.1112 38.3526 69.4647 36.4244 69.4647C34.4733 69.4647 32.9125 70.0997 31.7418 71.3697C30.5941 72.6397 30.0203 74.3601 30.0203 76.5306C30.0203 78.6781 30.5941 80.3985 31.7418 81.6916C32.9125 82.9616 34.4733 83.5966 36.4244 83.5966Z" fill="#277723"/>
<path d="M57.845 64.4423V78.9899C57.845 80.4446 58.2008 81.5646 58.9124 82.3497C59.624 83.1348 60.6684 83.5273 62.0456 83.5273C63.4228 83.5273 64.4787 83.1348 65.2133 82.3497C65.9478 81.5646 66.315 80.4446 66.315 78.9899V64.4423H72.2027V78.9552C72.2027 81.1258 71.7437 82.9616 70.8255 84.4625C69.9073 85.9635 68.6678 87.095 67.107 87.857C65.569 88.619 63.8475 89 61.9423 89C60.0371 89 58.3271 88.6305 56.8121 87.8916C55.3201 87.1296 54.138 85.9981 53.2657 84.4972C52.3935 82.9732 51.9573 81.1258 51.9573 78.9552V64.4423H57.845Z" fill="#277723"/>
<path d="M101.303 31.7687C107.275 31.7687 112.493 32.9594 116.959 35.3407C121.424 37.722 124.867 41.0774 127.288 45.4071C129.763 49.6826 131 54.6346 131 60.2631C131 65.8375 129.763 70.7896 127.288 75.1192C124.867 79.4488 121.397 82.8043 116.878 85.1856C112.413 87.5669 107.221 88.7575 101.303 88.7575H80.0799V31.7687H101.303ZM100.416 76.7428C105.634 76.7428 109.696 75.3086 112.601 72.4402C115.506 69.5718 116.959 65.5128 116.959 60.2631C116.959 55.0134 115.506 50.9273 112.601 48.0048C109.696 45.0823 105.634 43.6211 100.416 43.6211H93.8792V76.7428H100.416Z" fill="#61E45A"/>
<path fill-rule="evenodd" clip-rule="evenodd" d="M116.959 35.3407C112.493 32.9594 107.275 31.7687 101.303 31.7687H80.0799V88.7575L93.8791 62.7797L93.8792 43.6211H100.416C105.634 43.6211 109.696 45.0823 112.601 48.0048C114.526 49.9415 113.811 49.2496 115.425 51.9556L127.288 45.4071C124.867 41.0774 121.424 37.722 116.959 35.3407Z" fill="#4DC247"/>
<path d="M93.3681 17.8597C93.3681 20.5498 91.2003 22.7306 88.5262 22.7306C85.8521 22.7306 83.6844 20.5498 83.6844 17.8597C83.6844 15.1697 85.8521 12.9889 88.5262 12.9889C91.2003 12.9889 93.3681 15.1697 93.3681 17.8597Z" fill="#277723"/>
<path d="M108.432 17.8597C108.432 20.5498 106.264 22.7306 103.59 22.7306C100.916 22.7306 98.7479 20.5498 98.7479 17.8597C98.7479 15.1697 100.916 12.9889 103.59 12.9889C106.264 12.9889 108.432 15.1697 108.432 17.8597Z" fill="#277723"/>
<path d="M123.495 17.8597C123.495 20.5498 121.327 22.7306 118.653 22.7306C115.979 22.7306 113.811 20.5498 113.811 17.8597C113.811 15.1697 115.979 12.9889 118.653 12.9889C121.327 12.9889 123.495 15.1697 123.495 17.8597Z" fill="#277723"/>
<path d="M123.495 4.87084C123.495 7.56093 121.327 9.74168 118.653 9.74168C115.979 9.74168 113.811 7.56093 113.811 4.87084C113.811 2.18075 115.979 0 118.653 0C121.327 0 123.495 2.18075 123.495 4.87084Z" fill="#277723"/>
</svg>
