<svg width="680" height="506" viewBox="0 0 680 506" fill="none" xmlns="http://www.w3.org/2000/svg">
<path d="M340 506C485.632 506 603.69 499.117 603.69 490.625C603.69 482.134 485.632 475.251 340 475.251C194.368 475.251 76.3096 482.134 76.3096 490.625C76.3096 499.117 194.368 506 340 506Z" fill="#F5F5F5"/>
<path d="M474.98 147.266L461.489 141.833C461.489 141.833 443.686 174.253 438.586 175.896C431.65 178.123 417.289 184.317 408.775 185.403C407.619 186.761 405.729 190.985 405.906 192.52C417.343 196.336 442.476 191.27 447.862 187.277C460.115 178.218 474.98 147.266 474.98 147.266Z" fill="#E58A7B"/>
<path d="M479.128 139.891C481.644 149.167 468.017 167.829 468.017 167.829L450.16 157.833C450.16 157.833 453.506 150.159 457.586 142.349C464.127 129.732 476.259 129.311 479.128 139.891Z" fill="#4CAF4F"/>
<path opacity="0.2" d="M479.128 139.891C481.644 149.167 468.017 167.829 468.017 167.829L450.16 157.833C450.16 157.833 453.506 150.159 457.586 142.349C464.127 129.732 476.259 129.311 479.128 139.891Z" fill="black"/>
<path opacity="0.2" d="M457.246 161.825L464.277 165.764L465.514 144.21C461.421 147.347 458.538 156.8 457.246 161.825Z" fill="black"/>
<path d="M467.378 132.91C467.378 132.91 453.479 163.795 461.584 221.3H516.351C517.222 212.907 514.339 171.944 524.77 132.394C518.762 131.222 512.683 130.446 506.573 130.072C498.823 129.623 491.053 129.623 483.303 130.072C477.931 130.617 472.607 131.565 467.378 132.91Z" fill="#4CAF4F"/>
<path opacity="0.2" d="M467.378 132.91C467.378 132.91 453.479 163.795 461.584 221.3H516.351C517.222 212.907 514.339 171.944 524.77 132.394C518.762 131.222 512.683 130.446 506.573 130.072C498.823 129.623 491.053 129.623 483.303 130.072C477.931 130.617 472.607 131.565 467.378 132.91Z" fill="black"/>
<g style="mix-blend-mode:multiply">
<path d="M454.675 491.848C454.594 493.315 475.361 494.496 501.051 494.496C526.742 494.496 547.658 493.315 547.74 491.848C547.822 490.381 527.068 489.213 501.364 489.213C475.66 489.213 454.77 490.395 454.675 491.848Z" fill="#E8ECF1"/>
</g>
<path d="M491.233 453.306L481.519 457.062L489.887 478.648L499.6 474.893L491.233 453.306Z" fill="#E58A7B"/>
<path d="M534.548 481.403H524.307L520.554 457.73H530.795L534.548 481.403Z" fill="#E58A7B"/>
<path d="M523.6 480.222H535.106C535.305 480.222 535.498 480.294 535.65 480.423C535.802 480.552 535.903 480.731 535.935 480.928L537.418 490.014C537.449 490.242 537.431 490.474 537.364 490.694C537.298 490.915 537.184 491.118 537.032 491.291C536.88 491.463 536.692 491.601 536.482 491.695C536.271 491.789 536.043 491.836 535.813 491.834C531.801 491.766 529.87 491.522 524.811 491.522C521.696 491.522 515.291 491.848 510.966 491.848C506.641 491.848 506.355 487.61 508.137 487.216C516.134 485.491 519.235 483.142 521.9 480.86C522.37 480.448 522.975 480.221 523.6 480.222Z" fill="#263238"/>
<path d="M489.6 476.718L500.48 473.54C500.674 473.485 500.881 473.499 501.067 473.578C501.252 473.657 501.405 473.797 501.5 473.975L505.58 482.124C505.675 482.33 505.723 482.555 505.722 482.783C505.721 483.01 505.67 483.234 505.572 483.44C505.475 483.646 505.334 483.828 505.16 483.973C504.985 484.119 504.78 484.225 504.56 484.283C500.602 485.37 497.95 486.035 493 487.475C489.586 488.466 486.105 490.082 482.732 491.155C480.393 491.902 474.898 491.93 472.056 491.93C467.854 491.93 466.915 487.502 468.724 487.298C473.28 486.796 473.892 487.027 476.408 485.763C480.525 483.966 484.256 481.393 487.397 478.185C487.989 477.511 488.749 477.005 489.6 476.718Z" fill="#263238"/>
<path d="M410.489 185.35L399.228 180.637L394.59 193.105C399.206 193.807 403.901 193.807 408.517 193.105L410.489 185.35Z" fill="#E58A7B"/>
<path d="M390.85 180.311L390.551 188.595L394.59 193.077L399.228 180.609L390.85 180.311Z" fill="#E58A7B"/>
<path d="M492.565 455.14L482.822 458.896L487.137 470.059L496.881 466.302L492.565 455.14Z" fill="#CF6F64"/>
<path d="M530.795 457.73H520.554L522.499 469.94H532.739L530.795 457.73Z" fill="#CF6F64"/>
<path opacity="0.2" d="M459.843 205.749C460.047 208.208 460.278 210.72 460.578 213.301L501.296 200.099C507.655 198.217 513.181 194.227 516.963 188.786C517.126 185.16 517.33 181.343 517.643 177.364C517.779 175.435 517.942 173.452 518.119 171.442C518.296 169.432 518.541 167.205 518.799 165.059L459.843 205.749Z" fill="black"/>
<path d="M505.811 103.899C503.894 111.383 501.636 125.087 506.573 130.071C506.573 130.071 503.118 137.664 489.206 137.664C476.49 137.664 483.303 130.071 483.303 130.071C491.762 128.088 491.912 121.922 490.797 116.082L505.811 103.899Z" fill="#E58A7B"/>
<path d="M499.691 108.871L490.811 116.083C491.086 117.425 491.245 118.788 491.287 120.157C493.884 122.738 499.093 116.205 499.623 112.864C499.893 111.549 499.916 110.195 499.691 108.871Z" fill="#CF6F64"/>
<path d="M475.538 103.805C476.156 104.875 476.988 105.805 477.982 106.539C478.977 107.273 480.112 107.794 481.318 108.07C484.582 108.789 486.214 105.788 485.316 102.773C484.514 100.056 481.834 96.4029 478.516 97.0276C477.805 97.1739 477.14 97.4881 476.576 97.9439C476.011 98.3997 475.565 98.9839 475.273 99.6476C474.981 100.311 474.853 101.035 474.899 101.758C474.945 102.482 475.164 103.183 475.538 103.805Z" fill="#CF6F64"/>
<path d="M480.937 79.8605C475.851 82.1829 474.055 102.365 480.447 105.353C486.839 108.341 490.566 75.4464 480.937 79.8605Z" fill="#263238"/>
<path d="M507.362 92.6408C506.138 102.773 506.002 108.735 500.562 113.923C498.876 115.645 496.747 116.868 494.409 117.457C492.071 118.047 489.615 117.979 487.314 117.262C485.012 116.546 482.953 115.208 481.364 113.396C479.776 111.585 478.72 109.37 478.312 106.997C476.667 97.8969 478.938 82.862 489.111 78.8282C491.248 77.8867 493.599 77.5333 495.919 77.8045C498.239 78.0758 500.444 78.9619 502.306 80.3709C504.168 81.78 505.619 83.6607 506.508 85.8182C507.397 87.9756 507.691 90.3312 507.362 92.6408Z" fill="#E58A7B"/>
<path d="M490.647 85.1027C498.182 83.1877 503.717 81.8838 501.731 88.145C499.107 96.5113 495.951 104.606 500.181 104.973C502.765 105.204 514.189 100.369 512.734 95.4655C511.469 91.2009 516.814 90.0329 517.766 87.8734C521.288 80.0503 511.211 81.0825 513.006 76.3289C514.801 71.5753 499.531 65.0541 494.091 68.8706C487.765 69.5024 488.398 67.6069 475.745 76.3289C464.756 82.3591 473.729 89.4353 490.647 85.1027Z" fill="#263238"/>
<path d="M511.36 103.805C509.873 105.954 507.638 107.474 505.09 108.07C501.731 108.789 500.439 105.788 501.704 102.773C502.833 100.056 505.934 96.4029 509.143 97.0276C512.353 97.6524 513.087 101.143 511.36 103.805Z" fill="#E58A7B"/>
<path d="M461.584 221.3C461.584 221.3 452.391 303.469 451.67 334.653C450.935 367.086 482.827 468.283 482.827 468.283L499.147 461.492C499.147 461.492 480.107 369.028 482.827 337.179C485.711 302.451 497.624 221.354 497.624 221.354L461.584 221.3Z" fill="#4CAF4F"/>
<path opacity="0.2" d="M484.432 243.86C477.102 259.044 482.039 289.073 486.01 306.865C487.519 294.302 489.315 280.666 491.015 268.049C490.851 248.654 489.342 233.673 484.432 243.86Z" fill="black"/>
<path d="M498.427 456.114C498.508 456.114 500.358 461.302 500.358 461.302L481.535 469.207L478.571 463.693L498.427 456.114Z" fill="#4CAF4F"/>
<path d="M481.019 221.3C481.019 221.3 488.05 299.449 492.701 328.718C497.815 360.784 517.861 467.577 517.861 467.577H536.615C536.615 467.577 525.382 363.378 523.26 331.624C520.948 297.181 516.351 221.3 516.351 221.3H481.019Z" fill="#4CAF4F"/>
<path d="M536.901 462.701C536.982 462.701 537.526 467.93 537.526 467.93H516.909L515.44 461.927L536.901 462.701Z" fill="#4CAF4F"/>
<path opacity="0.2" d="M529.72 456.508C529.677 456.508 529.636 456.493 529.604 456.466C529.571 456.439 529.55 456.4 529.543 456.358C529.434 455.408 519.302 361.286 517.398 332.765C515.331 301.826 511.17 233.197 511.129 232.505C511.127 232.482 511.13 232.46 511.137 232.438C511.144 232.417 511.156 232.397 511.171 232.381C511.187 232.364 511.205 232.351 511.226 232.342C511.247 232.333 511.269 232.328 511.292 232.328C511.337 232.328 511.38 232.345 511.412 232.375C511.445 232.405 511.465 232.447 511.469 232.491C511.469 233.184 515.671 301.758 517.738 332.751C519.642 361.273 529.774 455.326 529.87 456.345C529.873 456.367 529.873 456.39 529.867 456.412C529.861 456.434 529.851 456.455 529.837 456.473C529.823 456.491 529.805 456.506 529.785 456.516C529.765 456.527 529.743 456.533 529.72 456.535V456.508Z" fill="black"/>
<path d="M530.033 145.758L515.889 141.996C515.889 141.996 502.017 176.1 497.107 178.314C490.443 181.356 473.566 191.895 466.385 196.88C465.99 198.577 466.303 203.073 467.201 204.309C479.441 202.082 502.874 193.077 507.77 188.5C518.935 178.056 530.033 145.758 530.033 145.758Z" fill="#E58A7B"/>
<path d="M520.159 482.015C519.469 482.069 518.782 481.882 518.215 481.485C518.039 481.327 517.908 481.126 517.835 480.902C517.761 480.679 517.746 480.439 517.793 480.208C517.802 480.064 517.849 479.925 517.93 479.805C518.012 479.686 518.124 479.59 518.255 479.529C519.398 478.945 522.594 480.969 522.961 481.2C523.001 481.225 523.032 481.262 523.05 481.306C523.067 481.35 523.069 481.399 523.056 481.444C523.045 481.492 523.021 481.535 522.988 481.571C522.954 481.607 522.912 481.633 522.866 481.648C521.979 481.866 521.072 481.988 520.159 482.015ZM518.799 479.896C518.696 479.873 518.59 479.873 518.487 479.896C518.434 479.922 518.391 479.963 518.362 480.014C518.333 480.065 518.32 480.123 518.323 480.181C518.287 480.339 518.293 480.504 518.341 480.659C518.389 480.814 518.476 480.954 518.595 481.064C519.126 481.539 520.459 481.594 522.213 481.254C521.168 480.567 519.992 480.104 518.759 479.896H518.799Z" fill="#4CAF4F"/>
<path d="M522.798 481.648C522.762 481.659 522.724 481.659 522.689 481.648C521.669 481.077 519.751 478.836 520.037 477.695C520.08 477.515 520.182 477.353 520.328 477.238C520.473 477.122 520.653 477.058 520.839 477.057C521.022 477.033 521.208 477.048 521.384 477.102C521.56 477.156 521.722 477.247 521.859 477.37C522.988 478.334 523.056 481.295 523.056 481.444C523.063 481.489 523.054 481.534 523.032 481.574C523.01 481.613 522.975 481.644 522.934 481.661C522.888 481.671 522.841 481.666 522.798 481.648ZM520.975 477.505H520.88C520.567 477.505 520.527 477.682 520.513 477.75C520.35 478.415 521.56 480.113 522.567 480.914C522.562 479.767 522.206 478.649 521.547 477.709C521.389 477.572 521.185 477.499 520.975 477.505Z" fill="#4CAF4F"/>
<path d="M484.051 480.317C483.219 480.606 482.313 480.606 481.481 480.317C481.292 480.214 481.132 480.066 481.015 479.886C480.899 479.705 480.83 479.499 480.815 479.284C480.797 479.15 480.815 479.014 480.865 478.888C480.914 478.762 480.996 478.651 481.1 478.565C482.188 477.587 486.635 478.565 487.139 478.755C487.186 478.767 487.229 478.795 487.258 478.835C487.288 478.874 487.303 478.923 487.302 478.972C487.304 479.023 487.291 479.073 487.264 479.117C487.237 479.16 487.198 479.195 487.152 479.217C486.151 479.668 485.114 480.036 484.051 480.317ZM481.835 478.7C481.679 478.732 481.534 478.802 481.413 478.904C481.37 478.937 481.336 478.981 481.317 479.031C481.298 479.082 481.293 479.136 481.304 479.189C481.313 479.332 481.358 479.47 481.434 479.591C481.51 479.712 481.615 479.812 481.739 479.882C482.46 480.262 484.133 479.964 486.295 479.054C484.839 478.687 483.331 478.567 481.835 478.7Z" fill="#4CAF4F"/>
<path d="M487.111 479.217H487.002C485.642 478.972 482.922 477.41 482.841 476.242C482.841 475.971 482.963 475.591 483.616 475.373C483.837 475.295 484.071 475.262 484.304 475.276C484.538 475.29 484.766 475.351 484.976 475.455C486.445 476.175 487.22 478.782 487.261 478.904C487.27 478.946 487.269 478.988 487.257 479.029C487.245 479.069 487.223 479.106 487.193 479.135C487.173 479.169 487.145 479.197 487.111 479.217ZM483.888 475.781H483.752C483.33 475.93 483.33 476.107 483.33 476.161C483.33 476.867 485.302 478.157 486.676 478.592C486.36 477.501 485.69 476.546 484.772 475.876C484.499 475.737 484.184 475.703 483.888 475.781Z" fill="#4CAF4F"/>
<path d="M467.541 196.079L453.356 202.598L451.71 206.673L456.946 210.19C456.946 210.19 466.738 209.131 469.526 202.843L467.541 196.079Z" fill="#E58A7B"/>
<path d="M468.139 204.54C467.822 201.819 466.923 199.197 465.501 196.853L467.745 195.169C469.433 197.869 470.51 200.906 470.9 204.065L468.139 204.54Z" fill="#263238"/>
<path d="M470.56 198.008C470.86 198.479 471.007 199.03 470.982 199.588C470.957 200.146 470.76 200.682 470.419 201.124C470.077 201.566 469.608 201.892 469.074 202.058C468.541 202.224 467.969 202.222 467.436 202.052C466.904 201.882 466.437 201.553 466.099 201.108C465.761 200.664 465.568 200.126 465.547 199.569C465.525 199.011 465.677 198.46 465.98 197.991C466.283 197.522 466.724 197.158 467.242 196.948C467.823 196.652 468.498 196.598 469.119 196.796C469.74 196.994 470.258 197.43 470.56 198.008Z" fill="#263238"/>
<path d="M443.768 207.867L445.658 209.769L458.388 204.336L453.356 202.598L443.768 207.867Z" fill="#E58A7B"/>
<path opacity="0.2" d="M498.427 456.114C498.508 456.114 500.358 461.302 500.358 461.302L481.535 469.207L478.571 463.693L498.427 456.114Z" fill="black"/>
<path opacity="0.2" d="M536.901 462.701C536.982 462.701 537.526 467.93 537.526 467.93H516.909L515.44 461.927L536.901 462.701Z" fill="black"/>
<path d="M533.719 141.847C537.459 153.894 522.839 170.368 522.839 170.368L502.643 162.138C505.036 155.175 507.797 148.343 510.911 141.67C517.113 128.319 529.938 129.691 533.719 141.847Z" fill="#4CAF4F"/>
<path opacity="0.2" d="M533.719 141.847C537.459 153.894 522.839 170.368 522.839 170.368L502.643 162.138C505.036 155.175 507.797 148.343 510.911 141.67C517.113 128.319 529.938 129.691 533.719 141.847Z" fill="black"/>
<path d="M333.037 21.1465H324.346V22.5454H333.037V21.1465Z" fill="#4CAF4F"/>
<path d="M445.533 76.5145L444.481 99.8242L445.881 99.8872L446.933 76.5775L445.533 76.5145Z" fill="#4CAF4F"/>
<path d="M442.829 27.4209H282.349L267.417 361.151H427.897L442.829 27.4209Z" fill="#4CAF4F"/>
<path opacity="0.56" d="M438.042 32.0117H277.562L262.629 365.741H423.109L438.042 32.0117Z" fill="#FAFAFA"/>
<path opacity="0.07" d="M433.255 36.5889H272.775L257.829 370.319H418.309L433.255 36.5889Z" fill="#4CAF4F"/>
<path d="M389.836 86.036C389.485 93.4671 386.838 100.607 382.261 106.476C378.872 110.91 374.512 114.509 369.514 116.997C364.516 119.486 359.014 120.798 353.429 120.832C348.916 120.867 344.444 119.978 340.288 118.221C336.132 116.464 332.38 113.876 329.264 110.616C326.147 107.356 323.732 103.494 322.167 99.2663C320.602 95.039 319.92 90.5365 320.163 86.036C320.642 76.6973 324.674 67.8937 331.437 61.4258C338.199 54.9578 347.18 51.3141 356.543 51.2397C361.06 51.1977 365.537 52.0809 369.698 53.8349C373.859 55.5889 377.615 58.1764 380.736 61.4375C383.856 64.6986 386.273 68.564 387.838 72.7949C389.404 77.0259 390.084 81.5324 389.836 86.036Z" fill="white"/>
<path d="M393.113 58.5191C393.024 60.495 392.321 62.3941 391.1 63.9518C390.197 65.1293 389.037 66.0852 387.707 66.7466C386.378 67.408 384.915 67.7575 383.43 67.7683C381.991 67.777 380.572 67.4337 379.296 66.7685C378.021 66.1032 376.928 65.1361 376.113 63.9518C375.034 62.3514 374.5 60.4464 374.59 58.5191C374.721 56.0397 375.795 53.7037 377.592 51.9875C379.389 50.2714 381.773 49.3043 384.259 49.2836C385.459 49.2726 386.648 49.5071 387.753 49.9725C388.858 50.4379 389.856 51.1243 390.686 51.9896C391.515 52.8549 392.159 53.8806 392.576 55.0035C392.993 56.1265 393.176 57.3229 393.113 58.5191Z" fill="#4CAF4F"/>
<path d="M365.143 84.2239C370.835 78.6648 371.137 69.7543 365.817 64.3216C360.498 58.889 351.57 58.9915 345.878 64.5506C340.186 70.1097 339.884 79.0202 345.204 84.4528C350.523 89.8855 359.45 89.7829 365.143 84.2239Z" fill="#4CAF4F"/>
<path d="M382.261 106.477C378.873 110.91 374.512 114.509 369.514 116.998C364.516 119.486 359.014 120.798 353.429 120.833C348.014 120.878 342.67 119.593 337.87 117.089C333.069 114.586 328.96 110.941 325.903 106.477C332.512 99.9031 342.971 95.6113 354.558 95.6113C366.145 95.6113 376.236 99.9031 382.261 106.477Z" fill="#4CAF4F"/>
<path opacity="0.1" d="M365.143 84.2239C370.835 78.6648 371.137 69.7543 365.817 64.3216C360.498 58.889 351.57 58.9915 345.878 64.5506C340.186 70.1097 339.884 79.0202 345.204 84.4528C350.523 89.8855 359.45 89.7829 365.143 84.2239Z" fill="white"/>
<path opacity="0.1" d="M382.261 106.477C378.873 110.91 374.512 114.509 369.514 116.998C364.516 119.486 359.014 120.798 353.429 120.833C348.014 120.878 342.67 119.593 337.87 117.089C333.069 114.586 328.96 110.941 325.903 106.477C332.512 99.9031 342.971 95.6113 354.558 95.6113C366.145 95.6113 376.236 99.9031 382.261 106.477Z" fill="white"/>
<path d="M177.358 213.831C176.066 216.656 174.706 219.766 173.522 222.781C172.339 225.796 171.129 228.907 170.082 232.003C167.943 238.106 166.315 244.375 165.213 250.746L164.914 252.742C164.885 253.085 164.917 253.43 165.009 253.761C165.33 254.887 165.835 255.951 166.505 256.912C168.251 259.399 170.277 261.677 172.543 263.703C174.932 265.922 177.438 268.012 180.05 269.964C182.662 271.974 185.409 273.93 188.115 275.777L185.572 280.544C179.11 277.732 172.976 274.221 167.28 270.073C164.241 267.86 161.499 265.267 159.12 262.358C157.71 260.627 156.61 258.665 155.87 256.559C155.439 255.243 155.219 253.868 155.217 252.484C155.217 252.158 155.217 251.683 155.217 251.452V250.787L155.353 249.429C156.132 242.353 157.622 235.373 159.8 228.594C160.861 225.253 161.99 221.926 163.282 218.68C164.574 215.434 165.906 212.255 167.552 208.955L177.358 213.831Z" fill="#E58A7B"/>
<path d="M186.198 274.934L195.813 270.072L193.324 280.612C193.324 280.612 186.728 282.459 183.668 279.253L186.198 274.934Z" fill="#E58A7B"/>
<path d="M204.612 271.797L202.055 280.517L193.324 280.612L195.813 270.072L204.612 271.797Z" fill="#E58A7B"/>
<path d="M191.624 172.949C192.862 179.265 194.099 190.85 189.666 195.074C189.666 195.074 191.406 201.484 203.17 201.484C216.104 201.484 209.345 195.074 209.345 195.074C202.286 193.39 202.463 188.161 203.701 183.244L191.624 172.949Z" fill="#E58A7B"/>
<path d="M188.183 158.553C188.836 169.106 188.89 173.588 194.222 179.007C202.259 187.156 215.098 184.059 217.614 173.574C219.885 164.067 218.443 148.421 208.094 144.224C205.822 143.289 203.349 142.949 200.909 143.235C198.468 143.521 196.141 144.424 194.148 145.859C192.155 147.293 190.561 149.212 189.517 151.433C188.473 153.654 188.014 156.105 188.183 158.553Z" fill="#E58A7B"/>
<path d="M189.23 146.683C183.926 148.612 176.854 147.172 179.629 163.511C182.566 180.814 178.051 186.504 178.051 186.504C178.051 186.504 198.166 190.783 218.702 186.246C218.702 186.246 212.432 175.3 214.186 167.232C216.43 157.046 214.662 153.284 214.662 153.284C214.662 153.284 196.683 143.967 189.23 146.683Z" fill="#263238"/>
<path d="M211.67 164.054C211.676 166.061 212.251 168.024 213.33 169.718C214.771 171.918 216.471 171.076 216.893 168.74C217.274 166.689 216.988 163.063 215.152 161.65C213.316 160.238 211.698 161.623 211.67 164.054Z" fill="#E58A7B"/>
<path d="M184.62 148.462C183.097 144.184 190.359 137.596 205.727 140.313C221.095 143.029 221.761 155.81 221.761 155.81L218.661 152.115L218.797 156L203.007 159.028L184.62 148.462Z" fill="#263238"/>
<path d="M185.926 195.794C185.835 195.174 185.99 194.543 186.359 194.035C186.727 193.528 187.279 193.184 187.898 193.077C192.685 192.29 203.565 190.687 209.032 191.448C213.112 192.018 214.173 194.381 214.35 196.323C214.377 196.664 214.332 197.006 214.216 197.327C214.1 197.648 213.917 197.94 213.679 198.185C213.441 198.429 213.153 198.62 212.834 198.744C212.516 198.868 212.175 198.923 211.834 198.904L188.197 197.845C187.64 197.817 187.109 197.597 186.695 197.223C186.281 196.85 186.01 196.345 185.926 195.794Z" fill="#4CAF4F"/>
<path opacity="0.6" d="M185.926 195.794C185.835 195.174 185.99 194.543 186.359 194.035C186.727 193.528 187.279 193.184 187.898 193.077C192.685 192.29 203.565 190.687 209.032 191.448C213.112 192.018 214.173 194.381 214.35 196.323C214.377 196.664 214.332 197.006 214.216 197.327C214.1 197.648 213.917 197.94 213.679 198.185C213.441 198.429 213.153 198.62 212.834 198.744C212.516 198.868 212.175 198.923 211.834 198.904L188.197 197.845C187.64 197.817 187.109 197.597 186.695 197.223C186.281 196.85 186.01 196.345 185.926 195.794Z" fill="black"/>
<path d="M199.594 433.066L208.366 439.151L223.04 419.281L214.268 413.21L199.594 433.066Z" fill="#E58A7B"/>
<path d="M179.139 432.673L188.401 437.943L201.389 416.932L192.127 411.662L179.139 432.673Z" fill="#E58A7B"/>
<path d="M223.026 419.281L215.465 429.522L206.693 423.451L214.254 413.21L223.026 419.281Z" fill="#CF6F64"/>
<path d="M192.114 411.662L201.389 416.945L194.698 427.77L185.422 422.487L192.114 411.662Z" fill="#CF6F64"/>
<path d="M206.992 262.127C206.992 262.127 241.237 305.222 234.804 346.442C229.623 379.731 199.567 424.809 199.567 424.809L185.436 417.8C195.396 397.87 203.896 377.244 210.868 356.085C213.018 349.516 213.646 342.545 212.703 335.698C211.761 328.852 209.273 322.308 205.428 316.562C188.075 291.26 160.276 306.322 178.976 262.127H206.992Z" fill="#4CAF4F"/>
<path opacity="0.6" d="M206.992 262.127C206.992 262.127 241.237 305.222 234.804 346.442C229.623 379.731 199.567 424.809 199.567 424.809L185.436 417.8C195.396 397.87 203.896 377.244 210.868 356.085C213.018 349.516 213.646 342.545 212.703 335.698C211.761 328.852 209.273 322.308 205.428 316.562C188.075 291.26 160.276 306.322 178.976 262.127H206.992Z" fill="black"/>
<path opacity="0.4" d="M223.788 289.807L218.811 284.863C218.811 285.257 228.453 344.704 231.159 361.41C232.756 356.53 233.979 351.535 234.818 346.47C238 326.247 231.35 305.589 223.788 289.807Z" fill="black"/>
<path d="M222.278 262.127C222.278 262.127 263.513 316.291 264.683 348.765C265.649 375.928 219.803 428.557 219.803 428.557L206.475 419.946C206.475 419.946 233.308 382.57 240.067 352.038C237.456 321.778 182.24 262.127 182.24 262.127H222.278Z" fill="#4CAF4F"/>
<path opacity="0.6" d="M222.278 262.127C222.278 262.127 263.513 316.291 264.683 348.765C265.649 375.928 219.803 428.557 219.803 428.557L206.475 419.946C206.475 419.946 233.308 382.57 240.067 352.038C237.456 321.778 182.24 262.127 182.24 262.127H222.278Z" fill="black"/>
<path d="M171.265 197.492C166.859 198.537 162.629 214.537 162.629 214.537L179.86 226.027C179.86 226.027 185.599 213.369 183.587 207.827C181.506 202.055 176.8 196.174 171.265 197.492Z" fill="#4CAF4F"/>
<path opacity="0.2" d="M174.638 207.801L173.441 221.749L179.847 226.041C181.615 222.064 182.925 217.9 183.75 213.627L174.638 207.801Z" fill="black"/>
<path d="M227.378 197.804C227.378 197.804 232.465 199.584 222.278 262.114H178.949C179.683 244.458 179.697 233.592 171.265 197.492C177.332 196.243 183.481 195.435 189.665 195.074C196.217 194.605 202.793 194.605 209.345 195.074C217.804 195.849 227.378 197.804 227.378 197.804Z" fill="#4CAF4F"/>
<path d="M231.785 207.8C232.764 210.516 233.798 213.436 234.886 216.248C235.974 219.059 237.007 221.952 238.109 224.804L241.441 233.334L242.284 235.466L242.719 236.525L242.923 237.055C242.923 237.15 242.923 237.15 242.923 237.136C242.675 236.787 242.349 236.498 241.971 236.294C241.433 235.978 240.827 235.796 240.203 235.765C239.685 235.749 239.17 235.846 238.694 236.05C238.068 236.335 238.068 236.457 238.082 236.444C238.195 236.353 238.295 236.248 238.381 236.131C239.134 235.144 239.785 234.084 240.326 232.967C240.965 231.717 241.577 230.386 242.189 229.042C243.386 226.325 244.487 223.514 245.589 220.675C246.69 217.837 247.738 214.971 248.758 212.078L251.858 203.413L257.094 204.771C256.061 210.965 254.728 216.995 253.123 223.134C252.348 226.19 251.437 229.218 250.403 232.274C249.886 233.809 249.315 235.33 248.662 236.892C247.982 238.587 247.144 240.215 246.16 241.754C245.798 242.272 245.398 242.763 244.963 243.221C244.269 243.97 243.426 244.567 242.488 244.973C241.656 245.33 240.755 245.497 239.85 245.462C238.836 245.424 237.849 245.13 236.98 244.606C235.956 243.968 235.105 243.086 234.505 242.039C234.301 241.686 234.124 241.333 234.002 241.075L233.743 240.559L233.226 239.5L232.193 237.394C230.833 234.569 229.473 231.717 228.29 228.852C227.106 225.986 225.855 223.079 224.686 220.159C223.516 217.239 222.469 214.319 221.476 211.168L231.785 207.8Z" fill="#E58A7B"/>
<path d="M227.378 197.804C232.587 199.04 238.449 214.415 238.449 214.415L222.958 227.576C222.958 227.576 212.935 210.816 214.961 205.288C217.069 199.529 220.578 196.188 227.378 197.804Z" fill="#4CAF4F"/>
<path d="M254.32 198.551L259.76 194.015L263.541 199.896L260.753 204.799C260.753 204.799 256.319 208.873 252.402 206.795C251.781 205.4 251.632 203.84 251.978 202.352C252.324 200.864 253.146 199.53 254.32 198.551Z" fill="#E58A7B"/>
<path d="M269.579 194.028L269.171 195.509L260.562 196.948L259.719 194.015L269.579 194.028Z" fill="#E58A7B"/>
<path d="M220.864 429.25L205.333 419.227L208.121 414.392L225.57 425.108L220.864 429.25Z" fill="#4CAF4F"/>
<path d="M194.48 437.236C193.117 437.07 191.808 436.606 190.645 435.878C190.597 435.862 190.555 435.83 190.526 435.789C190.496 435.748 190.48 435.698 190.48 435.647C190.48 435.597 190.496 435.547 190.526 435.506C190.555 435.464 190.597 435.433 190.645 435.416C191.066 435.281 194.725 434.153 195.786 435.023C195.905 435.122 195.995 435.251 196.048 435.396C196.101 435.542 196.113 435.699 196.085 435.851C196.066 436.096 195.985 436.331 195.849 436.536C195.713 436.74 195.528 436.906 195.31 437.019C195.055 437.158 194.77 437.233 194.48 437.236ZM191.42 435.742C193.12 436.612 194.48 436.924 195.133 436.598C195.275 436.519 195.395 436.406 195.48 436.268C195.566 436.13 195.615 435.972 195.622 435.81C195.622 435.593 195.622 435.498 195.5 435.444C194.929 434.982 192.889 435.335 191.393 435.742H191.42Z" fill="#263238"/>
<path d="M190.74 435.972C190.668 435.971 190.6 435.942 190.549 435.891C190.529 435.853 190.519 435.811 190.519 435.769C190.519 435.726 190.529 435.684 190.549 435.647C190.549 435.524 191.433 432.577 192.821 431.912C192.998 431.831 193.19 431.789 193.385 431.789C193.58 431.789 193.772 431.831 193.949 431.912C194.14 431.972 194.306 432.094 194.419 432.259C194.532 432.424 194.587 432.622 194.575 432.821C194.48 434.044 191.991 435.728 190.849 436.013L190.74 435.972ZM193.378 432.265C193.246 432.269 193.116 432.301 192.997 432.36C192.154 432.767 191.461 434.356 191.121 435.321C192.317 434.818 193.963 433.487 194.017 432.74C194.017 432.618 194.017 432.468 193.705 432.333C193.603 432.278 193.492 432.241 193.378 432.224V432.265Z" fill="#263238"/>
<path d="M213.887 443.103C212.35 443.103 210.215 441.134 209.045 439.925C209.016 439.884 209 439.834 209 439.783C209 439.732 209.016 439.682 209.045 439.64C209.072 439.596 209.111 439.561 209.156 439.537C209.201 439.513 209.253 439.502 209.304 439.504C209.848 439.504 214.567 440.211 215.233 441.542C215.304 441.661 215.341 441.797 215.341 441.935C215.341 442.074 215.304 442.21 215.233 442.329C215.134 442.537 214.983 442.715 214.795 442.848C214.607 442.981 214.388 443.064 214.159 443.09L213.887 443.103ZM209.943 440.115C211.657 441.772 213.166 442.696 214.023 442.587C214.173 442.568 214.316 442.512 214.439 442.424C214.563 442.336 214.663 442.22 214.73 442.085C214.761 442.038 214.777 441.984 214.777 441.929C214.777 441.873 214.761 441.819 214.73 441.772C214.377 441.039 211.861 440.414 209.943 440.115Z" fill="#263238"/>
<path d="M210.093 440.048C209.788 440.056 209.482 440.034 209.182 439.98C209.14 439.974 209.1 439.956 209.067 439.93C209.033 439.904 209.007 439.87 208.991 439.83C208.971 439.79 208.96 439.746 208.96 439.701C208.96 439.657 208.971 439.612 208.991 439.572C209.073 439.477 210.909 437.263 212.65 437.114C213.143 437.076 213.631 437.232 214.01 437.549C214.54 438.01 214.513 438.418 214.377 438.676C214.037 439.6 211.684 440.048 210.093 440.048ZM209.739 439.545C211.263 439.627 213.697 439.124 214.01 438.459C214.01 438.459 214.119 438.241 213.765 437.943C213.624 437.82 213.46 437.728 213.282 437.672C213.104 437.616 212.917 437.597 212.731 437.617C211.559 437.943 210.515 438.621 209.739 439.559V439.545Z" fill="#263238"/>
<path d="M191.107 434.506L179.575 431.246C179.376 431.186 179.162 431.201 178.974 431.289C178.785 431.377 178.636 431.531 178.555 431.721L174.665 440.455C174.574 440.678 174.531 440.919 174.539 441.16C174.547 441.401 174.607 441.638 174.714 441.855C174.82 442.072 174.972 442.264 175.158 442.418C175.344 442.572 175.561 442.685 175.794 442.75C179.874 443.809 181.832 444.108 186.905 445.561C190.033 446.43 194.494 448.047 198.805 449.269C203.116 450.491 204.558 446.295 202.885 445.398C195.323 441.405 194.725 438.607 192.658 435.619C192.288 435.078 191.739 434.684 191.107 434.506Z" fill="#4CAF4F"/>
<path d="M209.358 438.336L199.512 431.545C199.345 431.424 199.139 431.368 198.934 431.388C198.728 431.408 198.537 431.503 198.397 431.654L191.869 438.662C191.71 438.843 191.591 439.056 191.521 439.286C191.45 439.517 191.43 439.76 191.461 439.999C191.492 440.238 191.573 440.467 191.7 440.672C191.826 440.878 191.995 441.053 192.195 441.188C195.663 443.511 197.458 444.448 201.797 447.449C204.517 449.297 209.78 453.398 213.452 455.952C217.124 458.505 219.857 455.001 218.552 453.615C212.704 447.381 211.425 443.47 210.46 439.925C210.292 439.282 209.902 438.719 209.358 438.336Z" fill="#4CAF4F"/>
<path d="M201.375 425.705L183.627 416.891L185.463 412.083L204.421 421.373L201.375 425.705Z" fill="#4CAF4F"/>
<path d="M178.296 259.574L176.8 263.486C176.65 263.784 177.004 264.097 177.507 264.097H222.496C222.89 264.097 223.217 263.907 223.244 263.662L223.625 259.778C223.625 259.52 223.312 259.289 222.89 259.289H179.003C178.871 259.276 178.738 259.296 178.615 259.345C178.492 259.395 178.382 259.473 178.296 259.574Z" fill="#4CAF4F"/>
<path opacity="0.4" d="M178.296 259.574L176.8 263.486C176.65 263.784 177.004 264.097 177.507 264.097H222.496C222.89 264.097 223.217 263.907 223.244 263.662L223.625 259.778C223.625 259.52 223.312 259.289 222.89 259.289H179.003C178.871 259.276 178.738 259.296 178.615 259.345C178.492 259.395 178.382 259.473 178.296 259.574Z" fill="white"/>
<path d="M185.382 264.477H184.198C183.967 264.477 183.79 264.354 183.804 264.205L184.362 259.166C184.362 259.03 184.579 258.908 184.81 258.908H185.994C186.225 258.908 186.402 259.03 186.388 259.166L185.83 264.205C185.817 264.354 185.613 264.477 185.382 264.477Z" fill="#4CAF4F"/>
<path d="M213.126 264.477H211.956C211.725 264.477 211.548 264.354 211.562 264.205L212.106 259.166C212.106 259.03 212.337 258.908 212.568 258.908H213.738C213.969 258.908 214.159 259.03 214.132 259.166L213.588 264.205C213.52 264.354 213.371 264.477 213.126 264.477Z" fill="#4CAF4F"/>
<g style="mix-blend-mode:multiply">
<path d="M184.348 494.483C204.47 494.483 220.782 493.303 220.782 491.848C220.782 490.393 204.47 489.213 184.348 489.213C164.226 489.213 147.914 490.393 147.914 491.848C147.914 493.303 164.226 494.483 184.348 494.483Z" fill="#F5F5F5"/>
</g>
<path d="M206.543 488.126C200.097 486.252 192.943 483.848 188.618 481.336C188.496 481.254 188.36 481.213 188.238 481.145V451.999H201.28C202.27 451.941 203.2 451.507 203.881 450.786C204.561 450.065 204.94 449.112 204.94 448.122C204.94 447.131 204.561 446.178 203.881 445.457C203.2 444.736 202.27 444.302 201.28 444.244H188.306V311.388H180.472V444.244H167.511C166.982 444.213 166.452 444.29 165.954 444.47C165.455 444.651 164.999 444.932 164.613 445.295C164.228 445.658 163.92 446.096 163.71 446.582C163.5 447.068 163.392 447.592 163.392 448.122C163.392 448.651 163.5 449.175 163.71 449.661C163.92 450.147 164.228 450.585 164.613 450.948C164.999 451.311 165.455 451.592 165.954 451.773C166.452 451.953 166.982 452.03 167.511 451.999H180.472V481.105C180.35 481.105 180.227 481.213 180.105 481.295C175.712 483.848 168.613 486.252 162.166 488.086C161.731 488.217 161.357 488.5 161.112 488.883C160.868 489.266 160.768 489.724 160.832 490.174C160.897 490.624 161.12 491.035 161.462 491.335C161.804 491.635 162.242 491.802 162.697 491.807H206.013C206.448 491.777 206.859 491.6 207.178 491.304C207.498 491.008 207.706 490.612 207.768 490.181C207.83 489.75 207.742 489.311 207.519 488.937C207.297 488.563 206.952 488.277 206.543 488.126Z" fill="#E0E0E0"/>
<path d="M208.542 297.86H160.181C156.29 297.86 153.136 301.01 153.136 304.896V319.252C153.136 323.137 156.29 326.287 160.181 326.287H208.542C212.433 326.287 215.587 323.137 215.587 319.252V304.896C215.587 301.01 212.433 297.86 208.542 297.86Z" fill="#4CAF4F"/>
<path d="M159.732 326.301V328.773C159.732 330.81 161.949 332.467 164.669 332.467H204.109C206.829 332.467 209.046 330.81 209.046 328.773V326.301H159.732Z" fill="#4CAF4F"/>
<path opacity="0.3" d="M159.732 326.301V328.773C159.732 330.81 161.949 332.467 164.669 332.467H204.109C206.829 332.467 209.046 330.81 209.046 328.773V326.301H159.732Z" fill="white"/>
<path d="M321.561 137.108C321.618 136.046 322.495 135.214 323.559 135.214H382.536C383.682 135.214 384.594 136.175 384.533 137.32L381.933 186.394C381.877 187.456 380.999 188.289 379.936 188.289H320.959C319.813 188.289 318.901 187.327 318.962 186.183L321.561 137.108Z" fill="#ECFFED"/>
<path d="M314.022 284.958C314.079 283.896 314.956 283.065 316.019 283.065H376.207C377.354 283.065 378.266 284.028 378.204 285.173L375.554 334.248C375.497 335.309 374.62 336.14 373.557 336.14H313.369C312.222 336.14 311.31 335.178 311.372 334.032L314.022 284.958Z" fill="#ECFFED"/>
<path d="M317.818 210.4C317.875 209.339 318.752 208.508 319.815 208.508H380.003C381.15 208.508 382.062 209.47 382 210.616L379.35 259.69C379.293 260.751 378.416 261.583 377.353 261.583H317.165C316.018 261.583 315.106 260.62 315.168 259.475L317.818 210.4Z" fill="#ECFFED"/>
</svg>
